<svg id="圖層_1" data-name="圖層 1" xmlns="http://www.w3.org/2000/svg" viewBox="0 0 18.92 19.26"><defs><style>.cls-1{fill:#9db6b8;}.cls-2{fill:#ede6dd;}</style></defs><circle class="cls-1" cx="9.46" cy="9.64" r="7.77"/><path class="cls-2" d="M11.57,3a.44.44,0,0,0,0,.08l.05.12V3.3s0,0,0,0v.05s0,.06,0,.08v.07s0,0,0,0v.14a.25.25,0,0,1,0,.1l0,.27a1.11,1.11,0,0,1-.05.24,1.8,1.8,0,0,1,0,.22.53.53,0,0,1-.08.23l-.17.39-.08.21a2,2,0,0,1-.1.21l-.27.4h0s0,0,0,0l-.11,0a.24.24,0,0,1-.12,0A.12.12,0,0,1,10.48,6a.36.36,0,0,1,0-.21.79.79,0,0,1,.12-.14h0s0,0,0,0l0,0,0,0a.36.36,0,0,0,.05-.12l.1-.16.11-.2A.76.76,0,0,1,11,4.9c0-.05,0-.06,0-.06l.07-.24a1.07,1.07,0,0,0,.09-.27.35.35,0,0,1,0-.12v0a.31.31,0,0,1,0-.1h0a1.25,1.25,0,0,0,0-.15,1,1,0,0,0,0-.34,2.48,2.48,0,0,0-.12-.41h0l-.06-.05h0l0,0L11,3.07h0L10.93,3s0,0-.06,0H10.8l-.13,0h-.06l-.06,0h-.34l-.16,0a1,1,0,0,0-.2.08l-.11,0H9.69l0,0h0l0,0h0l-.08,0-.1,0-.1,0h0l0,0,0,0-.08.06-.1.08A.1.1,0,0,0,9,3.5L9,3.52H9l-.06.05a.14.14,0,0,0-.08.09l-.14.05s0,0,0,0l-.14.1-.07.06,0,.05h0a.51.51,0,0,1-.16.13.39.39,0,0,1-.15.12l0,.07L8,4.34H8s0,0,0,0a.05.05,0,0,1,0,0l-.12.12h0v0a0,0,0,0,1,0,0v0a.58.58,0,0,1-.08.1l-.07.11,0,.17c-.06,0-.08.05-.08.09a.05.05,0,0,0,0,0,0,0,0,0,1,0,0l-.06.11,0,0h0a.15.15,0,0,0,0,.08.37.37,0,0,1,0,.12s0,0,0,.06,0,0,0,0a.31.31,0,0,0,0,.08.2.2,0,0,1,0,.07v.06a.43.43,0,0,0,0,.11v.18a.92.92,0,0,0,0,.16.57.57,0,0,0,0,.18.13.13,0,0,0,0,.06.37.37,0,0,1,0,.12v0a1.06,1.06,0,0,0,0,.18L7.41,7h0l0,.07a.81.81,0,0,1,.11.26.82.82,0,0,0,.12.2,1,1,0,0,1,.13.24h0l.1.16L8,8s0,0,0,0l0,0,.11.18,0,0s0,0,0,0l0,.13a.42.42,0,0,1,0,.11v0l0,0,.08.08v.07s0,0,.06.07v.06A.28.28,0,0,0,8.4,9h0l0,0v.06a0,0,0,0,0,0,0v0h0v0h0l.06.3h.2a.71.71,0,0,1,.21,0h1.17a3.37,3.37,0,0,0,.55,0l.16,0h.08l.17,0h.23l.39-.06.46-.08.44-.09.32-.09c.12,0,.19,0,.19.13a.19.19,0,0,1,0,.12l-.12.06-.26.1-.35.12L12,9.7l-.31.06-.32,0-.2,0h0a.74.74,0,0,1-.28,0h-.08l-.13,0h-.17l-.12,0s0,0-.16,0l-.45,0H9a.09.09,0,0,0-.11,0H8.68l-.08,0h0a0,0,0,0,1-.05,0h0a.12.12,0,0,0,0,.07.31.31,0,0,1,0,.08v0a.17.17,0,0,1,0,.1s0,.06,0,.08v0a2.8,2.8,0,0,1,0,.41l-.05.39,0,.16-.06.18c0,.09,0,.18,0,.28a.85.85,0,0,1-.09.24l0,.11-.11.22a.64.64,0,0,1-.13.19.32.32,0,0,1,0,.09l0,.08,0,.05a.7.7,0,0,0,0,.13l0,.07a1,1,0,0,1-.12.15h0l0,.08-.13.27-.06.06a.36.36,0,0,1,0,.09.36.36,0,0,1,0,.09l-.09.16s-.09.05-.1.07l0,.08L7,14.19l-.21.27-.07.07-.09.07h0l-.07.09-.1.08h0L6,15.19H6l-.1.11-.08.08,0,0a.31.31,0,0,0-.12,0,.22.22,0,0,0-.07.06v0l-.06,0a2.31,2.31,0,0,1-.23.18.62.62,0,0,1-.24.1h0l-.14.12L4.85,16h0l-.06,0H4.73l-.09,0-.07,0-.42.12h0L4,16.27l-.29.05H3.12s0,0,0,0h0c-.07,0-.12,0-.13,0a.11.11,0,0,1-.1-.08H2.77l-.12,0s0-.05-.07-.05l-.12-.15h0l-.08-.09-.06-.08a.06.06,0,0,1,0-.06.14.14,0,0,0,0-.07v0a0,0,0,0,1,0,0v0l0,0h0a.3.3,0,0,1-.07-.17l0-.09v-.15a.08.08,0,0,0,0-.06v-.21s0,0,0-.07l0-.22a.71.71,0,0,1,0-.22.36.36,0,0,1,0-.11l0-.07,0-.13,0-.11,0-.06a.15.15,0,0,1,0-.07h0l.13-.28,0-.08a.29.29,0,0,0,.05-.16.28.28,0,0,0,.13-.15l0-.07s0,0,0-.07l0-.08h0L3,12.73a.55.55,0,0,1,.11-.17c.06-.06.11-.12.18-.18s0,0,0-.06h0l.26-.27a2,2,0,0,1,.21-.24l.27-.27h0a.48.48,0,0,1,.18-.17c0-.1.08-.16.17-.17s0,0,.08,0a.21.21,0,0,1,0-.06s0,0,0-.06l.12-.1h0l.16-.14A.62.62,0,0,1,5,10.67a.42.42,0,0,1,.18-.11l.14-.12,0,0h0s0,0,0,0,0,0,0,0l.06,0,.07,0,.06,0,.08,0,.16-.09.11-.05.12,0,.21-.14.14,0,.18-.06.19-.1L7,9.66H7.1l.1,0s0,0,0,0h.06a.6.6,0,0,0,.23-.06l0,0h.27l.24,0s0-.07,0-.07a0,0,0,0,0,0,0V9.27l0-.09,0-.06a.38.38,0,0,1,0-.13.08.08,0,0,0,0-.06s0,0,0,0l-.11-.18,0-.11v0l-.08-.09s0,0,0,0L7.6,8.34h0l-.33-.61-.11-.17-.09-.16L6.92,7l0,0V7l0-.11,0-.15a.31.31,0,0,1,0-.11.49.49,0,0,0,0-.12.11.11,0,0,0,0-.08v-.2a.12.12,0,0,1,0-.07l0,0a.08.08,0,0,0,0,0l0-.16,0-.07s0,0,0-.09v0a0,0,0,0,1,0,0,.77.77,0,0,1,.08-.28,1.29,1.29,0,0,1,0-.19c0-.06,0-.12.05-.17a0,0,0,0,1,0,0A0,0,0,0,1,7,5V5l.11-.22.11-.23.11-.19a.18.18,0,0,0,0-.07l.06-.09L7.58,4s.07,0,.06,0,0,0,0-.07l.08-.12.08-.07c.06,0,.1,0,.11-.06l.14-.14h0l0,0h0l.15-.12.15-.1a3,3,0,0,1,.32-.23l.36-.22.06,0,.17-.1.16-.07h.09l.08,0,.08,0h.1l.08,0,.14,0,.07,0h0l.06,0h.12s0,0,0,0h.29a1.41,1.41,0,0,1,.4.08l.32.13.1.09s0,0,0,.06a.15.15,0,0,0,.07.06Zm-3.5,7.1A.24.24,0,0,0,8,9.93H7.94L7.57,10l-.28.09L7,10.17l-.27.09h-.1l0,0h0l-.3.14h0a.23.23,0,0,1-.16.08l0,0,0,.05H6l-.12.08-.15.08-.11.06-.09.06a.44.44,0,0,1-.2.13l-.07,0-.07.05a.24.24,0,0,0-.06.09.15.15,0,0,1,0,.06l-.08,0L5,11.38l0,.09h0v0c0,.08-.09.11-.13.11l-.07.07h0l0,0,0,0,0,0c-.06,0-.09,0-.1,0a2.48,2.48,0,0,0-.31.36l-.08.1a.51.51,0,0,0-.13.12.24.24,0,0,0-.06.09l-.09.1-.1.1-.11.12h0l-.1.12-.07.1h0l0,0,0,0-.05.07a.9.9,0,0,0-.07.14l-.06.1a1.45,1.45,0,0,0-.13.18.46.46,0,0,0,0,.09.2.2,0,0,1,0,.08l-.09.12s0,.06,0,.07v0h0s0,.06,0,.1h0v0l0,.14a.08.08,0,0,1,0,0v0a.07.07,0,0,0,0,0s0,0,0,0v0l0,.05a.6.6,0,0,1,0,.16.34.34,0,0,0,0,.09v.08a.66.66,0,0,0,0,.21,2,2,0,0,0,0,.25,6593348375914.57,6593348375914.57,0,0,0,0,.06v0s0,0,0,.05l0,.1a.09.09,0,0,0,0,.08l.05.1s0,0,.06.05a.42.42,0,0,0,.21.06s0,0,.07,0a.15.15,0,0,1,.11,0h.39a.45.45,0,0,1,.17-.05h0l0,0,.31-.11.22-.11.07,0,.16-.11a.37.37,0,0,1,.15-.06l0,0H5l.1-.08,0,0,.1-.1.11-.08L5.48,15l.09,0,.07-.07.08-.06h0l.17-.17s0,0,.09-.08l.12-.12.14-.13s0,0,0-.08l.1-.09a.35.35,0,0,0,.08-.1L6.55,14l.12-.22a.28.28,0,0,0,.08-.06l0-.09v0a0,0,0,0,0,0,0l.09-.1.1-.19.06-.13A.37.37,0,0,1,7.13,13l.15-.23.06-.09a.43.43,0,0,0,0-.07s0,0,0-.08l0,0s0,0,0,0l0-.06,0-.07.06-.1a.34.34,0,0,0,.06-.12.23.23,0,0,0,0-.1.13.13,0,0,1,0-.08l0-.08.07-.22a.54.54,0,0,0,.05-.11s0-.08,0-.14l0-.1s0-.06,0-.09v0A.62.62,0,0,1,8,11v-.17a.24.24,0,0,1,0-.13v-.13a.31.31,0,0,1,0-.11.66.66,0,0,1,0-.13v-.29Z"/></svg>