<svg id="圖層_1" data-name="圖層 1" xmlns="http://www.w3.org/2000/svg" viewBox="0 0 160.85 77.81"><defs><style>.cls-1,.cls-3{fill:#565b65;}.cls-2{fill:#c3d6d4;}.cls-3{font-size:38.22px;font-family:GenJyuuGothicX-Monospace-Medium, Gen Jyuu Gothic X Monospace;font-weight:500;letter-spacing:0.05em;}</style></defs><path class="cls-1" d="M13.18,12.66a.58.58,0,0,1,.19.15.51.51,0,0,1,.1.21.53.53,0,0,1,0,.25,2.34,2.34,0,0,1-.18.48,2.69,2.69,0,0,1-.67.9,3.17,3.17,0,0,1-1,.6,3.11,3.11,0,0,1-1.16.21,2.86,2.86,0,0,1-1.18-.24,3,3,0,0,1-.94-.66,3,3,0,0,1-.63-1,3,3,0,0,1-.23-1.19,3,3,0,0,1,.24-1.19,3.38,3.38,0,0,1,.66-1,2.55,2.55,0,0,1,.3-.26L9,9.76H9a3.06,3.06,0,0,1,1.1-.38,3,3,0,0,1,1.39.12,2.67,2.67,0,0,1,.36.14l.35.2a2.13,2.13,0,0,1,.32.23,3.63,3.63,0,0,1,.39.4.41.41,0,0,1,.09.34.37.37,0,0,1-.2.28.42.42,0,0,1-.29.05.38.38,0,0,1-.24-.15l-.08-.08-.07-.09h0L12,10.68a.76.76,0,0,0-.17-.13h0a1.87,1.87,0,0,0-.31-.17l-.35-.13H11a1.83,1.83,0,0,0-.47-.05,2.29,2.29,0,0,0-.87.17,2.47,2.47,0,0,0-.71.48,2,2,0,0,0-.47.71,2.12,2.12,0,0,0-.18.87,2.28,2.28,0,0,0,.16.87A2.51,2.51,0,0,0,9,14a2.41,2.41,0,0,0,.68.48,2,2,0,0,0,.86.18,2.29,2.29,0,0,0,.66-.09l.31-.1.28-.14a2.27,2.27,0,0,0,.25-.18,1.58,1.58,0,0,0,.23-.22.23.23,0,0,0,.08-.17.32.32,0,0,0,0-.17.39.39,0,0,0-.12-.14.34.34,0,0,0-.17,0H10.88a.37.37,0,0,1-.27-.11A.41.41,0,0,1,10.5,13a.37.37,0,0,1,.11-.27.33.33,0,0,1,.27-.11H13A.46.46,0,0,1,13.18,12.66Z"/><path class="cls-1" d="M18,11.32a.35.35,0,0,1,.11.27v0a.38.38,0,0,1-.37.37h0a1.41,1.41,0,0,0-.52.1,1.38,1.38,0,0,0-.46.26,1.43,1.43,0,0,0-.36.38,1.16,1.16,0,0,0-.17.48V15a.39.39,0,0,1-.11.27.38.38,0,0,1-.28.12.36.36,0,0,1-.27-.12.35.35,0,0,1-.11-.27V11.69a.34.34,0,0,1,.11-.28.36.36,0,0,1,.27-.12.35.35,0,0,1,.28.12l0,0,0,0,.07.06.07,0h.05a.19.19,0,0,0,.11,0l.13-.06.15-.06.14-.06.13,0,.37-.07.34,0h0A.36.36,0,0,1,18,11.32Z"/><path class="cls-1" d="M23.54,14.73a.66.66,0,0,1-.19.46.64.64,0,0,1-.46.19h0a.58.58,0,0,1-.19,0l-.21,0a.57.57,0,0,0-.23,0,1.67,1.67,0,0,1-.69.13,2,2,0,0,1-1.5-.62,2.08,2.08,0,0,1-.45-.67,2,2,0,0,1-.17-.83,2,2,0,0,1,.17-.83,1.89,1.89,0,0,1,.45-.67,2.06,2.06,0,0,1,.67-.46,2.2,2.2,0,0,1,.83-.17,1.85,1.85,0,0,1,.78.16,1.9,1.9,0,0,1,.64.43,2.06,2.06,0,0,1,.43.64,2,2,0,0,1,.16.78Zm-2,0a1.34,1.34,0,0,0,.72-.19,1.49,1.49,0,0,0,.51-.52,1.44,1.44,0,0,0,0-1.32,1.37,1.37,0,0,0-.51-.53,1.34,1.34,0,0,0-.72-.19,1.32,1.32,0,0,0-.53.11.9.9,0,0,0-.24.12,1.73,1.73,0,0,0-.21.17,1.6,1.6,0,0,0-.29.44,1.41,1.41,0,0,0-.11.54,1.32,1.32,0,0,0,.11.53,1.34,1.34,0,0,0,.74.74A1.35,1.35,0,0,0,21.53,14.71Z"/><path class="cls-1" d="M25.49,17V13.21a1.77,1.77,0,0,1,.16-.77,1.9,1.9,0,0,1,.43-.64,2,2,0,0,1,.63-.43,2,2,0,0,1,.78-.16,2.15,2.15,0,0,1,.82.17,2.24,2.24,0,0,1,.68.45,2.33,2.33,0,0,1,.46.68,2.21,2.21,0,0,1,0,1.65,2.39,2.39,0,0,1-.46.68,1.84,1.84,0,0,1-.68.45,2.15,2.15,0,0,1-.82.17,1.7,1.7,0,0,1-.69-.13.56.56,0,0,1-.17-.09l-.14-.09a.14.14,0,0,0-.14,0,.12.12,0,0,0-.07.11V17a.39.39,0,0,1-.4.39.41.41,0,0,1-.28-.11A.39.39,0,0,1,25.49,17Zm2-5a1.34,1.34,0,0,0-.72.19,1.38,1.38,0,0,0-.5.52,1.48,1.48,0,0,0-.17.67,1.34,1.34,0,0,0,.17.65,1.28,1.28,0,0,0,.5.53,1.34,1.34,0,0,0,.72.19,1.35,1.35,0,0,0,.76-.23,1,1,0,0,0,.21-.17,1.55,1.55,0,0,0,.3-.44,1.36,1.36,0,0,0,0-1.07,1.55,1.55,0,0,0-.3-.44l-.09-.09-.12-.07a.8.8,0,0,0-.22-.13A1.33,1.33,0,0,0,27.49,12Z"/><path class="cls-1" d="M34.75,11.82a2.25,2.25,0,0,1,.53,1.47V15a.37.37,0,0,1-.74,0V13.29a1.42,1.42,0,0,0-.08-.52,1.18,1.18,0,0,0-.23-.43,1,1,0,0,0-.37-.29,1.09,1.09,0,0,0-.5-.11,1.1,1.1,0,0,0-.47.1,1,1,0,0,0-.36.25l-.13.18a1.28,1.28,0,0,0-.11.2,1.52,1.52,0,0,0-.1.47V15a.36.36,0,0,1-.11.26.35.35,0,0,1-.26.11h0a.34.34,0,0,1-.26-.12.48.48,0,0,1-.1-.33V9.82a.34.34,0,0,1,.11-.28.33.33,0,0,1,.27-.11.36.36,0,0,1,.28.11.38.38,0,0,1,.11.28V11a.24.24,0,0,0,.23.23h.94a1.79,1.79,0,0,1,.78.17A1.65,1.65,0,0,1,34.75,11.82Z"/><path class="cls-1" d="M38,10.17a.4.4,0,0,1-.13.31.38.38,0,0,1-.3.13.42.42,0,0,1-.32-.13.46.46,0,0,1,0-.62.42.42,0,0,1,.32-.13.38.38,0,0,1,.3.13A.4.4,0,0,1,38,10.17Zm-.44,1.13a.37.37,0,0,0-.28.11.42.42,0,0,0-.11.29V15a.41.41,0,0,0,.11.28.38.38,0,0,0,.28.12.36.36,0,0,0,.28-.12.38.38,0,0,0,.12-.28V11.7a.38.38,0,0,0-.12-.29A.36.36,0,0,0,37.52,11.3Z"/><path class="cls-1" d="M43.21,14.27a.37.37,0,0,1,.2.27.35.35,0,0,1-.12.33l-.2.17-.23.15a2.11,2.11,0,0,1-1,.27A2,2,0,0,1,41,15.3a1.86,1.86,0,0,1-.67-.46,1.83,1.83,0,0,1-.46-.67,2,2,0,0,1-.16-.83,2,2,0,0,1,.16-.83A2.22,2.22,0,0,1,41,11.38a2.08,2.08,0,0,1,.82-.17,2.11,2.11,0,0,1,1,.27,2.53,2.53,0,0,1,.44.33.35.35,0,0,1,.11.32.36.36,0,0,1-.2.28.34.34,0,0,1-.22,0,.35.35,0,0,1-.21-.1,1.34,1.34,0,0,0-1-.39,1.21,1.21,0,0,0-.52.11,1.27,1.27,0,0,0-.45.3,1.13,1.13,0,0,0-.29.43,1.25,1.25,0,0,0-.12.54,1.12,1.12,0,0,0,.12.53,1.25,1.25,0,0,0,.29.44,1.27,1.27,0,0,0,.45.3,1.21,1.21,0,0,0,.52.11,1.32,1.32,0,0,0,.66-.16,1.26,1.26,0,0,0,.3-.23.35.35,0,0,1,.21-.1A.38.38,0,0,1,43.21,14.27Z"/><path class="cls-1" d="M52.46,13.32a.39.39,0,0,1,0,.34.49.49,0,0,1-.12.13.34.34,0,0,1-.15.07.37.37,0,0,1-.34,0l-.11-.07-.1-.07-.11-.06-.09-.06a.86.86,0,0,1,0,.16,1,1,0,0,1,0,.17,1.75,1.75,0,0,1-.18.53,1.87,1.87,0,0,1-.33.45,1.62,1.62,0,0,1-.44.34,2.07,2.07,0,0,1-.52.2l-.3,0a.94.94,0,0,1-.29,0l-.17,0a.45.45,0,0,1-.16,0l-.16-.05-.15-.06a2.32,2.32,0,0,1-.46-.31,2,2,0,0,1-.35-.43,1.61,1.61,0,0,1-.22-.51c0-.1,0-.2,0-.3a1.41,1.41,0,0,1,0-.29c0-.1,0-.19,0-.29a2,2,0,0,1,.08-.26c0-.05,0-.1.07-.16a1,1,0,0,1,.08-.14,1,1,0,0,1,.08-.14,1.13,1.13,0,0,0,.1-.13,1.53,1.53,0,0,1,.3-.27,1.46,1.46,0,0,1-.21-.28,1.28,1.28,0,0,1-.18-.44,1.12,1.12,0,0,1,0-.48,1,1,0,0,1,0-.24.9.9,0,0,1,.06-.22l.06-.13.07-.13L48.2,10l.09-.12.16-.16.19-.13a1.36,1.36,0,0,1,.42-.2l.15,0,.14,0h.2l.23,0,.23.06.13.05.13.07.12.07.11.09a.8.8,0,0,1,.17.15,1.33,1.33,0,0,1,.14.19,2,2,0,0,1,.21.41,2.14,2.14,0,0,1,.07.48c0,.05,0,.1,0,.15s0,.09,0,.14a1,1,0,0,1-.06.23l-.09.21a1.72,1.72,0,0,1-.25.35l.05,0,0,0a4.53,4.53,0,0,1,.46.3l.47.29.29.19.28.19A.43.43,0,0,1,52.46,13.32Zm-2.34,1a1,1,0,0,0,.17-.19.44.44,0,0,0,.08-.11l.06-.11a.5.5,0,0,1,0-.13l0-.13v-.06a.2.2,0,0,0,0-.07.17.17,0,0,0,0-.07v-.07l0-.12a.65.65,0,0,1,0-.13L50.37,13a.44.44,0,0,0-.08-.11,1.07,1.07,0,0,0-.18-.19L50,12.67l-.11-.06-.13,0-.13,0a1.22,1.22,0,0,0-.27,0l-.13,0-.13,0-.12.06-.11.08-.09.09-.09.1a.91.91,0,0,0-.13.22,1.35,1.35,0,0,0-.08.24,1.31,1.31,0,0,0,0,.28.65.65,0,0,1,0,.13l0,.13.07.11a.75.75,0,0,0,.07.12,1.14,1.14,0,0,0,.19.19l.11.07.11.05.12,0,.13,0h.27l.14,0,.13,0a.3.3,0,0,0,.11-.06Zm-1.06-4a.71.71,0,0,0-.13.12.59.59,0,0,1,0,.08.2.2,0,0,0,0,.08.41.41,0,0,0-.05.17.6.6,0,0,0,0,.19.59.59,0,0,0,0,.17.56.56,0,0,0,0,.08.59.59,0,0,0,0,.08.79.79,0,0,0,.14.13l.15.1.17,0h.19l.18-.05.08-.05.08,0,.13-.13.05-.07a.2.2,0,0,0,0-.08l0-.09s0-.06,0-.09a.25.25,0,0,0,0-.1.19.19,0,0,0,0-.08s0-.06,0-.09l0-.09-.09-.16a.46.46,0,0,0-.07-.07l-.07-.06a.49.49,0,0,0-.15-.09l-.17,0H49.4l-.18,0-.08.05Z"/><path class="cls-1" d="M60.94,15.06l-.63-1.87a.35.35,0,0,0-.15-.2.46.46,0,0,0-.22-.06.43.43,0,0,0-.22.06.35.35,0,0,0-.15.2L59,15.07a.58.58,0,0,1-.55.39.57.57,0,0,1-.33-.11.58.58,0,0,1-.21-.28L56.14,9.94a.37.37,0,0,1,0-.35.38.38,0,0,1,.33-.16.36.36,0,0,1,.22.07.38.38,0,0,1,.14.19L58,13.12a.41.41,0,0,0,.15.21.38.38,0,0,0,.44,0,.41.41,0,0,0,.15-.21l.63-1.88a.57.57,0,0,1,1.08,0l.64,1.88a.34.34,0,0,0,.14.21.4.4,0,0,0,.45,0,.34.34,0,0,0,.14-.21L63,9.69a.45.45,0,0,1,.14-.19.37.37,0,0,1,.23-.07h0a.38.38,0,0,1,.32.16.34.34,0,0,1,.05.35L62,15.06a.55.55,0,0,1-.55.4.55.55,0,0,1-.33-.11A.56.56,0,0,1,60.94,15.06Z"/><path class="cls-1" d="M68.09,14.56a1.5,1.5,0,0,0,.3-.23.35.35,0,0,1,.21-.1.29.29,0,0,1,.22,0,.39.39,0,0,1,.1.61l0,0-.06.05-.06,0a.1.1,0,0,1-.05,0l-.06,0-.06,0,0,0-.06,0a2.11,2.11,0,0,1-1,.27,1.88,1.88,0,0,1-.82-.16,2,2,0,0,1-.68-.46,2.07,2.07,0,0,1-.45-.68,2,2,0,0,1-.17-.82,2.12,2.12,0,0,1,.6-1.5,2,2,0,0,1,1.48-.63,2.14,2.14,0,0,1,.81.17,2.1,2.1,0,0,1,.67.46L69,12l.12.16a1.74,1.74,0,0,1,.11.18l.09.18a.75.75,0,0,1,.06.31.6.6,0,0,1-.06.29.74.74,0,0,1-.15.26.94.94,0,0,1-.25.18l-.06,0a.71.71,0,0,1-.34.08h-2a.25.25,0,0,0-.24.15.24.24,0,0,0,0,.28,1.5,1.5,0,0,0,.29.34,1.54,1.54,0,0,0,.39.22,1.59,1.59,0,0,0,.48.07A1.52,1.52,0,0,0,68.09,14.56Zm-1.82-2,0,.06a.23.23,0,0,0,0,.24.27.27,0,0,0,.25.14h1.78a.27.27,0,0,0,.25-.14.23.23,0,0,0,0-.24.21.21,0,0,1,0-.06l-.07-.12-.11-.12a1.14,1.14,0,0,0-.16-.14A1.52,1.52,0,0,0,67.8,12a1.59,1.59,0,0,0-.39-.07h0a1.23,1.23,0,0,0-.74.24,1.26,1.26,0,0,0-.17.13l-.11.13Z"/><path class="cls-1" d="M73.2,11.22a2.05,2.05,0,0,1,.83.17,2.32,2.32,0,0,1,.67.45,2.29,2.29,0,0,1,.46.67,2.12,2.12,0,0,1,.17.83,2.2,2.2,0,0,1-.17.83,2.46,2.46,0,0,1-.45.67,2.29,2.29,0,0,1-.67.46,2,2,0,0,1-.83.16,1.73,1.73,0,0,1-.69-.13l-.1-.05a.27.27,0,0,1-.1-.06.39.39,0,0,0-.23-.05.35.35,0,0,0-.21.1l-.11.08a.47.47,0,0,1-.17,0,.38.38,0,0,1-.39-.38V9.73a.39.39,0,0,1,.78,0v1.09a.36.36,0,0,0,.11.28.38.38,0,0,0,.28.12Zm0,.74a1.38,1.38,0,0,0-.71.19A1.41,1.41,0,0,0,72,14a1.28,1.28,0,0,0,.49.52,1.34,1.34,0,0,0,.72.19,1.32,1.32,0,0,0,.53-.1,1.48,1.48,0,0,0,.45-.3,1.5,1.5,0,0,0,.3-.43,1.51,1.51,0,0,0,0-1.08l-.13-.23a1.63,1.63,0,0,0-.17-.2,1.55,1.55,0,0,0-.44-.3A1.49,1.49,0,0,0,73.2,12Z"/><path class="cls-1" d="M82.4,9.43a3,3,0,0,1,1.16.23,3.41,3.41,0,0,1,.5.28,2.95,2.95,0,0,1,1.08,1.31,2.93,2.93,0,0,1,.23,1.16,3,3,0,0,1-.23,1.16,3.2,3.2,0,0,1-.64.94,2.17,2.17,0,0,1-.44.36,2.69,2.69,0,0,1-.5.28,3.08,3.08,0,0,1-1.16.23h-1a1.38,1.38,0,0,1-.49-.1A1.19,1.19,0,0,1,80.5,15a1.16,1.16,0,0,1-.26-.39,1.12,1.12,0,0,1-.1-.48V10.67a1.19,1.19,0,0,1,.1-.49,1.16,1.16,0,0,1,.26-.39,1.36,1.36,0,0,1,.39-.27,1.37,1.37,0,0,1,.49-.09Zm.08,5.13h.11a2.12,2.12,0,0,0,1-.37,2.21,2.21,0,0,0,.73-.79,2.3,2.3,0,0,0,.17-.48,1.79,1.79,0,0,0,.07-.51,1.81,1.81,0,0,0-.07-.52,2.17,2.17,0,0,0-.17-.47,2.27,2.27,0,0,0-.73-.81,1.82,1.82,0,0,0-1-.36h-.37a1.12,1.12,0,0,0-.48.1,1.33,1.33,0,0,0-.39.26,1.19,1.19,0,0,0-.27.39,1.29,1.29,0,0,0-.1.48v1.86a1.29,1.29,0,0,0,.1.48,1.19,1.19,0,0,0,.27.39,1.16,1.16,0,0,0,.39.26,1.12,1.12,0,0,0,.48.1Z"/><path class="cls-1" d="M89.85,14.56a1.5,1.5,0,0,0,.3-.23.35.35,0,0,1,.2-.1.31.31,0,0,1,.23,0,.39.39,0,0,1,.1.61l0,0-.06.05-.06,0a.1.1,0,0,1,0,0l-.06,0-.06,0,0,0-.06,0a2.11,2.11,0,0,1-1,.27,1.88,1.88,0,0,1-.82-.16,2,2,0,0,1-.68-.46,2.07,2.07,0,0,1-.45-.68,2,2,0,0,1-.17-.82,2.12,2.12,0,0,1,.6-1.5,2,2,0,0,1,1.48-.63,2.14,2.14,0,0,1,.81.17,2.1,2.1,0,0,1,.67.46l.12.15.12.16a1.74,1.74,0,0,1,.11.18l.09.18a.75.75,0,0,1,.06.31.6.6,0,0,1-.06.29.74.74,0,0,1-.15.26.94.94,0,0,1-.25.18l-.06,0a.71.71,0,0,1-.34.08h-2a.25.25,0,0,0-.24.15.24.24,0,0,0,0,.28,1.5,1.5,0,0,0,.29.34,1.54,1.54,0,0,0,.39.22,1.59,1.59,0,0,0,.48.07A1.52,1.52,0,0,0,89.85,14.56Zm-1.82-2,0,.06a.21.21,0,0,0,0,.24.27.27,0,0,0,.25.14H90a.27.27,0,0,0,.25-.14.23.23,0,0,0,0-.24l0-.06-.08-.12-.1-.12a1.14,1.14,0,0,0-.16-.14,1.52,1.52,0,0,0-.36-.18,1.59,1.59,0,0,0-.39-.07h0a1.23,1.23,0,0,0-.74.24,1.26,1.26,0,0,0-.17.13l-.11.13Z"/><path class="cls-1" d="M95.44,13.68a1,1,0,0,1,.13.44,1.12,1.12,0,0,1-.06.45,1.09,1.09,0,0,1-.23.39,1.48,1.48,0,0,1-.36.3,1.23,1.23,0,0,1-.43.16,2.33,2.33,0,0,1-.79,0,1.72,1.72,0,0,1-.39-.1l-.17-.09a.37.37,0,0,1-.13-.12.31.31,0,0,1-.07-.18.29.29,0,0,1,0-.18.33.33,0,0,1,.11-.15.3.3,0,0,1,.17-.08.4.4,0,0,1,.24,0l.22.06.17,0,.17,0a.69.69,0,0,0,.42-.1.37.37,0,0,0,.21-.36.51.51,0,0,0-.37-.47l-.21,0a1.59,1.59,0,0,1-.43-.06,1.76,1.76,0,0,1-.39-.19,1.26,1.26,0,0,1-.32-.29,1.18,1.18,0,0,1-.19-.39,1,1,0,0,1,0-.45,1.53,1.53,0,0,1,.14-.41,1.27,1.27,0,0,1,.27-.34,1.31,1.31,0,0,1,.37-.24,1.46,1.46,0,0,1,.39-.12h.4l.24,0,.23,0,.21.06a.78.78,0,0,1,.2.11.39.39,0,0,1,0,.64.41.41,0,0,1-.18.05.68.68,0,0,1-.2,0l-.19,0-.19,0a1.45,1.45,0,0,0-.36,0,.48.48,0,0,0-.32.15.4.4,0,0,0-.11.2.41.41,0,0,0,0,.22.48.48,0,0,0,.09.19.53.53,0,0,0,.19.13.84.84,0,0,0,.24.06h.23a1.45,1.45,0,0,1,.42.12,1.67,1.67,0,0,1,.37.24A1.31,1.31,0,0,1,95.44,13.68Z"/><path class="cls-1" d="M97.79,10.17a.4.4,0,0,1-.13.31.38.38,0,0,1-.3.13.42.42,0,0,1-.32-.13.46.46,0,0,1,0-.62.42.42,0,0,1,.32-.13.38.38,0,0,1,.3.13A.4.4,0,0,1,97.79,10.17Zm-.44,1.13a.37.37,0,0,0-.28.11.42.42,0,0,0-.11.29V15a.41.41,0,0,0,.11.28.38.38,0,0,0,.28.12.36.36,0,0,0,.28-.12.38.38,0,0,0,.12-.28V11.7a.38.38,0,0,0-.12-.29A.36.36,0,0,0,97.35,11.3Z"/><path class="cls-1" d="M103.39,11.67v4a2.77,2.77,0,0,1-.16.74,1.54,1.54,0,0,1-.36.59,1.58,1.58,0,0,1-.6.4,2.33,2.33,0,0,1-.87.15,1.87,1.87,0,0,1-.64-.11,1.39,1.39,0,0,1-.28-.12,2.26,2.26,0,0,1-.26-.16,2.5,2.5,0,0,1-.32-.33s0,0,0,0l0,0a.35.35,0,0,1-.07-.21.46.46,0,0,1,0-.2.38.38,0,0,1,.14-.14.32.32,0,0,1,.2-.06.4.4,0,0,1,.32.16,1,1,0,0,0,.29.28,1.18,1.18,0,0,0,.62.17,1.65,1.65,0,0,0,.63-.11.86.86,0,0,0,.36-.28,1,1,0,0,0,.17-.42,1,1,0,0,0,0-.25,2.44,2.44,0,0,0,0-.27V15a1.54,1.54,0,0,1-.51.35,1.63,1.63,0,0,1-.69.13,2,2,0,0,1-.82-.17,1.88,1.88,0,0,1-.67-.45,1.94,1.94,0,0,1-.26-.31,3.07,3.07,0,0,1-.2-.36,2.23,2.23,0,0,1,0-1.66,3.07,3.07,0,0,1,.2-.36,2.51,2.51,0,0,1,.26-.31,2.19,2.19,0,0,1,.67-.45,2.11,2.11,0,0,1,.82-.17,1.63,1.63,0,0,1,.69.14h0a.67.67,0,0,0,.34.09.83.83,0,0,0,.34-.1l.08,0H103a.38.38,0,0,1,.37.37Zm-2,3a1.33,1.33,0,0,0,1.21-.71,1.48,1.48,0,0,0,.17-.67,1.41,1.41,0,0,0-.17-.66,1.51,1.51,0,0,0-.49-.52,1.34,1.34,0,0,0-.72-.19,1.32,1.32,0,0,0-.53.1,1.42,1.42,0,0,0-.44.3,1.26,1.26,0,0,0-.29.43,1.24,1.24,0,0,0-.11.54,1.12,1.12,0,0,0,.11.53.9.9,0,0,0,.12.24,1.12,1.12,0,0,0,.17.21,1.25,1.25,0,0,0,.44.29A1.12,1.12,0,0,0,101.4,14.71Z"/><path class="cls-1" d="M106.79,11.21a2.09,2.09,0,0,1,.78.16,1.88,1.88,0,0,1,.58.46,2.25,2.25,0,0,1,.37.67,2.76,2.76,0,0,1,.13.82V15a.38.38,0,0,1-.38.38.36.36,0,0,1-.26-.11.4.4,0,0,1-.11-.27V13.34c0-.1,0-.19,0-.28a1.22,1.22,0,0,0-.06-.26,1.35,1.35,0,0,0-.2-.44,1,1,0,0,0-.34-.3,1.15,1.15,0,0,0-.5-.11,1.06,1.06,0,0,0-.5.11.85.85,0,0,0-.35.3,1.35,1.35,0,0,0-.2.44,2,2,0,0,0-.07.54h0V15a.38.38,0,0,1-.37.38h0a.39.39,0,0,1-.27-.11.4.4,0,0,1-.11-.27V13.12a1.88,1.88,0,0,1,.15-.74,2.11,2.11,0,0,1,.41-.61,1.91,1.91,0,0,1,1.36-.56Z"/><path class="cls-1" d="M113.24,14.56a1.26,1.26,0,0,0,.3-.23.35.35,0,0,1,.21-.1.31.31,0,0,1,.23,0,.37.37,0,0,1,.19.28.36.36,0,0,1-.1.33l0,0L114,15l0,0-.06,0-.06,0-.06,0,0,0-.06,0a2.11,2.11,0,0,1-1,.27,2,2,0,0,1-1.49-.62,2,2,0,0,1-.46-.68,2,2,0,0,1-.17-.82,1.92,1.92,0,0,1,.16-.83,2.05,2.05,0,0,1,.44-.67,2.18,2.18,0,0,1,.66-.46,2.06,2.06,0,0,1,1.64,0,2.18,2.18,0,0,1,.66.46l.13.15.11.16a1.74,1.74,0,0,1,.11.18l.09.18a.75.75,0,0,1,.06.31.6.6,0,0,1-.06.29.61.61,0,0,1-.15.26.94.94,0,0,1-.25.18l-.06,0a.71.71,0,0,1-.34.08h-2a.25.25,0,0,0-.24.15.24.24,0,0,0,0,.28,1.33,1.33,0,0,0,.3.34,1.54,1.54,0,0,0,.39.22,1.49,1.49,0,0,0,.47.07A1.52,1.52,0,0,0,113.24,14.56Zm-1.81-2a.21.21,0,0,0,0,.06.23.23,0,0,0,0,.24.27.27,0,0,0,.25.14h1.78a.27.27,0,0,0,.25-.14.23.23,0,0,0,0-.24l0-.06-.07-.12-.11-.12a.76.76,0,0,0-.16-.14A1.66,1.66,0,0,0,113,12a1.76,1.76,0,0,0-.4-.07h0a1.23,1.23,0,0,0-.74.24,1.26,1.26,0,0,0-.17.13l-.11.13Z"/><path class="cls-1" d="M118.91,11.32a.35.35,0,0,1,.11.27v0a.38.38,0,0,1-.37.37h0a1.41,1.41,0,0,0-.52.1,1.38,1.38,0,0,0-.46.26,1.43,1.43,0,0,0-.36.38,1.16,1.16,0,0,0-.17.48V15a.39.39,0,0,1-.11.27.38.38,0,0,1-.28.12.36.36,0,0,1-.27-.12.35.35,0,0,1-.11-.27V11.69a.37.37,0,0,1,.1-.28.39.39,0,0,1,.28-.12.35.35,0,0,1,.28.12l0,0,0,0,.07.06.07,0h0a.19.19,0,0,0,.11,0l.13-.06.15-.06.14-.06.13,0,.37-.07.34,0h0A.36.36,0,0,1,118.91,11.32Z"/><path class="cls-2" d="M45.77,45.07c0-.06.08-.1.2-.14l.08-.09a.14.14,0,0,1,.09-.12v0l.1-.08.08-.06.27-.23.1-.12.12-.1a1.34,1.34,0,0,1,.28-.21l.21-.12.15-.06v0a3.21,3.21,0,0,1,.59-.42,4.85,4.85,0,0,1,.56-.28l.65-.27a1.09,1.09,0,0,1,.31-.08,1,1,0,0,1,.37-.06.19.19,0,0,0,.12,0,.66.66,0,0,1,.19,0h.24l.47.1.31.17.27.2a.27.27,0,0,1,.1.12.38.38,0,0,0,.06.13l0,.12.08.1A3.61,3.61,0,0,1,52,44.72c0,.08,0,.16,0,.24s0,.16,0,.25,0,0,0,.07a.19.19,0,0,0,0,.08.15.15,0,0,0,0,.1l-.13.39-.06.2a.64.64,0,0,0,0,.15l-.14.43-.15.39-.34.71a0,0,0,0,1,0,0,.05.05,0,0,0,0,0l-.3.69-.11.15h0l-.34.64-.36.65-.43.94h-.1l-.25.49-.1.15h0c-.06.08-.1.16-.15.23l-.1.2-.14.24-1.09,2-.31.64s0,0-.07.13-.08.19-.11.26a1.91,1.91,0,0,0-.15.28,2.86,2.86,0,0,0-.12.27v0s0,0,0,0l0,0v.14l-.12.37v0s0,0,0,0,0,0,0,0a.29.29,0,0,0-.06.19l-.06.16a.48.48,0,0,1-.11.25l-.08.29a.11.11,0,0,1,0,.05.09.09,0,0,0,0,0l-.07.17a.78.78,0,0,0,0,.18v.12a.33.33,0,0,1,0,.12,1,1,0,0,0,0,.27.12.12,0,0,0,0,.08v.08a.69.69,0,0,0,0,.1.29.29,0,0,1,0,.09l.06.06.06,0s0,0,.12.06l.17.08h.08l.48-.17a2.17,2.17,0,0,0,.46-.22,5.6,5.6,0,0,0,.61-.33l.54-.4.62-.49.47-.37.32-.31v0l.06-.06s0,0,0-.06a.13.13,0,0,1,.06-.07v0l.25-.24a4.89,4.89,0,0,0,.38-.39l.27-.21v0l1.19-1.16.27-.24a3.15,3.15,0,0,0,.3-.36l.19-.16v0l.51-.54.68-.73.24-.29.17-.16.08-.07h0l.78-.86.09-.09.11-.11.29-.31h0l.14-.14.06-.08h0l.74-.89.13-.17a1.7,1.7,0,0,1,.18-.19l.27-.27h0l.37-.43.14-.18a1.22,1.22,0,0,1,.15-.17l.14-.19.15-.16.28-.33.29-.37v0a.21.21,0,0,1,.06-.08h0a.57.57,0,0,0,.08-.13,1,1,0,0,1,.15-.18l.08-.08s0,0,0,0l.1-.24.56-.89.12-.14.06-.08.12-.14.07-.11.18-.28.12-.19.11-.12.12-.1h.16a.24.24,0,0,1,.13,0l.22.1a.43.43,0,0,1,0,.14v.11a.37.37,0,0,1-.08.2v.1a.2.2,0,0,1,0,.09.78.78,0,0,1-.14.2v0a0,0,0,0,0,0,0l-.11.19a1.27,1.27,0,0,1-.16.2h0l-.16.27-.15.2a.16.16,0,0,1-.06.08.14.14,0,0,0,0,.07s0,0,0,0l-.7,1-.18.21a.33.33,0,0,0-.08.18l-.07.14c-.15.26-.29.52-.44.76s-.29.49-.44.72l-.18.29-.43.76a1,1,0,0,1-.1.17.72.72,0,0,0-.11.15l-.55.93v0l-.08.16-.08.12-.08.08a.16.16,0,0,0,0,.09l-.1.18a1.06,1.06,0,0,1-.11.21c0,.06-.09.13-.14.2l-.3.58-.23.32-.37.64-.24.41c-.07.11-.14.22-.21.35s-.14.22-.2.31l-1,1.51-.62,1c-.21.35-.42.69-.61,1a.69.69,0,0,0-.15.21l-.09.2-.08.17v0a.1.1,0,0,0,0,.08l-.12.18L53,59.3l.39-.23.39-.22L55,58.17l.53-.29.15-.06.18-.09.33-.2v0l.12-.08.09,0a1.5,1.5,0,0,0,.32-.18l.52-.31v0l.14-.12a.29.29,0,0,1,.1-.09l.8-.57.23-.16.14-.09v0l.23-.18.18-.14,0-.05a0,0,0,0,1,0,0l.11-.07v0l.21-.16.12-.06.29-.21v0l.08-.06.64-.45v0l.9-.76v0l.1-.08a.39.39,0,0,1,.29-.16.33.33,0,0,1,.14,0,.31.31,0,0,1,.11.21,1.36,1.36,0,0,1,0,.18l-.1.2-.74.54-.57.45-.74.53v0l-.1,0-.1.08-.21.21-.26.22v0l-.17.15-.18.08a.45.45,0,0,0-.17.14l-.28.19-.41.24-.31.23-.19.14-.3.19L57,57.8v0l-.1.1a.42.42,0,0,1-.23.12h0l-1,.58a.85.85,0,0,1-.24.12l-.09,0,0,0-.09.06-.14.09-.35.17-.36.2-1.15.57-.64.39-.76.47c-.09.15-.19.3-.3.46a4.92,4.92,0,0,0-.29.46l-.27.43-.43.65-.41.64-.57.91-.31.45L49,65l-.23.3-.22.29-.21.27a2.43,2.43,0,0,1-.15.26c-.07.1-.12.18-.18.25l-.14.2-.17.23-.51.64c-.15.17-.31.37-.47.58l-.47.6c-.32.37-.64.74-1,1.1a12,12,0,0,1-1,1,2.3,2.3,0,0,1-.22.2l-.23.18,0,0-.14.15-.5.3-.53.27-.08,0-.23.08A1.26,1.26,0,0,1,42,72l-.29,0a1.82,1.82,0,0,1-.33,0,1.17,1.17,0,0,1-.35-.13h0s0,0-.11-.09l-.25-.27-.1-.22-.12-.33v-.1a.12.12,0,0,0,0,0,.07.07,0,0,1,0-.05.88.88,0,0,1,0-.24.63.63,0,0,1,0-.24,2.26,2.26,0,0,1,.07-.72,4.73,4.73,0,0,1,.21-.69c.09-.19.19-.4.32-.63a7.36,7.36,0,0,1,.4-.62c.11-.17.24-.35.38-.54a5,5,0,0,1,.46-.55h0l.35-.37.66-.69.63-.56.82-.72a6,6,0,0,1,.66-.53l1.15-.74.63-.41.35-.16v0l.16-.12.47-.27.41-.22c.3-.2.61-.38.91-.57s.6-.36.9-.52a.72.72,0,0,1,.25-.16l.26-.13L51,60.3l.13-.08.63-.94L52,58.8l.92-1.49.23-.37.37-.63c.12-.21.26-.42.41-.64s.4-.72.62-1.09l.69-1.09.39-.63.24-.35.29-.49a3.84,3.84,0,0,1,.31-.45q0-.1.15-.3a2.57,2.57,0,0,1,.2-.3l.08-.14a1.57,1.57,0,0,0,.12-.19l.14-.28a2.49,2.49,0,0,0,.17-.24l.16-.29-.1.1c0,.07-.11.13-.17.2a3.18,3.18,0,0,0-.26.33l-.16.21a1.1,1.1,0,0,0-.15.16l-.08.12-.7.72-.32.35h0l-.43.47-.7.72-.21.22-.45.48-.37.4-.26.29-.37.39a5.48,5.48,0,0,0-.44.4c-.15.14-.28.29-.4.42a1.67,1.67,0,0,0-.23.23l-.2.18h0l-.23.23a.61.61,0,0,1-.2.14v0l-1.07,1a4.05,4.05,0,0,0-.36.31,1.29,1.29,0,0,1-.23.19l-.43.38-.21.17-.46.31a3.15,3.15,0,0,1-.52.26,5.83,5.83,0,0,1-.59.25,2.7,2.7,0,0,1-.62.16,1.09,1.09,0,0,1-.31,0,.9.9,0,0,1-.35-.09.12.12,0,0,0-.1-.06l-.05,0-.18-.16-.12-.12-.12-.26a.67.67,0,0,1-.08-.33.94.94,0,0,1,0-.4,2.34,2.34,0,0,1,.09-.38,2.1,2.1,0,0,1,.1-.43.5.5,0,0,1,0-.23.37.37,0,0,0,0-.12l.1-.25.23-.69.18-.48a.17.17,0,0,1,.06-.12h0l.09-.16v0s0,0,.06-.06h0l.2-.52.08-.16a1.51,1.51,0,0,0,.23-.59l.45-.82q.21-.33.36-.6c.1-.18.21-.38.32-.61s.11-.19.16-.28a3.4,3.4,0,0,1,.21-.3,1.06,1.06,0,0,1,.1-.17,1.62,1.62,0,0,0,.1-.18.24.24,0,0,0,.08-.11.64.64,0,0,0,.06-.11.12.12,0,0,1,0-.06h0a.8.8,0,0,1,.08-.16l.08-.15a3,3,0,0,1,.25-.47.17.17,0,0,1,.05-.1l.11-.21a.84.84,0,0,0,.12-.23.91.91,0,0,0,.06-.16l.15-.29,0-.06,0-.07,0-.07,0-.12.08-.11a.21.21,0,0,1,0-.12s0,.06,0,.09.05,0,.12-.13l-.09,0,.07-.15,0-.09s0,0,0,0l.2-.41.29-.7.06-.14v0a2.07,2.07,0,0,1,.29-.7v0c.11-.41.2-.85.28-1.32a.79.79,0,0,0,.05-.24v-.17a1.85,1.85,0,0,0,0-.23c0-.08,0-.16,0-.26s0,0,0,0a.06.06,0,0,1,0,0l-.12-.25,0-.06a.1.1,0,0,1-.05-.06c-.07,0-.1,0-.1,0l-.23-.08h-.34a1.14,1.14,0,0,0-.31,0s0,0-.07,0H49.5l-.1,0v0a.22.22,0,0,1-.13.06h-.06l-.08,0-.08,0a.7.7,0,0,0-.2.08l-.19.11-.41.18s0,0-.06,0-.07,0-.15.12l-.42.32-.46.33-.22.17-.5.45v0l-.08.08-.21.19a1.17,1.17,0,0,0-.16.16l-.24.24-.17.13h0a.29.29,0,0,1-.07.08.3.3,0,0,0-.07.08.15.15,0,0,0,0,.06l0,.06s0,0,0,0l-.08.13-.13.16L45,47s0,0,0,.09l-.1.15-.08.19-.14.26a.46.46,0,0,1-.35.19q-.17,0-.18-.15l0-.08a.62.62,0,0,1,0-.18,1.93,1.93,0,0,1,0-.2.2.2,0,0,1,.06-.11,6.24,6.24,0,0,1,.37-.58,2.57,2.57,0,0,1,.45-.53L45,46l.08-.08a.18.18,0,0,1,0-.08l.15-.17.14-.14.37-.41Zm-1.09,20-.14.1v0l-.53.5a6.17,6.17,0,0,0-.5.59,5,5,0,0,0-.59.61l-.58.7-.1.12-.09.1a1,1,0,0,0-.11.29,2.24,2.24,0,0,0-.29.55,4.14,4.14,0,0,0-.15.41,3,3,0,0,0-.12.43s0,0,0,0,0,0,0,0a1.23,1.23,0,0,0,0,.19v.42a.58.58,0,0,0,0,.19.53.53,0,0,0,0,.16v0a0,0,0,0,0,0,0,.15.15,0,0,0,.07.12.62.62,0,0,0,.12.19l.06.06h.37l.29-.06,0,0,.12-.08.05,0a.22.22,0,0,0,0-.08l.29-.06.14-.12.14-.14.58-.43v0c.23-.21.46-.43.68-.67s.44-.47.67-.71h0l.35-.39c.2-.23.39-.44.55-.64s.34-.42.54-.67l.16-.2h0l.17-.22c.07-.07.12-.15.18-.21s0,0,0-.06,0,0,0,0l.8-1.06c.26-.36.51-.72.76-1.09l.31-.37.2-.39.08-.14.29-.53.74-1.09a.1.1,0,0,1,0-.06l.05-.06-.47.26-.56.37-.34.21a5.21,5.21,0,0,1-.49.29c-.15.09-.33.19-.52.28v0l-.2.19-.6.36-.43.25-.33.2L46,64l-.37.27,0,.06-.9.68h0Z"/><path class="cls-2" d="M62.7,52.82l.1,0,.09,0s.08,0,.14.08h0l.08.06v0c.08,0,.12.09.12.1a.37.37,0,0,1,0,.16.24.24,0,0,1,0,.13l-.14.18-.06.06L63,53.6h0l-.13.22a3.2,3.2,0,0,0-.32.49,1.63,1.63,0,0,1-.17.28.86.86,0,0,0-.1.16l-.08.16-.16.41c-.07.2-.14.4-.19.59a1.07,1.07,0,0,0-.06.17.76.76,0,0,1-.09.16s0,.07,0,.08,0,0,0,0,0,0,0,.07l0,.18a.14.14,0,0,1-.05.12V57a.88.88,0,0,1,0,.2c0,.06,0,.09,0,.09s0,0,0,0,0,0,0,.06,0,0,0,.08v0a0,0,0,0,1,0,0l.13.13h0a.13.13,0,0,0,.08,0l.08,0H62a.08.08,0,0,1,.07,0l.08,0v0l.06,0,0,0,.12,0,.51-.08.39-.07a.48.48,0,0,0,.21-.06l.08,0a.88.88,0,0,1,.27-.08,1.3,1.3,0,0,1,.47-.14l.39-.14A1.39,1.39,0,0,0,65,57l.17-.07.15-.07.33-.15.17-.08.28-.15.25-.12a1.12,1.12,0,0,0,.49-.2l.31-.14.56-.33.65-.43.29-.17.18-.12a.6.6,0,0,1,.21-.08l.38-.35a1.71,1.71,0,0,1,.37-.27l.2,0a.33.33,0,0,1,.23.11.29.29,0,0,1,0,.24.4.4,0,0,1-.15.22l-.39.28a1.07,1.07,0,0,1-.25.22l-.12.07,0,.06a1.12,1.12,0,0,0-.29.14l-.2.17,0,0,0,0v0a7.46,7.46,0,0,1-.82.5l-.78.42a2.25,2.25,0,0,0-.41.21,1.46,1.46,0,0,1-.28.14l-.27.1L66,57.3l-.28.13v0a.56.56,0,0,1-.26.16l-.25.08a1,1,0,0,0-.22.09l-.21.08-.2.08a2,2,0,0,1-.29.11l-.33.1h-.12l-.15,0-1,.22-.45,0s-.05,0-.05,0h0l-.21,0-.37-.09-.06,0a.13.13,0,0,1-.1,0l-.1-.08L61.06,58l-.08-.1-.09-.1s-.06-.08-.08-.1a.66.66,0,0,0,0-.23.06.06,0,0,0,0,0v0a.51.51,0,0,1,0-.19.59.59,0,0,0,0-.22v-.25l.1-.39a.16.16,0,0,1,0-.08.24.24,0,0,0,0-.08c.05-.19.11-.41.17-.65a2.76,2.76,0,0,1,.3-.72v0s0,0,0,0,0,0,0,0a.08.08,0,0,1,0,0s0,0,0,0l.08-.12h0c0-.11.11-.22.15-.32a2.36,2.36,0,0,1,.2-.32l.16-.24v0s0,0,0,0,0,0,0,0a.55.55,0,0,0,.11-.15l.14-.16h0l.16-.21v0l0,0s0,0,0,0,.16-.14.19-.14Zm.49-1.54c0-.38.21-.57.56-.57a.36.36,0,0,1,.33.14.43.43,0,0,1,.12.39.66.66,0,0,1-.16.4.42.42,0,0,1-.34.19.38.38,0,0,1-.37-.14A.62.62,0,0,1,63.19,51.28Z"/><path class="cls-2" d="M71.21,58.54a.31.31,0,0,1,.13-.06.87.87,0,0,1,.22,0c.24-.09.49-.19.75-.31l.19-.1.08-.05.33-.18.06,0,.08,0,.1,0,0-.08a1.94,1.94,0,0,0,.38-.2,4,4,0,0,0,.34-.23l.58-.41v0l.14-.13h0l.06-.06.07,0,.09,0v0l0,0A.77.77,0,0,0,75,56.4a1.26,1.26,0,0,1,.27-.2l.51-.43.27-.18.18-.13.16-.07s0,0,0,0l.33-.29.28-.21a.74.74,0,0,0,.22-.22,1.71,1.71,0,0,1,.3-.28,1.31,1.31,0,0,1,.39-.25v0c.07-.07.12-.09.16,0a.25.25,0,0,1,.05.17l0,.06a.16.16,0,0,1,0,.14.49.49,0,0,1-.15.23l-.11.09-.18.14-.2.17-.15.16-.38.35-.4.34a4.88,4.88,0,0,1-.45.37v0l-.16.13h0a1.36,1.36,0,0,1-.43.3v0l-.11.08-.16.17-.33.31-.41.3-.72.41v0l-.14.11-.1.08-.62.37-.53.26-.18,0a3.26,3.26,0,0,0-.5.21l-.1,0s-.05,0,0,0a.13.13,0,0,1-.08,0l-.06,0-.33.1h0a.54.54,0,0,1-.22.05l-.25.06-.38,0h-.51l-.14,0-.18-.07-.27-.12-.2-.16h0L69,58.87v0a.8.8,0,0,1-.22-.31l0-.06v0a.59.59,0,0,1-.12-.21.84.84,0,0,1-.08-.19.55.55,0,0,1,0-.22s0-.05,0-.06a.54.54,0,0,1,0-.08,1.11,1.11,0,0,1,0-.19.26.26,0,0,1,0-.14.75.75,0,0,0,0-.2,1.48,1.48,0,0,0,0-.21L69,55.32l.17-.47.31-.72.41-.86,1-2c.15-.29.31-.58.47-.87s.34-.59.53-.89l.09-.12a.57.57,0,0,1,.08-.13v0a.14.14,0,0,1,0-.06l0,0,0-.08a.37.37,0,0,1,.06-.1l.17-.21h0l.28-.47a1.43,1.43,0,0,0,.16-.24.91.91,0,0,1,.15-.23l.25-.39.36-.51.62-.89.2-.26.37-.45A3.46,3.46,0,0,1,75,45c.1-.12.18-.22.25-.32L76,43.9l.07-.1.2-.17.08-.08.07-.06.06,0,.06-.06.14-.1.08-.07c.24-.13.32-.17.25-.1l.08,0L77.4,43h.1l.08,0h.1l.17.1a.27.27,0,0,1,.1.17l0,.08s0,0,0,0a0,0,0,0,1,0,0,.32.32,0,0,1,0,.14.14.14,0,0,1,0,.13h0a.81.81,0,0,0-.06.22,1.06,1.06,0,0,1,0,.23l-.06.16s0,0,0,0a1.42,1.42,0,0,0-.08.18l-.33.71-.06.13c-.15.28-.29.58-.42.89a2.06,2.06,0,0,1-.3.56.12.12,0,0,0,0,.08l-.08.13a.92.92,0,0,1-.19.26h0a.87.87,0,0,1-.08.23s0,.1-.08.14l-.1.15h0l-.27.37-.18.32-.33.5-.35.57c-.08.12-.17.25-.27.38s-.22.3-.39.5c-.28.36-.55.67-.8.94s-.45.51-.63.7l-.14.16h0l-.48.56h0a.45.45,0,0,1-.1.09l-.1.11a1,1,0,0,1-.12.15v0l-.31.29-.19.18v0l-.2.2L71.1,54l-.27.26a1.9,1.9,0,0,1-.28.23v0l-.16.16-.08.06a3.66,3.66,0,0,0-.33.69c-.1.25-.18.5-.26.74s-.13.45-.17.64a2.46,2.46,0,0,0-.06.39.83.83,0,0,1-.07.37v.21s0,0,0,.06,0,0,0,.08l0,.1V58a.16.16,0,0,0,.07.13c0,.07,0,.1,0,.1l.15.16s0,0,.06,0l.08.12v0l.1,0a.41.41,0,0,0,.15,0h.32l.17,0a2.54,2.54,0,0,0,.39,0l.16,0h0Zm6-14.64-.06.06-.14.13-.18.18-.19.14v0l-.16.17h0a.79.79,0,0,1-.13.14.42.42,0,0,1-.16.12v0l-.24.26a4.2,4.2,0,0,0-.27.36l-.37.45-.39.55a.84.84,0,0,0-.14.19l-.13.14-.08.1h0l-.16.21-.33.44a3.37,3.37,0,0,0-.21.34l-.1.14h0a6.26,6.26,0,0,1-.51.82c-.11.18-.29.47-.53.88s-.51.85-.77,1.31l-.77,1.35a8.84,8.84,0,0,0-.51,1l-.11.21.62-.56v0l.39-.41.32-.34q.21-.23.42-.48l.18-.2.1-.17.17-.14h0l.39-.47a3.31,3.31,0,0,1,.25-.35c.11-.12.23-.27.38-.45l.31-.45.26-.34c.08-.12.16-.24.23-.36s.22-.3.32-.46.21-.36.34-.61l.18-.25.22-.32a2.69,2.69,0,0,0,.19-.32l.13-.23.18-.35c.1-.19.2-.4.31-.64a2.69,2.69,0,0,1,.16-.37,2.16,2.16,0,0,1,.19-.34l.08-.16a1.47,1.47,0,0,1,.12-.23l.14-.31a.14.14,0,0,1,0-.12h0l0-.15ZM74.82,56.55l0,0a.1.1,0,0,1,0,0l.07-.06Z"/><path class="cls-2" d="M76.84,57.06s0,0,0,0a.11.11,0,0,1,.08,0l0,0a.74.74,0,0,0,.37-.16l.18-.13v0l.08-.06.13-.08.08-.06.14-.14.12-.11a1,1,0,0,1,.19-.12l.21-.15.16-.12L79,55.6a2.77,2.77,0,0,1,.25-.24l.16-.15.17-.16a2.65,2.65,0,0,0,.41-.41l.23-.22.2-.21.21-.2.34-.39.09-.19a.61.61,0,0,1,.2-.2v0l.12-.12h0A.26.26,0,0,1,81.5,53a.37.37,0,0,1,.22,0A.48.48,0,0,1,82,53l.06.06.12.15v.22a.32.32,0,0,1,0,.23c0,.08-.06.16-.09.22v.17a.06.06,0,0,1,0,0s0,0,0,.06a1,1,0,0,1,0,.26c0,.1-.06.21-.08.31v0a.74.74,0,0,0-.05.23.83.83,0,0,0,0,.12,1.7,1.7,0,0,1-.07.49c0,.09,0,.19,0,.32a1.39,1.39,0,0,1,0,.32l0,.41c0,.14,0,.24,0,.31a.41.41,0,0,0,0,.14.08.08,0,0,0,.06.08l.11.25h0l.07.12a.17.17,0,0,0,0,.13l0,0,0,0h0s0,0,0,0l0,0,.18.12.09.06v0l.09,0,.09,0h0l.28,0A.52.52,0,0,0,83,58a.58.58,0,0,0,.21-.07l.2-.11h.06l.17-.06.18-.08.3-.14.26-.13.53-.41.17-.12a.75.75,0,0,0,.16-.13,6.51,6.51,0,0,0,.78-.57c.23-.21.46-.42.69-.66h0l.25-.26.31-.33.24-.25.21-.22a2.39,2.39,0,0,1,.22-.23l.19-.18a.21.21,0,0,0,0-.12.37.37,0,0,0,.16-.15v0l0,0s0,0,0,0l.15-.12.08-.11h0q0-.08.12,0a.55.55,0,0,1,.15.14l-.09.31-.08.16a.12.12,0,0,1-.1.12l0,.06-.06.09s0,0,0,0l-.35.33h0l-.21.26-.22.25-.33.33,0,.06a.86.86,0,0,0-.07.1l-1,.92-.34.29a1.76,1.76,0,0,0-.31.29l-.35.22a2.49,2.49,0,0,1-.24.17,2.29,2.29,0,0,0-.23.16l-.68.45a2.48,2.48,0,0,1-.94.31,1.7,1.7,0,0,1-.48.1,2.51,2.51,0,0,1-.55,0l-.1-.06-.1,0a.23.23,0,0,1-.1,0v0l-.23-.11a1,1,0,0,1-.22-.18L81.17,58l-.14-.2-.13-.47L80.84,57a.06.06,0,0,0,0,0s0,0,0-.08,0-.05,0-.06a.15.15,0,0,0,0-.07v-.24c0-.07,0-.15,0-.23s0-.17,0-.28a1.05,1.05,0,0,0,0-.24,1.62,1.62,0,0,0,0-.22,1.87,1.87,0,0,1,0-.32s0-.06,0-.08a.29.29,0,0,0,0-.09v-.3l.08-.33,0,0-.17.19a.79.79,0,0,1-.18.16,1.34,1.34,0,0,1-.21.28c-.09.11-.19.22-.28.31a4,4,0,0,1-.37.36l-.29.24a.67.67,0,0,1-.31.28l-.14.13-.12.08,0,0-.09.06-.1.1-.06.06h0l-.27.33-.24.19v0l-.12.11-.52.35a2.47,2.47,0,0,1-.33.14l-.12,0a.43.43,0,0,1-.22.06.33.33,0,0,1-.13,0,.36.36,0,0,1-.14,0l-.08,0a.24.24,0,0,1-.13,0s-.08,0-.14-.08h0a.76.76,0,0,1-.13-.13.93.93,0,0,1,0-.1.27.27,0,0,1-.11-.1l0-.14a.76.76,0,0,1,0-.25v-.22l.11-.29.08-.12,0,0a.15.15,0,0,1,0-.11h0l.1-.14.08-.2.41-.58.15-.18a2.34,2.34,0,0,0,.24-.31v0a.08.08,0,0,1,0,0,0,0,0,0,0,0,0,.39.39,0,0,1,.13-.15.87.87,0,0,1,.14-.12l.13-.16.26-.31c.09-.11.2-.22.31-.33a1.37,1.37,0,0,1,.26-.22l.08-.08.09-.09a.92.92,0,0,1,.43-.35l.26-.16v0l.15-.1.39-.19.19-.07.22,0,.2,0a.7.7,0,0,1,.27.19l.06.08,0,.1a.14.14,0,0,1,.08.12v.09c0,.08,0,.13,0,.14a.28.28,0,0,1-.31.27l-.08-.13v0s-.06,0-.06-.1l0-.06,0,0-.12,0,0,0a.12.12,0,0,1-.09,0l-.12.06v0a.17.17,0,0,1-.12.06l-.22.16a1.57,1.57,0,0,0-.19.15,1.62,1.62,0,0,0-.42.28,9.2,9.2,0,0,0-.87,1l-.23.29-.29.33a.71.71,0,0,1-.12.2l-.18.21a.75.75,0,0,0-.21.37l-.14.22-.08.1,0,0a0,0,0,0,1,0,0,.14.14,0,0,1,0,.07l0,0a.13.13,0,0,1,0,.1l0,0Z"/><path class="cls-2" d="M99.27,53.78l.17-.14a.29.29,0,0,1,.17-.08.17.17,0,0,1,.19,0h0s0,0,0,0a.43.43,0,0,1,.06.2.82.82,0,0,1,0,.19l-.35.39a1.21,1.21,0,0,0-.31.34,1.35,1.35,0,0,0-.47.39.26.26,0,0,0-.12.07l-.13.1h0a.55.55,0,0,1-.18.16v0l-.28.27a2,2,0,0,1-.19.16v0l-.23.19a1.9,1.9,0,0,1-.38.29l-.36.24-.31.27a1.43,1.43,0,0,1-.3.16,1.42,1.42,0,0,0-.41.25l-.49.26a1.87,1.87,0,0,0-.41.25,1.25,1.25,0,0,1-.27.15l-.29.11-.13,0a.3.3,0,0,0-.11.06c-.06,0-.09,0-.11,0l-.28,0-.35,0a1.26,1.26,0,0,1-.4,0,2.75,2.75,0,0,1-.44-.06l-.1,0-.39-.08-.09,0L91.83,58a.63.63,0,0,1-.23-.15,1.06,1.06,0,0,1-.18-.21h0l-.1-.11A3.08,3.08,0,0,1,91,57.1a1.92,1.92,0,0,1-.22-.35,1.27,1.27,0,0,1,0-.15.73.73,0,0,0-.06-.21,1.24,1.24,0,0,1-.06-.29,1.15,1.15,0,0,1,0-.21V54.66a.08.08,0,0,1,0,0s0,0,0-.06a.15.15,0,0,1,0-.07.22.22,0,0,0,0-.09l0-.49-.08-.11h-.21l0,0-.1.06-.1.09-.31.32-.47.47-.29.31L89,55.2l-.17.13,0,.05-.29.29v0s0,0,0,.08l-.06.1a.38.38,0,0,1-.09.09.38.38,0,0,0-.16.17l-.16.26-.25.36a.27.27,0,0,1-.08.17s0,0,0,0l-.19.27a1.85,1.85,0,0,0-.2.26,2.86,2.86,0,0,0-.17.29A.93.93,0,0,1,87,58c0,.07-.09.14-.14.2l-.14.16-.1.09c-.12.11-.23.12-.31,0a.38.38,0,0,1-.14-.24,3.45,3.45,0,0,1,.1-.43.21.21,0,0,1,.09-.16h0l.16-.46c0-.06.06-.14.11-.23l.18-.3.07-.08a.16.16,0,0,0,0-.08l.14-.29c.28-.61.55-1.18.82-1.7s.57-1,.88-1.58l.29-.49c.06-.11.12-.17.2-.17l.21,0,0,0,.08,0s.07,0,.13.09a.41.41,0,0,1,0,.12v.23a.68.68,0,0,1-.09.32l-.77,1.5,0,0v0l.08-.1h0l.2-.25h0a.33.33,0,0,1,.15-.16s.06,0,.1-.1a1.75,1.75,0,0,1,.55-.53l.53-.3v0l0,0a.05.05,0,0,1,0,0l.06,0h0a.63.63,0,0,1,.26,0,.49.49,0,0,1,.29.13.44.44,0,0,1,.2.15,1.3,1.3,0,0,1,.13.19,2,2,0,0,1,.06.34,3.21,3.21,0,0,1,0,.44q0,.11,0,.33c0,.15,0,.25,0,.31a.15.15,0,0,1,0,.07.17.17,0,0,0,0,.07v.54a.13.13,0,0,0,0,.06s0,0,0,.06l0,.63c0,.06.07.1.07.13l0,.08a.24.24,0,0,0,0,.08.6.6,0,0,0,.17.31l.09.1.07.1a.52.52,0,0,0,.1.11l.09.06a.24.24,0,0,0,.08.06l.08,0,.16.1a.46.46,0,0,0,.21,0,2.88,2.88,0,0,1,.35,0l.23,0a.9.9,0,0,0,.24,0,1,1,0,0,0,.25,0l.26-.09.12-.06a.9.9,0,0,0,.28-.08,1.35,1.35,0,0,0,.26-.15l.24-.12a3,3,0,0,0,.43-.24l.33-.21.09,0,.12-.07.18-.1a1.18,1.18,0,0,1,.18-.13.28.28,0,0,1,.13-.06l.27-.2s0,0,.1-.07a.09.09,0,0,0,.06,0l.18-.14.25-.18.47-.36.45-.34.21-.16a.61.61,0,0,0,.14-.11l.19-.18.14-.13.1-.1L99,54.1s0,0,0,0Z"/><path class="cls-2" d="M108.58,45.07c0-.06.08-.1.2-.14l.08-.09a.14.14,0,0,1,.09-.12v0l.1-.08.08-.06.27-.23.1-.12.12-.1a1.34,1.34,0,0,1,.28-.21l.22-.12.14-.06v0a3.21,3.21,0,0,1,.59-.42,4.85,4.85,0,0,1,.56-.28l.65-.27a1.09,1.09,0,0,1,.31-.08,1,1,0,0,1,.37-.06.19.19,0,0,0,.12,0,.66.66,0,0,1,.19,0h.24l.47.1.31.17.27.2a.27.27,0,0,1,.1.12.38.38,0,0,0,.06.13l0,.12.09.1a3.94,3.94,0,0,1,.16,1.17,1.93,1.93,0,0,1,0,.24c0,.07,0,.16,0,.25s0,0,0,.07a.19.19,0,0,0,0,.08.15.15,0,0,0,0,.1l-.13.39-.06.2a.64.64,0,0,0,0,.15l-.14.43-.15.39-.34.71a0,0,0,0,1,0,0s0,0,0,0l-.31.69-.1.15h0l-.34.64-.36.65-.43.94h-.1l-.25.49-.1.15h0c-.06.08-.1.16-.15.23l-.1.2-.14.24-1.09,2-.31.64s0,0-.07.13-.08.19-.11.26-.11.19-.15.28a2.86,2.86,0,0,0-.12.27v0s0,0,0,0l0,0v.14l-.12.37v0s0,0,0,0,0,0,0,0a.29.29,0,0,0-.06.19l-.06.16a.48.48,0,0,1-.11.25l-.08.29a.11.11,0,0,1,0,.05.09.09,0,0,0,0,0l-.07.17a.78.78,0,0,0-.05.18v.12a.33.33,0,0,1,0,.12,1,1,0,0,0,0,.27.12.12,0,0,0,0,.08v.08l0,.1a.29.29,0,0,1,0,.09l.06.06.06,0s0,0,.12.06l.17.08h.08l.48-.17a2,2,0,0,0,.46-.22,5.6,5.6,0,0,0,.61-.33l.54-.4.63-.49.46-.37.32-.31v0l.06-.06s0,0,0-.06a.13.13,0,0,1,.06-.07v0l.26-.24c.08-.08.21-.21.37-.39l.27-.21v0l1.19-1.16.27-.24a3.15,3.15,0,0,0,.3-.36l.19-.16v0l.51-.54.68-.73.24-.29.17-.16.08-.07h0l.78-.86.09-.09.11-.11.29-.31h0l.14-.14.06-.08h0l.74-.89.14-.17a1.08,1.08,0,0,1,.17-.19l.27-.27h0l.36-.43.14-.18a1.22,1.22,0,0,1,.15-.17,1.82,1.82,0,0,0,.14-.19l.15-.16.29-.33.28-.37v0a.21.21,0,0,1,.06-.08h0l.09-.13a.63.63,0,0,1,.14-.18l.08-.08s0,0,0,0l.1-.24.56-.89.12-.14.06-.08.12-.14.07-.11.18-.28.12-.19.11-.12.12-.1H124a.24.24,0,0,1,.13,0l.22.1a.43.43,0,0,1,0,.14v.11a.37.37,0,0,1-.08.2v.1a.2.2,0,0,1,0,.09.78.78,0,0,1-.14.2v0a0,0,0,0,0,0,0,1.3,1.3,0,0,1-.11.19,1.27,1.27,0,0,1-.16.2h0l-.16.27-.15.2a.16.16,0,0,1-.06.08.14.14,0,0,0,0,.07s0,0,0,0l-.7,1-.18.21a.33.33,0,0,0-.08.18l-.07.14c-.15.26-.29.52-.44.76s-.29.49-.44.72l-.18.29-.43.76a1,1,0,0,1-.1.17l-.11.15-.55.93v0a1.19,1.19,0,0,1-.08.16l-.08.12-.08.08a.16.16,0,0,0,0,.09l-.1.18a1.06,1.06,0,0,1-.11.21,1.37,1.37,0,0,0-.13.2l-.31.58-.23.32-.37.64-.24.41c-.07.11-.14.22-.21.35a2.79,2.79,0,0,1-.2.31L117,56.65l-.62,1-.61,1a.91.91,0,0,0-.15.21l-.09.2-.08.17v0a.09.09,0,0,0,0,.08l-.13.18.47-.24.39-.23.39-.22,1.19-.68.53-.29.15-.06.18-.09.33-.2v0l.12-.08.09,0a1.29,1.29,0,0,0,.32-.18l.52-.31v0l.14-.12a.29.29,0,0,1,.1-.09l.8-.57.23-.16.14-.09v0l.23-.18.18-.14,0-.05s0,0,0,0l.12-.07v0l.2-.16.12-.06.29-.21v0l.08-.06.64-.45v0l.9-.76v0l.1-.08a.39.39,0,0,1,.29-.16.33.33,0,0,1,.14,0,.38.38,0,0,1,.12.21v.18l-.1.2-.73.54-.58.45-.74.53v0l-.1,0-.1.08-.21.21-.26.22v0l-.17.15-.18.08a.45.45,0,0,0-.17.14l-.28.19-.41.24-.31.23-.19.14-.3.19-.27.16v0l-.1.1a.42.42,0,0,1-.23.12h0l-1,.58a.85.85,0,0,1-.24.12l-.09,0,0,0-.09.06-.14.09-.35.17-.36.2-1.15.57-.64.39-.76.47c-.09.15-.19.3-.3.46a4.92,4.92,0,0,0-.29.46l-.27.43-.43.65-.41.64-.57.91-.31.45-.22.33-.23.3-.22.29c-.07.1-.14.18-.21.27a2.43,2.43,0,0,1-.15.26c-.07.1-.12.18-.18.25l-.14.2-.17.23-.51.64c-.15.17-.31.37-.47.58l-.47.6-1,1.1a12.11,12.11,0,0,1-1,1,2.08,2.08,0,0,1-.21.2l-.24.18,0,0-.14.15-.5.3-.53.27-.08,0-.23.08a1.13,1.13,0,0,1-.28.07l-.29,0a1.82,1.82,0,0,1-.33,0,1.17,1.17,0,0,1-.35-.13h0s0,0-.11-.09l-.25-.27-.1-.22-.12-.33v-.1a.12.12,0,0,0,0,0,.07.07,0,0,1,0-.05.88.88,0,0,1,0-.24.63.63,0,0,1,0-.24,2.26,2.26,0,0,1,.07-.72,4.73,4.73,0,0,1,.21-.69c.09-.19.19-.4.32-.63s.27-.43.4-.62.24-.35.38-.54a5,5,0,0,1,.46-.55h0l.35-.37.66-.69.63-.56.82-.72a7.2,7.2,0,0,1,.66-.53l1.15-.74.63-.41.35-.16v0l.16-.12.47-.27.42-.22.9-.57c.3-.18.6-.36.9-.52a.68.68,0,0,1,.26-.16l.25-.13.12-.06.13-.08.63-.94.27-.48.92-1.49.23-.37.37-.63c.12-.21.26-.42.41-.64s.4-.72.62-1.09l.69-1.09.39-.63.24-.35L119,52a3.84,3.84,0,0,1,.31-.45q0-.1.15-.3a2.57,2.57,0,0,1,.2-.3l.08-.14a1.57,1.57,0,0,0,.12-.19l.15-.28.16-.24.16-.29-.1.1c0,.07-.11.13-.17.2s-.15.18-.26.33l-.16.21a1.1,1.1,0,0,0-.15.16l-.08.12-.7.72-.32.35h0l-.43.47-.7.72-.21.22-.45.48-.37.4-.26.29-.37.39a5.48,5.48,0,0,0-.44.4c-.15.14-.28.29-.4.42a1.67,1.67,0,0,0-.23.23l-.2.18h0l-.23.23a.61.61,0,0,1-.2.14v0l-1.07,1c-.14.11-.25.21-.36.31a1.29,1.29,0,0,1-.23.19l-.43.38-.21.17-.46.31a2.81,2.81,0,0,1-.52.26,5.83,5.83,0,0,1-.59.25,2.7,2.7,0,0,1-.62.16,1.09,1.09,0,0,1-.31,0,.9.9,0,0,1-.35-.09.12.12,0,0,0-.1-.06l0,0-.18-.16-.12-.12-.12-.26a.67.67,0,0,1-.08-.33.93.93,0,0,1,0-.4,1.61,1.61,0,0,1,.08-.38,2.1,2.1,0,0,1,.1-.43.5.5,0,0,1,0-.23.37.37,0,0,0,0-.12l.1-.25.23-.69.18-.48a.15.15,0,0,1,.07-.12h0l.09-.16v0s0,0,.06-.06h0l.2-.52.08-.16a1.51,1.51,0,0,0,.23-.59l.45-.82q.21-.33.36-.6c.1-.18.21-.38.32-.61s.11-.19.16-.28a3.4,3.4,0,0,1,.21-.3,1.06,1.06,0,0,1,.1-.17,1.62,1.62,0,0,0,.1-.18.24.24,0,0,0,.08-.11l.07-.11a.09.09,0,0,1,0-.06h0a.8.8,0,0,1,.08-.16l.08-.15a3,3,0,0,1,.25-.47.17.17,0,0,1,0-.1l.11-.21a.84.84,0,0,0,.12-.23.91.91,0,0,0,.06-.16l.15-.29,0-.06,0-.07,0-.07,0-.12.08-.11a.21.21,0,0,1,0-.12s0,.06,0,.09,0,0,.12-.13l-.08,0,.06-.15,0-.09s0,0,0,0l.2-.41.29-.7.06-.14v0a2.07,2.07,0,0,1,.29-.7v0c.11-.41.2-.85.29-1.32a1.2,1.2,0,0,0,0-.24v-.17a1.85,1.85,0,0,0,0-.23c0-.08,0-.16,0-.26s0,0,0,0,0,0,0,0l-.13-.25,0-.06a.1.1,0,0,1-.05-.06c-.07,0-.1,0-.1,0l-.23-.08h-.34a1.14,1.14,0,0,0-.31,0s0,0-.07,0h-.24l-.1,0v0a.22.22,0,0,1-.13.06H112l-.08,0-.08,0a.7.7,0,0,0-.2.08l-.19.11-.41.18s0,0-.06,0-.07,0-.15.12l-.42.32-.46.33-.22.17-.5.45v0l-.08.08-.21.19a1.17,1.17,0,0,0-.16.16l-.24.24-.17.13h0a.29.29,0,0,1-.07.08.3.3,0,0,0-.07.08.15.15,0,0,0,0,.06.15.15,0,0,1,0,.06s0,0,0,0l-.08.13-.13.16-.18.19s0,0,0,.09l-.09.15-.09.19-.14.26a.46.46,0,0,1-.35.19q-.17,0-.18-.15l0-.08a.62.62,0,0,1,0-.18,1.93,1.93,0,0,1,0-.2.2.2,0,0,1,.06-.11,6.24,6.24,0,0,1,.37-.58,2.57,2.57,0,0,1,.45-.53l.08-.08.08-.08a.18.18,0,0,1,0-.08l.15-.17.14-.14.37-.41Zm-1.09,20-.14.1v0c-.18.16-.35.33-.52.5a5,5,0,0,0-.51.59,5.87,5.87,0,0,0-.59.61l-.58.7-.1.12-.09.1a1,1,0,0,0-.11.29,2.24,2.24,0,0,0-.29.55c0,.14-.11.28-.15.41a3,3,0,0,0-.12.43s0,0,0,0,0,0,0,0a1.23,1.23,0,0,0,0,.19v.42a.58.58,0,0,0,0,.19.53.53,0,0,0,0,.16v0a0,0,0,0,0,0,0,.19.19,0,0,0,.07.12.62.62,0,0,0,.12.19l.06.06H105l.29-.06,0,0,.12-.08,0,0a.22.22,0,0,0,0-.08l.29-.06.14-.12.15-.14.57-.43v0c.23-.21.46-.43.68-.67s.44-.47.67-.71h0l.35-.39c.21-.23.39-.44.55-.64s.35-.42.54-.67l.16-.2h0l.17-.22c.07-.07.12-.15.18-.21s0,0,0-.06,0,0,0,0l.8-1.06c.26-.36.51-.72.76-1.09l.31-.37.2-.39.08-.14.29-.53.74-1.09a.1.1,0,0,1,0-.06l0-.06-.47.26-.56.37-.34.21a5.21,5.21,0,0,1-.49.29c-.15.09-.33.19-.52.28v0l-.2.19-.6.36-.43.25-.33.2-.45.29-.37.27,0,.06-.9.68h0Z"/><path class="cls-2" d="M123.38,57.06s0,0,0,0a.08.08,0,0,1,.07,0l0,0a.67.67,0,0,0,.37-.16l.19-.13v0s.06-.06.08-.06l.12-.08a.21.21,0,0,0,.08-.06l.15-.14.12-.11a.7.7,0,0,1,.18-.12l.22-.15.15-.12.34-.33a2.84,2.84,0,0,1,.26-.24l.15-.15.17-.16a2.27,2.27,0,0,0,.41-.41l.23-.22.2-.21.21-.2.35-.39.08-.19a.81.81,0,0,1,.21-.2v0l.12-.12h0A.25.25,0,0,1,128,53a.4.4,0,0,1,.23,0,.44.44,0,0,1,.22.07l.06.06.13.15v.22a.47.47,0,0,1,0,.23l-.1.22v.17a.06.06,0,0,1,0,0,.35.35,0,0,0,0,.06,1,1,0,0,1,0,.26c0,.1,0,.21-.08.31v0a1.2,1.2,0,0,0-.05.23.83.83,0,0,0,0,.12,1.73,1.73,0,0,1-.06.49c0,.09,0,.19,0,.32s0,.24,0,.32a2.83,2.83,0,0,0,0,.41c0,.14,0,.24,0,.31a.26.26,0,0,0,0,.14.08.08,0,0,0,.06.08l.1.25h0l.06.12a.17.17,0,0,0,0,.13s0,0,0,0l0,0h0s0,0,0,0l0,0,.19.12.08.06v0l.09,0,.1,0h0l.28,0a.57.57,0,0,0,.26,0,.53.53,0,0,0,.2-.07l.21-.11H130l.16-.06.19-.08.3-.14.25-.13.53-.41.18-.12a1,1,0,0,0,.15-.13,5.23,5.23,0,0,0,.78-.57c.23-.21.47-.42.7-.66h0l.24-.26.31-.33.25-.25.2-.22a2.5,2.5,0,0,1,.23-.23l.18-.18a.16.16,0,0,0,0-.12.38.38,0,0,0,.17-.15v0s0,0,0,0l0,0,.14-.12.08-.11h0c0-.05.05,0,.13,0a.83.83,0,0,1,.14.14l-.08.31-.08.16c0,.06,0,.1-.11.12l0,.06-.06.09a.05.05,0,0,0,0,0l-.35.33h0l-.2.26-.23.25-.32.33a.17.17,0,0,0-.06.06l-.07.1-1,.92-.35.29a2.2,2.2,0,0,0-.31.29l-.35.22a1.53,1.53,0,0,1-.23.17,2.5,2.5,0,0,0-.24.16l-.67.45a2.53,2.53,0,0,1-.95.31,1.56,1.56,0,0,1-.48.1,2.44,2.44,0,0,1-.54,0l-.1-.06-.11,0-.1,0v0l-.22-.11a1,1,0,0,1-.23-.18L127.7,58l-.14-.2-.12-.47-.06-.31v0s0,0,0-.08,0-.05,0-.06,0,0,0-.07v-.24a1.85,1.85,0,0,1,0-.23,1.58,1.58,0,0,1,0-.28l0-.24c0-.07,0-.15,0-.22a1.22,1.22,0,0,1,0-.32.19.19,0,0,1,0-.08.28.28,0,0,0,0-.09v-.3l.08-.33,0,0-.16.19a.64.64,0,0,1-.19.16,1.68,1.68,0,0,1-.2.28c-.1.11-.19.22-.29.31a4,4,0,0,1-.37.36l-.29.24a.61.61,0,0,1-.3.28l-.15.13-.12.08,0,0-.08.06-.1.1-.07.06h0L125,57l-.25.19v0l-.12.11-.51.35a3.24,3.24,0,0,1-.33.14l-.12,0a.46.46,0,0,1-.23.06l-.12,0a.41.41,0,0,1-.15,0l-.08,0a.22.22,0,0,1-.12,0,.23.23,0,0,1-.14-.08h0a1.53,1.53,0,0,1-.13-.13.93.93,0,0,1,0-.1.24.24,0,0,1-.1-.1l0-.14a.45.45,0,0,1,0-.25v-.22l.1-.29.08-.12,0,0a.21.21,0,0,1,0-.11h0l.1-.14.09-.2.41-.58.14-.18a1.79,1.79,0,0,0,.25-.31v0a0,0,0,0,1,0,0,.08.08,0,0,0,0,0,.49.49,0,0,1,.12-.15l.14-.12a1.76,1.76,0,0,0,.14-.16c.07-.1.16-.2.25-.31l.31-.33a1.36,1.36,0,0,1,.27-.22l.08-.08.08-.09a.92.92,0,0,1,.43-.35l.27-.16v0l.14-.1.39-.19.2-.07.21,0,.21,0a.77.77,0,0,1,.26.19l.06.08,0,.1a.14.14,0,0,1,.09.12v.09a.3.3,0,0,1,0,.14.28.28,0,0,1-.31.27l-.08-.13v0a.09.09,0,0,1-.07-.1l0-.06,0,0-.12,0,0,0a.1.1,0,0,1-.08,0l-.12.06v0a.22.22,0,0,1-.13.06l-.21.16-.2.15a1.62,1.62,0,0,0-.42.28,3.63,3.63,0,0,0-.34.34,4.84,4.84,0,0,0-.53.61l-.22.29-.29.33-.12.2-.19.21a.82.82,0,0,0-.2.37l-.15.22a.31.31,0,0,1-.08.1l0,0a0,0,0,0,1,0,0,.14.14,0,0,1,0,.07l0,0a.13.13,0,0,1,0,.1l0,0Z"/><path class="cls-2" d="M139.9,55l-.15.23-.27.36-.32.41c-.11.14-.21.27-.3.37l.49,0a.58.58,0,0,0,.2,0,.46.46,0,0,0,.25,0l.08,0h.1l.35-.06.15,0a1,1,0,0,0,.32-.06h.09l.73-.17.29-.06.08,0,.19,0,.18-.05.6-.23.3-.1.15,0h0s0,0,0,0l.29-.1a1.56,1.56,0,0,0,.26-.13l.37-.22.5-.26a2.67,2.67,0,0,0,.48-.32l.15-.08v0a.15.15,0,0,1,.2,0,.21.21,0,0,1,.15.15.41.41,0,0,1,0,.2,2.07,2.07,0,0,1-.58.47l-.65.39-.07,0,0,0a.35.35,0,0,1-.16.16l-.23.11a1.18,1.18,0,0,1-.29.16l-.38.15h-.08l-.7.2-.12,0h0a.34.34,0,0,1-.16,0,.68.68,0,0,0-.17,0l-.26.08-.28.09a.77.77,0,0,1-.24.06l-.33,0-.2.06-.21,0-.39.06-.37.09-.31,0a.64.64,0,0,1-.2,0h-.23a1,1,0,0,1-.24,0l-.31,0h-.2l0,0h0l0,0,0,0-.06.13-.35.39a.78.78,0,0,0-.22.2,3,3,0,0,1-.23.25l-.12.06-.25.16c-.07,0-.1,0-.1.06l-.41.21-.06,0a.05.05,0,0,0,0,0l-.09,0-.08,0-.06.06h-.06a0,0,0,0,1,0,0l-.14.1-.23.11h-.08l0,.06-.31,0a.85.85,0,0,1-.35.08l-.12,0h0l-.23,0-.13,0h-.13l-.11,0-.12-.06a.52.52,0,0,0-.16-.06.58.58,0,0,0,0-.1s0,0,0,0l-.13-.12a.27.27,0,0,0,0-.1s0,0,0,0,0,0,0,0a.39.39,0,0,1,0-.13v-.12a.22.22,0,0,0,.09-.08s0,0,.06-.06h0l.12-.17.33-.35.08-.06.14-.06v0l.15-.12.1-.06a.18.18,0,0,0,.1,0h.08l.05,0a.3.3,0,0,1,.14-.05l.08,0h0l.43-.14v0l.09-.07.14,0v0l.1-.08a.22.22,0,0,1,.12,0h.12l.07,0h0l.06,0h.08l.18,0h0l.19,0,.55-.09.51-.09v0l0,0,.11-.1.12-.07,0,0a.18.18,0,0,1,0-.07l.05-.07,0-.08.33-.37a4.92,4.92,0,0,0,.37-.56,3.12,3.12,0,0,0,.25-.49c.08-.2.15-.39.22-.55a.05.05,0,0,1,0,0,0,0,0,0,1,0,0,0,0,0,0,0,0,0v-.19l0-.08v0s-.06,0-.06,0h-.22l-.11.05v0h0l-.09,0-.11.06-.08.05-.23.11-.33.22-.39.23-.32.22-.23.15L137,55l-.32.23-.32.24-.31.25-1.46,1.19-.33.29-.2.16-.14.1v0l-.19.21s-.05,0-.08,0l-.08.1-.06,0s0,0-.09.06a.11.11,0,0,1-.08,0,.2.2,0,0,1-.24-.06.16.16,0,0,1-.1,0,.59.59,0,0,1-.09-.25.08.08,0,0,1,0,0s0,0,0-.06,0,0,0,0a.24.24,0,0,1,0-.08l.07-.12v-.12a.38.38,0,0,1,.06-.13l.18-.49.16-.39.91-1.66.16-.33.37-.64.1-.06h0a.27.27,0,0,0,.08-.1l.15-.22a.17.17,0,0,1,.06-.11h0l.12-.24.08-.13a2.06,2.06,0,0,0,.23-.41l1.25-2a1.37,1.37,0,0,1,.14-.26,3.37,3.37,0,0,0,.19-.32l.14-.2.16-.23c.21-.34.43-.69.66-1s.45-.7.66-1l.24-.41.35-.51.21-.23h0l.18-.26.25-.27h0a4,4,0,0,1,.25-.37c.1-.14.22-.27.34-.41h0a4.25,4.25,0,0,1,.34-.41l.46-.51.37-.37a2.63,2.63,0,0,1,.33-.29l.16-.16a1.52,1.52,0,0,1,.26-.22l.21-.11v0l.06-.06a1.7,1.7,0,0,1,.39-.18l.13,0h0l.06,0a1.38,1.38,0,0,0,.28,0h.21l.08,0,.23.17,0,.08.08.16v.33a.75.75,0,0,1-.06.33,1.14,1.14,0,0,1-.15.45.06.06,0,0,1,0,0l0,.05-.16.39c-.14.32-.29.63-.46.94a7.72,7.72,0,0,1-.57.91c-.19.27-.43.59-.71.95s-.57.69-.84,1l-.88,1c-.3.33-.59.64-.87.91l-.94.88c-.15.15-.31.3-.49.45l-.43.37v0c-.25.25-.51.49-.79.74s-.55.46-.81.65v0l-.06.07a.17.17,0,0,0-.06.12l-.19.29-.06.12a.13.13,0,0,0,0,.1l-.1.12a.27.27,0,0,0-.06.11l0,.06-.12.26-.53.87-.62,1a1.59,1.59,0,0,0-.26.53s.19-.11.59-.43a4.81,4.81,0,0,0,.53-.4,4.15,4.15,0,0,0,.37-.34,5.78,5.78,0,0,1,.76-.63l.19-.12,1-.7.92-.56.15-.06.22-.12.37-.18.12-.05h0l.15,0,0,0,.3-.06a.86.86,0,0,1,.35,0l.25.23a.18.18,0,0,1,.12.2,1.47,1.47,0,0,1,0,.5.13.13,0,0,1,0,.06s0,0,0,.06v0a.62.62,0,0,1,0,.1v0a1.18,1.18,0,0,0,0,.19c0,.08,0,.11,0,.08s0,0,0,.09a1.09,1.09,0,0,1-.1.17Zm-3.34,2.36h-.08l-.06,0,0,0a.2.2,0,0,1-.09,0,.25.25,0,0,0-.08.05.14.14,0,0,1-.09,0h-.11s-.05,0-.1,0a.5.5,0,0,1-.29.1l-.08,0-.06,0-.07,0-.12.08h-.06l-.1.08a.37.37,0,0,1-.14.08l-.13.07v0l-.12.13s0,0,0,0v0a.24.24,0,0,1,0,.08l0,.08s0,0,0,0v0s0,0,0,0l0,0a.09.09,0,0,0,.12,0,.35.35,0,0,0,.18,0l0,0a.18.18,0,0,0,.11,0l.1,0h.1l.13,0h.12l.12-.08.33-.16v0l.06-.06a.14.14,0,0,1,.1,0h0a.22.22,0,0,1,.13,0l.1-.06s0,0,0,0,.06-.1.1-.1a.53.53,0,0,0,.17-.16l.26-.21a1.05,1.05,0,0,0,.27-.2h-.08a.58.58,0,0,0-.19,0Zm.66-6,.06-.05.06-.07.76-.76v0l.08-.1.9-.86c.21-.19.41-.39.61-.61l.58-.62c.31-.33.64-.69,1-1.09a11,11,0,0,0,.94-1.27s0,0,0-.06a1.38,1.38,0,0,1,.14-.21l.17-.22.08-.12a2.39,2.39,0,0,1,.13-.21,1.26,1.26,0,0,0,.13-.26,4,4,0,0,0,.35-.68l.13-.31a.06.06,0,0,1,0,0v0l0-.1.18-.5a.25.25,0,0,1,0-.08.22.22,0,0,0,0-.08h-.08l-.08,0-.1.06a2.41,2.41,0,0,0-.47.29l-.35.31-.09.06-.16.2-.49.52a2.17,2.17,0,0,0-.3.35l-.36.47-.41.55-.38.54L140,47l-.37.55c-.05.1-.11.18-.16.27l-.16.24a2,2,0,0,0-.18.25l-.15.24L138,50l-.48.84-.15.23a.74.74,0,0,0-.13.22Z"/><path class="cls-2" d="M149.27,55.22a.54.54,0,0,0,.11-.13.62.62,0,0,0,.11-.19.19.19,0,0,0,0-.13s-.07,0-.15,0l-.11.06L149,55l-.24.19-.21.15-.18.12-.19.15-.3.2v0c-.09.08-.15.12-.19.12l-.31.19-.45.35-.24.17a1.5,1.5,0,0,1-.23.13l-.47.31-.39.27-.31.12v0a.07.07,0,0,1-.06,0,.52.52,0,0,1-.15.07l-.2.06a1.28,1.28,0,0,1-.45,0,.22.22,0,0,1-.12,0l-.12-.11,0,0a.09.09,0,0,1-.06,0l-.09-.07s0,0,0-.06v0a.19.19,0,0,1-.07-.08l-.05-.1a.29.29,0,0,1-.06-.17.26.26,0,0,1,0-.14v-.17l.06-.2.06-.12a.3.3,0,0,0,0-.13.24.24,0,0,1,.08-.16h0l.13-.31.16-.2h0l.06-.11,0-.08a.71.71,0,0,1,.1-.14v0s0,0,0-.08l.12-.23.31-.35.1-.1h0l.1-.14.25-.25a1.58,1.58,0,0,1,.22-.23l.25-.22.24-.23.23-.14v0l.1-.06.31-.25.2-.1a.83.83,0,0,0,.17-.12.2.2,0,0,1,.14-.06l.12,0,.11,0h0l.18-.09a1,1,0,0,0,.23,0,.13.13,0,0,0,.1,0h.53l.08,0,.13,0,.14.11.21.2s0,0,0,0a2.66,2.66,0,0,1,.05.35c0,.14,0,.25,0,.33v.18a.22.22,0,0,1-.19.13.33.33,0,0,1-.26-.09s-.07-.07-.07-.16a.08.08,0,0,0,0-.06l0-.08,0-.09a.31.31,0,0,1-.08-.22h0a0,0,0,0,1,0,0l0,0h-.21s0,0,0,0l0,0-.32.12-.29.14-.27.17-.2.12-.23.17a.31.31,0,0,0-.14.14l-.23.14v0l-.29.33-.24.25-.14.12-.15.16-.14.23-.1.12,0,.06s0,.06-.1.18l-.17.25a.22.22,0,0,1,0,.08.13.13,0,0,0,0,.07l-.11.12a.15.15,0,0,1,0,.07.43.43,0,0,1,0,0,.38.38,0,0,0-.08.17l-.1.41,0,0h.1l.23-.08.12-.09.19-.08h0a.18.18,0,0,0,.1-.06l.08-.08.53-.29.86-.55.36-.27.34-.2.19-.13a1.16,1.16,0,0,1,.2-.16.93.93,0,0,1,.19-.12l.75-.46.22-.13.19-.13a2,2,0,0,1,.74-.21c.19,0,.31,0,.35.16a.58.58,0,0,1,0,.39,3.29,3.29,0,0,1-.24.53,4.38,4.38,0,0,1-.34.56l-.11.17-.35.51a.12.12,0,0,1,0,.08.31.31,0,0,0,0,.08l-.16.29-.12.16h0l0,.09a3.48,3.48,0,0,1-.33.67.37.37,0,0,0-.07.14l-.05.13-.09.12,0,0,1.95-1.21v0l.2-.18.1-.08a.06.06,0,0,1,0,0l.06,0,.12-.06a2.49,2.49,0,0,1,.24-.17,1.52,1.52,0,0,0,.23-.16.9.9,0,0,0,.26-.13l.2-.12.12-.08v0l.1-.12.25-.21v0l.16-.12a.13.13,0,0,1,.1,0l.1,0a.15.15,0,0,1,.09,0l.29-.25.32-.24.29-.11h0l.23-.14c.06,0,.1,0,.1-.06a.76.76,0,0,1,.25-.2l.26-.13.05-.06,0,0,0,0,0,0,.05,0,.08-.17.14-.08.19-.12v0l0,0a.08.08,0,0,1,0,0l0,0v0a.23.23,0,0,1,.14,0,.13.13,0,0,1,.17,0,.26.26,0,0,1,.09.17.48.48,0,0,1,0,.18l-.06.08-.08.09a.35.35,0,0,0-.05.12l-.1,0-.14.18-.19.17-.08,0v0l-.06.06h0a.57.57,0,0,1-.11.11l-.12.09a.81.81,0,0,1-.22.23.4.4,0,0,0-.15,0l0,0-.22.21-.56.39-.43.26-.1,0h0l-.43.31-.08,0,0,0,0,0-.51.29-.15.08-.53.35-.27.14-.12.09a4.73,4.73,0,0,1-.5.33l-.46.26-.19.1-1.21.8-.34.27a2.49,2.49,0,0,0-.25.29l-.08.12-.14.28a2.12,2.12,0,0,1-.11.21l-.16.31-.35.74-.23.51-.59,1.21-.35.7-.19.26-.12.22a.78.78,0,0,1-.12.19l-.37.68-.21.35-.1.14h0a.93.93,0,0,1-.1.2.69.69,0,0,0-.1.19l-.08.14-.2.34-.19.36-.13.14h0l-.16.23-.21.35-.28.41-.25.39-.12.12a.08.08,0,0,0,0,.06.05.05,0,0,1,0,0l-.21.27-.16.2-.17.17h0l-.13.12h0l-.35.35.07,0-.33.47a1.64,1.64,0,0,1-.37.47l0,.09-.08.08-.21.26-.29.33s0,0,0,0l0,0q-.07.09-.12.09l-.12.11-.15.11a1.42,1.42,0,0,1-.16.17l-.14.14-.15.12a.31.31,0,0,1-.14.16l-.19.09a.44.44,0,0,0-.18.16l-.43.17a.56.56,0,0,1-.18,0l-.23,0-.23,0-.16,0a.12.12,0,0,0-.08,0,1,1,0,0,1-.25-.23.86.86,0,0,1-.13-.25,1.3,1.3,0,0,1-.05-.28,0,0,0,0,0,0,0s0,0,0-.06a1.08,1.08,0,0,1,0-.3,1.81,1.81,0,0,1,0-.7v-.08s0,0,0-.06a.15.15,0,0,1,0-.07s0,0,0-.08l.08-.22v0a1.48,1.48,0,0,1,.08-.25,4.19,4.19,0,0,1,.14-.49.28.28,0,0,1,0-.12l.06-.15.14-.34a1.29,1.29,0,0,1,.14-.31l.07-.15s0,0,0-.06a1.27,1.27,0,0,0,.18-.35l0-.1.39-.63.45-.6.29-.45.12-.1.17-.17h0l.08-.12a.09.09,0,0,1,0-.07l.05,0,.06-.08,0,0s0,0,.06-.08l.06-.07h0l0,0s0,0,.05,0l.17-.18a1.52,1.52,0,0,0,.17-.25l.07,0a0,0,0,0,1,0,0,.08.08,0,0,0,0,0l.28-.27.11-.12.39-.47.17-.19a.83.83,0,0,0,.13-.18l.45-.39v0l.19-.21c.09-.11.19-.21.28-.3a1.14,1.14,0,0,1,.27-.23l.08-.1.45-.43.15-.12a2,2,0,0,1,.26-.25l.44-.35c.13-.11.25-.2.34-.29l.27-.24.51-.45a2.82,2.82,0,0,1,.33-.26,1.21,1.21,0,0,1,.25-.13l.18-.17a1.38,1.38,0,0,1,.23-.16v0l.33-.35.12-.12h0l.08-.15.72-1.29.12-.24.08-.16a.71.71,0,0,0,.08-.15l.19-.35.2-.37.16-.26a3.64,3.64,0,0,1,.23-.39,1,1,0,0,1,.13-.22l.12-.19Zm-5.39,7.44-.08.06-.64.61a.52.52,0,0,0-.18.19l-.21.2-.35.31a2.22,2.22,0,0,1-.28.31h0s0,0,0,0a.29.29,0,0,1-.09.1l-.53.58h0l-.12.2a.05.05,0,0,0,0,0l-.07.06-.06.09h0l-.3.39-.17.18a.93.93,0,0,1-.11.16l-.11.15-.06.08-.09.12-.14.21a1.06,1.06,0,0,1-.25.3,1,1,0,0,1-.1.15s0,.09-.08.14l-.08.15-.17.26-.08.15,0,0a.05.05,0,0,0,0,0l-.23.43-.26.49-.17.35-.08.16v0l-.08.27a.5.5,0,0,0,0,.16,1.53,1.53,0,0,0-.13.32,2.92,2.92,0,0,0-.1.44.65.65,0,0,0,0,.41v.19a1.5,1.5,0,0,0,0,.2l0,.14h0l.12.11,0,0h.12l.16,0a1.17,1.17,0,0,0,.21-.08l.27-.15a.69.69,0,0,0,.24-.24l.35-.28.14-.19.33-.31v0l.15-.13h0l.45-.57.16-.21.37-.45.27-.35.18-.28.31-.52.16-.18.17-.27.34-.55.33-.45.23-.47.26-.39.29-.45.64-1.19.33-.62.26-.53.17-.21h0l.16-.32.33-.58.57-1.15,0-.1-.16.15-.17.16-.24.23v0l-.29.25h0a.91.91,0,0,1-.2.19l-.19.15-.16.13v0l-.1.1-.41.33-.48.43v0Z"/><text class="cls-3" transform="translate(5.06 54.77)">楊宜蘭</text></svg>