<svg id="圖層_1" data-name="圖層 1" xmlns="http://www.w3.org/2000/svg" viewBox="0 0 19.83 18.45"><defs><style>.cls-1{opacity:0.7;}.cls-2{fill:none;stroke:#565b65;stroke-miterlimit:10;stroke-width:0.7px;}</style></defs><g class="cls-1"><path class="cls-2" d="M13,6.44a3.38,3.38,0,0,0-3.79-2.1A3.34,3.34,0,0,0,6.59,7.45a2.35,2.35,0,0,0,0,.26A3.37,3.37,0,0,0,6.94,9a12.66,12.66,0,0,0,1.29,2.3c.45.66.92,1.3,1.39,1.95a.32.32,0,0,0,.58,0c.31-.41.62-.81.92-1.23a18.34,18.34,0,0,0,1.76-3A3.19,3.19,0,0,0,13,6.44Z"/><circle class="cls-2" cx="9.89" cy="7.66" r="1.28"/></g></svg>