<svg id="圖層_1" data-name="圖層 1" xmlns="http://www.w3.org/2000/svg" viewBox="0 0 18.92 19.26"><defs><style>.cls-1{fill:#9db6b8;}.cls-2{fill:#ede6dd;}</style></defs><circle class="cls-1" cx="9.09" cy="9.62" r="7.77"/><path class="cls-2" d="M8,3.68a.07.07,0,0,1,0-.06h0l0-.05.05-.26A2.09,2.09,0,0,1,8.24,3q.13-.17.24-.12a.21.21,0,0,1,.14.19h0s0,0,0,.05a.12.12,0,0,1,0,.1.41.41,0,0,1,0,.16.82.82,0,0,1,0,.21.61.61,0,0,1,0,.17l0,.15s0,0,0,0V4a.69.69,0,0,1,0,.18v0a0,0,0,0,0,0,0l-.07.2-.11.33c0,.09-.07.18-.11.27L8,5.3l-.27.55-.3.54-.14.29L7.14,7l-.33.65L6.62,8h0l0,.08a.36.36,0,0,0,0,.09l-.15.38L6.15,9,6,9.33l-.1.25a3.27,3.27,0,0,1-.14.33l0,.07a.16.16,0,0,0,0,.08l-.1.24-.15.34,0,.13,0,.12a1.08,1.08,0,0,0-.13.35,1.17,1.17,0,0,0-.14.25,1.72,1.72,0,0,0-.08.28l0,.08v0s0,0,0,0,0,.12-.08.19,0,.14,0,.23l-.08.29c0,.12-.06.24-.09.35a2.2,2.2,0,0,0,0,.36.89.89,0,0,0,0,.29v.12l.07.19,0,0,.06.08,0,0,0,0s.05,0,.09,0L5.15,14l0,0,.12-.06.13-.07a.28.28,0,0,1,.11-.07l0,0,0,0,0,0,.09-.08.09-.07.06,0h0L6,13.43a.56.56,0,0,0,.14-.09l.07-.07h0l.06-.09.08-.09L6.44,13v0l.12-.12,0-.09.32-.33h0L7,12.32l.08-.1.08-.08h0l.33-.43.09-.11.12-.12h0l.1-.13.1-.12h0s0,0,0,0a0,0,0,0,0,0,0L8,11.06l.1-.12h0l.07-.11.08-.11.16-.24.08-.11,0,0h0l.64-.95.34-.48.33-.45.1-.13A.85.85,0,0,1,10,8.18L10.16,8a.15.15,0,0,1,0-.06l0-.06.1-.11h0l.17-.22a.37.37,0,0,0,.12-.07l.09-.11.16-.09a.38.38,0,0,1,.22-.08h.23a.28.28,0,0,1,.14.16.38.38,0,0,1,0,.23v.19a.49.49,0,0,1,0,.12.56.56,0,0,1,0,.12V8s0,0,0,0l0,.14c0,.15-.06.29-.1.42a2.19,2.19,0,0,0-.15.57l-.07.25-.1.32h0l-.17.59,0,.14,0,.17,0,.14a1.3,1.3,0,0,1,0,.13,5.18,5.18,0,0,0-.13.58c0,.06,0,.1,0,.12l0,.13,0,.33a.28.28,0,0,1,0,.09.94.94,0,0,0,0,.16l0,.29v.29a.38.38,0,0,0,0,.1l0,.07h0l.1.12v.06h.15l.09,0,.15-.05h0l.09,0v0l.11-.1.05,0,.07-.07.3-.29.1-.12.35-.36.26-.31.13-.2.15-.2.12-.14c-.05,0-.05,0,0,0l.07-.1.1-.14c0-.05.06-.11.11-.18l.64-1,.29-.44.33-.51a4.32,4.32,0,0,0,.21-.38c.07-.14.14-.27.2-.41.31-.61.61-1.19.9-1.72s.57-1,.83-1.41.47-.74.66-1a3.19,3.19,0,0,1,.41-.51l.1-.09h0l.05-.08.06,0a.73.73,0,0,1,.14-.16L17.85,3A.27.27,0,0,0,18,2.91l.1-.09h.05a.37.37,0,0,0,.16,0s0,0,0,0v0h0a.5.5,0,0,1,0,.15.16.16,0,0,0,0,.06s0,0,0,0a.27.27,0,0,1-.1.13l-.08.07-.15.17,0,0,0,.06a4.43,4.43,0,0,0-.32.35c-.14.17-.32.4-.53.7s-.44.68-.71,1.15-.56,1-.87,1.71l-.2.38c-.09.17-.19.35-.29.55L14.6,9c-.1.18-.18.31-.23.41a1.74,1.74,0,0,1-.1.19l-.18.27-.18.27-.11.19-.36.53s0,0,0,.07h0a.47.47,0,0,0-.05.1l-.07.1a.5.5,0,0,0-.1.18.47.47,0,0,0-.11.13l-.09.14-.17.23h0v0l-.11.15-.16.17-.07.12-.06,0a.1.1,0,0,1-.05.06l-.06.09-.23.22v0l-.14.15-.29.3a.38.38,0,0,0-.13.09l-.15.15-.14.09-.08.06h0l0,0,0,0h0l-.06,0h0l-.11,0s0,0-.09,0h-.11l-.09,0h0l-.11,0-.11,0-.09-.11L10,13.33a.39.39,0,0,1-.08-.24l0-.33a.57.57,0,0,1,0-.14.45.45,0,0,1,0-.13v-.1c0-.05,0-.08,0-.09v-.05a.09.09,0,0,1,0-.05v0l0-.3v-.27a.11.11,0,0,0,0-.05,2.3,2.3,0,0,0,.06-.28l.06-.32c0-.1.05-.19.07-.29l.08-.29.17-.55h0c0-.09.05-.19.09-.29s.06-.19.08-.28l.17-.55.07-.25L11,8.13C11,8,11,8,11,7.89a1.83,1.83,0,0,0,.06-.25l-.17.11h0l-.11.12L10.68,8a.22.22,0,0,0-.08.09l-.08.08-.1.11h0l-.17.23h0a.2.2,0,0,1,0,.08L9.3,9.92l-.62,1L8.55,11l-.05.09-.06.12,0,0-.05,0h0l-.1.13-.1.12-.07.1,0,.05-.07.1H8l-.1.11L7.85,12l-.08.1-.12.13-.36.41h0l-.16.2c-.06.08-.13.15-.2.23H7l-.08.09-.57.57a.21.21,0,0,0-.08.06h0l0,0,0,0A.32.32,0,0,1,6,14H6l-.09.12-.18.11-.13.08-.08.05-.06,0-.1.05-.15,0-.11,0H4.83l-.13,0-.11,0-.09,0-.06,0-.1-.11,0,0,0-.06v0l0-.08A.24.24,0,0,0,4.18,14v-.09a.26.26,0,0,0,0-.1h0a.09.09,0,0,1,0-.07.77.77,0,0,1,0-.15.5.5,0,0,1,0-.2v-.12a.25.25,0,0,1,0-.1.71.71,0,0,1,0-.14s0-.1,0-.14l.15-.58L4.38,12a1.83,1.83,0,0,1,.1-.28l.2-.54c.07-.19.14-.38.22-.57s.16-.37.23-.52l0-.09.16-.41L5.57,9l.23-.5.13-.26,0-.05a.14.14,0,0,1,0-.06l.11-.21s0,0,0,0a.67.67,0,0,0,.06-.12l.06-.14s0-.08,0-.09l.12-.24a.8.8,0,0,1,.08-.21l.1-.2.54-1c0-.08.08-.16.12-.26a2.72,2.72,0,0,0,.12-.25L7.53,5l.08-.15L7.92,4Z"/></svg>