<svg id="圖層_1" data-name="圖層 1" xmlns="http://www.w3.org/2000/svg" viewBox="0 0 35.11 37.23"><defs><style>.cls-1,.cls-3{fill:#9db6b8;}.cls-1,.cls-2{opacity:0.7;}</style></defs><path class="cls-1" d="M24.16,22.09V16.5a19.24,19.24,0,0,0-.05-2.28,2,2,0,0,0-2.19-1.87c-1.29.09-2.57.29-3.86.45-1.49.19-3,.41-4.46.58a2.13,2.13,0,0,0-2.09,2.3c0,5.1,0,10.2,0,15.3a4.63,4.63,0,0,1-7.43,4A4.9,4.9,0,0,1,2.44,30,4.62,4.62,0,0,1,8.62,27c.11.05.22.08.39.14,0-.21,0-.39,0-.57,0-3.65,0-7.3,0-10.94a4.44,4.44,0,0,1,3.16-4.39,19.33,19.33,0,0,1,3.06-.49c2-.27,4-.49,6-.79a4.53,4.53,0,0,1,5.26,4.18c.09,2.5,0,5,0,7.51,0,1.7,0,3.39-.06,5.08A4.59,4.59,0,0,1,20,30.47a4.64,4.64,0,0,1,1-8.75,4.73,4.73,0,0,1,2.75.27l.29.11S24.09,22.09,24.16,22.09Zm-4.37,4.14a2.21,2.21,0,0,0,2.13,2.27,2.28,2.28,0,0,0,2.23-2.14A2.21,2.21,0,0,0,22,24.14,2.14,2.14,0,0,0,19.79,26.23ZM9,31.24a2.2,2.2,0,0,0-2.17-2.17,2.22,2.22,0,0,0-2.11,2.24A2.14,2.14,0,1,0,9,31.24Z"/><g class="cls-2"><path class="cls-3" d="M31.94,18.38a1.33,1.33,0,0,1-1.32-1.33,13.06,13.06,0,0,0-26.12,0,1.33,1.33,0,1,1-2.66,0,15.72,15.72,0,1,1,31.43,0A1.33,1.33,0,0,1,31.94,18.38Z"/></g></svg>