<svg id="圖層_1" data-name="圖層 1" xmlns="http://www.w3.org/2000/svg" viewBox="0 0 120.26 36.71"><defs><style>.cls-1{fill:#c3d6d4;}</style></defs><path class="cls-1" d="M19.35,21.42v0a1,1,0,0,1-.48.24.27.27,0,0,0-.1.08s-.06,0-.1,0l-.11.1a.09.09,0,0,1-.07,0A2.29,2.29,0,0,1,18,22c-.22.06-.44.11-.67.15l-.48.11-.28.1-.93.31H15.4l-.07,0a.27.27,0,0,0-.14,0,.11.11,0,0,1-.07,0,1.36,1.36,0,0,1-.28.11l-.1,0s0,0-.07,0a.09.09,0,0,1-.07,0c0,.12,0,.17,0,.17l-.1,0-.09.08s0,0,0,0a.9.9,0,0,0,0,.25v.06a1,1,0,0,0,0,.18s0,.1.06.17,0,.23,0,.27v.18a.33.33,0,0,0,0,.24v.75a.4.4,0,0,0,0,.21.37.37,0,0,1,0,.14v.14l.1.41a1.35,1.35,0,0,0,0,.29.67.67,0,0,0,.26.36c0,.05,0,.12,0,.21l0,.34a.53.53,0,0,0,.07.18l.1.2.07.14.17.41.21.55.27.35h0l.24.27a.83.83,0,0,0,.51.35c0,.11.05.17.14.17l.42.52h0s.05,0,.14,0a1.76,1.76,0,0,0,.79.31l.28.1a.47.47,0,0,1,.17,0h0a.53.53,0,0,1,.18.07h.08a.16.16,0,0,0,.09,0,.1.1,0,0,0,.07,0,1.43,1.43,0,0,0,.29.08l.33,0h.37a.31.31,0,0,1,.18,0h.1a.43.43,0,0,1,.17,0h.17c0,.07,0,.1.07.1a.38.38,0,0,1,.17-.08l.14,0,.79-.07.28,0,.31-.14,1.34-.38h.21l.1-.1.28-.17.24-.11a1.64,1.64,0,0,1,.62-.27v0a.58.58,0,0,1,.27-.14.21.21,0,0,0,.14-.08l.14-.16.41-.14v0a1,1,0,0,1,.19-.17l.09,0,1.34-.86,2-1.24a1.2,1.2,0,0,1,.26-.24,3.09,3.09,0,0,1,.29-.17l.42-.28.62-.58.1-.1.17-.18.1-.1,0,0c0-.07.17-.23.38-.49a1.32,1.32,0,0,1,.33-.22,1.23,1.23,0,0,0,.32-.29l.93-1,1-1,.16-.05c.06,0,.14,0,.26.12a1.18,1.18,0,0,1,.17.34.88.88,0,0,1,0,.38l-.31.38-.28.33a3,3,0,0,0-.21.26l-.37.27-.31.41h0a2.06,2.06,0,0,1-.22.25,5.48,5.48,0,0,0-.47.48l-.17.13-.34.49c-.26.23-.44.31-.56.24l0,0h0l-.37.42c-.1.11-.18.21-.24.29s-.17.16-.28.26v0l-.45.41-.24.18-.38.27-.14,0a.33.33,0,0,0-.06.12c0,.06,0,.08-.07.08v0a2.16,2.16,0,0,1-.3.21.69.69,0,0,0-.15.07v0l-.14.1L29,29a1.48,1.48,0,0,1-1,.62q-.16.24-.27.24l-.14.07h0l-1.31.72-.42.28v0a1.22,1.22,0,0,1-.55.27.32.32,0,0,1-.17.1.42.42,0,0,0-.17.11.7.7,0,0,0-.28.17l-.68.17-.07,0-.07,0-.48.17h0a1,1,0,0,1-.58.14.24.24,0,0,0-.18.07.27.27,0,0,1-.17,0l.07.07a.88.88,0,0,1-.31.17L22,32.4a.35.35,0,0,0-.14,0l-.17,0-.31,0a.76.76,0,0,0-.21,0,.84.84,0,0,1-.27,0h-.24l-.11,0s-.05,0-.1,0a1.62,1.62,0,0,1-.52.07,1.65,1.65,0,0,0-.34,0h-.09l-.22,0h-.41a.38.38,0,0,1-.35,0,.58.58,0,0,1-.41-.17l-.12,0a.18.18,0,0,1-.09,0,.49.49,0,0,0-.2,0,1.54,1.54,0,0,1-.42-.07.22.22,0,0,1-.1,0,2.17,2.17,0,0,1-.38-.34v0l-.31-.13L16,31.4a.36.36,0,0,1-.12-.08l-.22-.23-.11-.1-.24-.45L15,30.2l-.14-.14-.2-.38v0l-.17-.16a.6.6,0,0,1-.14-.15h0a.33.33,0,0,1-.1-.24h0s0,0-.06,0l-.31-.89-.31-.76a3.82,3.82,0,0,1-.11-.55c0-.21,0-.4-.07-.59l-.1-.41a.76.76,0,0,1,0-.41v-.4a1.55,1.55,0,0,0-.07-.43,2,2,0,0,0,.07-.33V24a1.82,1.82,0,0,1,0-.32c0-.07,0-.17,0-.3a.43.43,0,0,1,.08-.25l.11-.42a.34.34,0,0,0,.07-.24h0a.4.4,0,0,1,0-.17c0-.07.07-.14.2-.21s.07,0,.07,0l.17-.1a.31.31,0,0,1,.18-.09l.17-.05.89-.41a1,1,0,0,0,.18-.07.19.19,0,0,1,.1,0l.45-.07h0l.31-.13v0a.27.27,0,0,1,.19-.1.46.46,0,0,0,.19,0h0s0,0,.05,0l.42-.07h0l.55-.21c.32-.11.61-.22.85-.32l.56-.26,1.62-.83.76-.45.31-.13a8.29,8.29,0,0,0,.84-.45,5.16,5.16,0,0,0,.78-.59l.25-.15a5.08,5.08,0,0,0,.54-.4l.55-.34v0l.17-.13.24-.25.31-.24,1.65-1.29c.6-.47,1.16-.92,1.67-1.36s1-.82,1.35-1.17a6,6,0,0,0,.74-.75l.41-.42.33-.34a2.69,2.69,0,0,0,.29-.41l.41-.45h0l.27-.55.17-.21h0a.66.66,0,0,0,.1-.17l.07-.14.33-.64c.1-.19.18-.33.22-.43a4.45,4.45,0,0,0,.21-1.2,3.37,3.37,0,0,0,0-.52c0-.18-.08-.38-.12-.58,0,0,0,0,0-.11a.92.92,0,0,0-.16-.2.18.18,0,0,1-.17-.07C33,5.12,33,5.06,33,5a.79.79,0,0,0-.28-.21l-.06,0-.07-.07h0c-.11,0-.18,0-.2,0a.18.18,0,0,1-.11,0s0,0-.07,0H32a.24.24,0,0,1-.14,0l-.15,0-.16,0L31,4.55l-.48.07,0,0-.05,0h0a.33.33,0,0,1-.15,0h-.16l-.05,0-.05,0a.22.22,0,0,0-.14.06l-.44.14-.8.14s0,0-.12,0l-.39.21-.52.29c-.18.12-.36.22-.52.31a4,4,0,0,1-.82.59L26,6.65v0l-.24.17-.3.19a6.69,6.69,0,0,0-.56.43,3.13,3.13,0,0,1-.31.22,1.81,1.81,0,0,0-.25.19L24.21,8v0l-.9.75v0L22.9,9s-.08.07-.1.07a.09.09,0,0,0-.07,0l0,0-.44.38-.8.75h0l-.24.35-.52.34-.24.17a.62.62,0,0,0-.34.35l-.61.56a7.39,7.39,0,0,0-.81.92,10.52,10.52,0,0,0-.79.89q-.17.21-.36.42c-.12.13-.25.27-.36.41l-.45.76-.44.72,0,0a.41.41,0,0,0-.1.21l-.35.55-.38.58a.71.71,0,0,1-.06.19l-.11.23-.27.51a1.31,1.31,0,0,0-.18.23.88.88,0,0,1-.17.22h0l-.49.83-.17.2h0l-.21.31-.41.59-.55.83-1.07,1.41c-.16.25-.28.38-.34.38l-.14.17a.75.75,0,0,0-.07.12l-.14.15h0l-.11.24-.34.52-.1.14-.21.2h0l-.55.69-.1.24v0a.53.53,0,0,1-.14.31,1.08,1.08,0,0,0-.19.22.51.51,0,0,0,0,.09L9.1,27a.77.77,0,0,0-.07.16.9.9,0,0,1-.14.19h0a.09.09,0,0,0,0,.06s0,0,0,0l-.07.2-.21.14v0L8.44,28l0,0,0,.2c-.32.46-.66.92-1,1.38s-.76.92-1.19,1.38l-.38.48-.52.55L3.66,33.71l-.17.14L3.35,34l-.11.11-.06,0-.11,0-.41,0a.11.11,0,0,1-.07,0l-.12,0-.19,0V34h0a.3.3,0,0,1-.14-.2,1.2,1.2,0,0,1,0-.24V33.3L3.31,32l.24-.17c.05,0,.07-.05.07-.07l.14-.2h0l1-1,.21-.24L5,30.13H5l.24-.35L6,28.92l.38-.37h0l.08-.16.09-.15a.17.17,0,0,1,.07-.14h0l.38-.45L7,27.41c.12-.18.23-.36.35-.53l.34-.54.69-1L8.68,25v0a.25.25,0,0,1,0-.14.51.51,0,0,1,.07-.17s0,0,.05-.12a3.28,3.28,0,0,1,.22-.26s0-.08.14-.17a.41.41,0,0,0,.1-.14h0l.82-1.27.38-.55.35-.28a0,0,0,0,0,0,0l0-.07a.11.11,0,0,0,0-.07.12.12,0,0,1,0-.1v0a.15.15,0,0,1,0-.1.11.11,0,0,0,0-.07,1.18,1.18,0,0,1,.18-.21h0L11.3,21l.27-.38a2,2,0,0,0,.23-.25.14.14,0,0,1,.12-.09l.74-1.1c.29-.44.52-.81.7-1.1a1,1,0,0,0,.25-.35c.09-.18.18-.38.27-.58L16,13.37l.25-.35c.11-.16.22-.32.32-.48a2.59,2.59,0,0,0,.23-.4c0-.1,0-.12-.07-.05l.17-.27a3.05,3.05,0,0,1,.41-.66l.33-.6c.13-.24.25-.5.38-.77s.24-.54.34-.8.19-.48.26-.68a1.68,1.68,0,0,0,.22-.4c.11-.22.21-.46.31-.72s.21-.52.3-.76A1.84,1.84,0,0,0,19.59,6a3.46,3.46,0,0,1,.09-.35,2.14,2.14,0,0,1,.12-.28s0,0,.07-.1h0a1.18,1.18,0,0,0,.1-.19.54.54,0,0,0,0-.19,1,1,0,0,1,.36-.41,1,1,0,0,1,.54-.24l.34.1a.56.56,0,0,1,.28.33.8.8,0,0,1,0,.53,1.12,1.12,0,0,1,0,.24.85.85,0,0,0,0,.25,1.89,1.89,0,0,0-.1.36,3.75,3.75,0,0,1-.1.39l-.62,1.52a1.42,1.42,0,0,1-.11.31l-.13.27a.64.64,0,0,1-.07.24.06.06,0,0,1,0,.05.11.11,0,0,0,0,.06l-.34.75L19.7,10l-.31.58.76-.72c.2-.16.44-.36.7-.6a7.47,7.47,0,0,0,.57-.57,1.24,1.24,0,0,1,.19-.16.44.44,0,0,0,.15-.12v0L22.42,8l.34-.38,1.21-1a.4.4,0,0,0,.34-.24l1-.76v0a.78.78,0,0,1,.27-.21l.31-.14.35-.1v0l.14-.1.34-.34.9-.42.24-.13.17,0a.28.28,0,0,0,.17-.09L28.54,4V4a.69.69,0,0,1,.38-.21l1-.17,1.24-.24a3.09,3.09,0,0,1,1,0l1,.19.35.14a.27.27,0,0,1,.2.11l0,0a.69.69,0,0,1,.19.1l.15.14.31.31v0c.05,0,.1.08.16.19a2.7,2.7,0,0,1,.15.29l.31.45a.14.14,0,0,0,0,.06.25.25,0,0,1,0,.07l0,0c0,.09.07.13.07.1A.79.79,0,0,1,35,6V6.1a1.82,1.82,0,0,1,0,.45,4.27,4.27,0,0,1-.4,1.77,16.06,16.06,0,0,1-.84,1.57l-.17.21h0l-.2.31a.63.63,0,0,0-.11.13.91.91,0,0,1-.07.14c-.16.23-.36.49-.6.79a8.14,8.14,0,0,1-.7.79c-.26.33-.52.64-.79.93a4.91,4.91,0,0,1-.9.76v0l-.1.1a6.94,6.94,0,0,1-.54.55,3.12,3.12,0,0,1-.39.34v0l-.38.34-.35.25,0,0-.86.59v0l-1,.9-1,.77c-.32.24-.54.41-.68.5-.46.25-.91.52-1.36.79s-.9.55-1.36.83v0l-.37.28c-.21.14-.46.29-.76.46a10.34,10.34,0,0,1-1,.5l-.21,0Z"/><path class="cls-1" d="M49.09,23.9v0a.69.69,0,0,1,0,.38.32.32,0,0,1-.17.28v0l-.25.24v0l-.27.28-.14.13a.94.94,0,0,0-.1.14l-.48.38L47.1,26h0a7.24,7.24,0,0,1-.67.51,8.55,8.55,0,0,1-1.15.66l-.48.27c-.26.16-.56.34-.9.52l-.86.45a2.7,2.7,0,0,1-.62.27l-.21.07-.27.11a4.33,4.33,0,0,0-.88.27l-.77.34L39,29.85l0,0-.05,0-.42.1c-.25.07-.55.14-.91.21a5.48,5.48,0,0,1-1,.1l-.22,0-.23,0H34.81a3.56,3.56,0,0,1-.55-.11l-.45-.14-.34-.1a3.86,3.86,0,0,1-.62-.31,1.94,1.94,0,0,1-.62-.51l-.31-.52-.11-.24a1.4,1.4,0,0,1-.17-.93V27a1.19,1.19,0,0,1,.14-.52.51.51,0,0,1,.07-.17s0,0,0,0,0,0,0-.06a.26.26,0,0,0,0-.17s0-.1.09-.17a.29.29,0,0,1,.1-.21h0l.18-.34.27-.48.24-.45a1,1,0,0,1,.35-.41v0l.14-.24a.24.24,0,0,1,.06-.14,1.15,1.15,0,0,0,.19-.24c.08-.11.1-.14.06-.07l.34-.48a2.16,2.16,0,0,1,.34-.38l.35-.34a1.66,1.66,0,0,1,.22-.19,2,2,0,0,1,.23-.16l0-.06a5.78,5.78,0,0,1,.48-.5,5.18,5.18,0,0,1,.42-.36l.34-.25.58-.41a.81.81,0,0,0,.35-.17l.41-.19a.66.66,0,0,1,.38-.05l.55.1.42.1a.42.42,0,0,1,.22.19,1.6,1.6,0,0,1,.08.3q-.06-.08-.06,0a.75.75,0,0,1,.2.46,3.49,3.49,0,0,1,0,.53v.18l-.18.27V22a2.36,2.36,0,0,1-.36.67c-.19.29-.31.47-.36.53l-.1.07-.1.11-.11.1-.1.14h0l-.29.31a.79.79,0,0,1-.26.2l-.12.09-.08.09v0a3.73,3.73,0,0,1-.3.26,2,2,0,0,1-.29.19l-.27.14-.87.48a1.13,1.13,0,0,1-.48.17,1.43,1.43,0,0,0-.27.09.89.89,0,0,0-.31.22.78.78,0,0,1-.38.14l-.07,0h0a.29.29,0,0,1-.17,0,.26.26,0,0,0-.2.1l-.24.07-.14.07-.21.14h0l-.18.34a.17.17,0,0,1,0,.07.1.1,0,0,0,0,.07.21.21,0,0,0,0,.14,1.22,1.22,0,0,0-.06.27.4.4,0,0,0,0,.17.75.75,0,0,0,.1.45l.28.45h0a1.19,1.19,0,0,0,.16.1.82.82,0,0,0,.26.1l.17.07a3,3,0,0,0,.53.3,1.38,1.38,0,0,0,.5.12,7.06,7.06,0,0,0,.76.07,5.09,5.09,0,0,0,.55,0h.34l.3,0h.32l.8-.16a3.85,3.85,0,0,0,.79-.26l1.61-.48.4-.15.4-.16a5.06,5.06,0,0,0,.89-.31l.38-.17a1.05,1.05,0,0,1,.41-.1l.21-.07h0l.48-.31.58-.28.21-.14q.34-.17.72-.39l.76-.47.38-.27.24-.17v0l.24-.21c.23-.13.41-.25.55-.34a5.27,5.27,0,0,0,.52-.41v0l.17-.14.27-.2a3,3,0,0,0,.26-.21c.08-.07.13-.1.16-.1a.75.75,0,0,1,.24,0,.26.26,0,0,1,.2.14h0ZM34,24.93a6.35,6.35,0,0,0,1.1-.48l.14-.1a.82.82,0,0,1,.31-.18l.55-.34.42-.28c.18-.11.36-.24.55-.37a2.72,2.72,0,0,0,.51-.55l.11-.14.24-.28.07-.08a.35.35,0,0,1,.1-.12.94.94,0,0,0,.1-.14.16.16,0,0,1,0-.12.27.27,0,0,0,0-.12s.08-.08.09-.24,0-.27-.16-.31,0,0-.07,0h0l-1.31.83a3.87,3.87,0,0,0-.65.51l-.55.55-.21.25h0l-.51.62Z"/><path class="cls-1" d="M62,22.42l.06,0,.11,0h.27a.59.59,0,0,1,.28.49,12.7,12.7,0,0,1-1.1.89c-.3.21-.58.4-.83.59a1.26,1.26,0,0,1-.52.31,6.07,6.07,0,0,1-.61.46,6.44,6.44,0,0,1-.73.4,4.17,4.17,0,0,0-.48.19l-.17.08h0s0,0,0,0,0,0,0,0l-.37.17-.21.07h0l-.27.13a1.88,1.88,0,0,1-.38.19l-.29.11-.36.13-.59.23-.38.07-.38.14-.31.1a6.27,6.27,0,0,0-1.27.34l-.58.11h-.06l0,0-.34.1-.73.24a.28.28,0,0,0-.17.07.7.7,0,0,1-.22.07h-.09a.21.21,0,0,1-.17.14.11.11,0,0,0,0,.07s0,0,0,0a.31.31,0,0,1-.05.09.31.31,0,0,0,0,.09.43.43,0,0,1-.07.1.63.63,0,0,0-.14.21.39.39,0,0,1-.2.2v0l-.28.27-.72.76-.28.24-.27.17v0l-.24.2-.18.14a1.12,1.12,0,0,1-.19.16.41.41,0,0,1-.19.08.47.47,0,0,1-.2.07l-.17.14c.09.09.08.14,0,.14a.7.7,0,0,0-.24,0l-.24.17-.24.14-.14.07-.07,0a.22.22,0,0,1-.1,0l-.17.17-.31.07a1.14,1.14,0,0,1-.62.2.8.8,0,0,0-.31,0h-.31a.7.7,0,0,0-.24,0h-.21a4.37,4.37,0,0,0-.55-.19c-.21-.06-.32-.26-.34-.6a.14.14,0,0,0,0-.07.25.25,0,0,1,0-.07v-.41l.17-.25.09-.18a.42.42,0,0,0,0-.12s0-.08.1-.16l.18-.19a4.32,4.32,0,0,1,.65-.55v0l.17-.13.17-.11.18-.17h.13a.09.09,0,0,0,.07,0l0,0,.17-.1.24-.17.66-.31.27-.11A.21.21,0,0,0,47,28.3l.14-.06,0,.06.07-.06a.34.34,0,0,1,.06-.06.12.12,0,0,0,.07-.05l.18-.07v0L47.6,28a.33.33,0,0,1,.15-.05,1,1,0,0,0,.28-.07l.41-.1h0l1.13-.31.17,0a.35.35,0,0,0,0-.13.29.29,0,0,1,.06-.11s0-.07.1-.13h0l.38-1a.25.25,0,0,1,0-.07.14.14,0,0,0,0-.07l.1-.34v-.07a.29.29,0,0,0,0-.31,1.07,1.07,0,0,0,.06-.41.06.06,0,0,1,0,0,.11.11,0,0,0,0-.06v-.2a.59.59,0,0,0,.07-.35V24a.57.57,0,0,1,0-.22,2.07,2.07,0,0,1,0-.35v-.31l0-.38a.33.33,0,0,0-.1.24l-.93.93-.69.59a2.06,2.06,0,0,1-.46.19q-.3.09-.36-.09c-.14-.13-.19-.25-.16-.34a.77.77,0,0,1,.22-.28,1.57,1.57,0,0,0,.32-.31.8.8,0,0,1,.34-.34A1.22,1.22,0,0,0,49,23a.19.19,0,0,1,0-.07l.19-.21.62-.62L50,21.8l.31-.35s.07-.05.14-.17v0a.07.07,0,0,1,0-.06s0,0,0-.05l.14-.1a.81.81,0,0,1,.07-.38.32.32,0,0,0,0-.14c0-.09,0-.17,0-.25a2.36,2.36,0,0,0,0-.3.11.11,0,0,1,0-.07.13.13,0,0,0,0-.06,2.59,2.59,0,0,1,.11-.69.86.86,0,0,1,.31-.62l.1-.17.07-.07a.49.49,0,0,1,.05-.18.66.66,0,0,1,.12-.17,1.44,1.44,0,0,1,.69-.48.22.22,0,0,0,.1,0h.14l0,0a.41.41,0,0,1,.28.09,1.38,1.38,0,0,1,.17.15l.07.14.28.29a.24.24,0,0,1,.06.29l-.15.61c-.06.24-.11.42-.15.53l-.14.21a.42.42,0,0,0-.17.27l-.18.28-.27.34-.21.24c0,.05-.07.08-.07.11a.09.09,0,0,1,0,.06s0,.05,0,.07l-.24.38,0,.07v.55a.13.13,0,0,0,0,.1,1.79,1.79,0,0,1,.09.5,3.09,3.09,0,0,1,0,.54v1.1a.67.67,0,0,0-.07.41.34.34,0,0,1,0,.09.3.3,0,0,0,0,.15v.35q0,.3-.12.69a2.6,2.6,0,0,1-.23.65.33.33,0,0,1-.06.21.15.15,0,0,1,0,.1l.34-.1a3.21,3.21,0,0,1,.69-.21l.18,0h.2a2.54,2.54,0,0,0,.42-.07h.17l.15,0,.16,0,.51-.24h.07s0,0,0,0a3,3,0,0,0,.32-.09,2.19,2.19,0,0,0,.33-.12l1.27-.45a2.67,2.67,0,0,0,.66-.27l.48-.21.93-.48.72-.34s0,0,.05-.06l.28-.13.34-.18a2.06,2.06,0,0,0,.3-.15v0a3.79,3.79,0,0,1,.58-.48l.14-.07h0a7.38,7.38,0,0,0,.68-.46l.56-.47ZM48.06,29h-.24l0,0-.05,0h0l-.27.17-.21.07a.1.1,0,0,0-.07,0h-.1s0,0,0,0,0,0-.07,0a.84.84,0,0,1-.44.2l-.21.14v0l-.52.24-.17.1-.15.16-.16.15-.27.34a.18.18,0,0,1,0,.11s0,0,0,.05a.07.07,0,0,0,0,.05L45,31s0,0,0,0,0,0,0,0v0h.55a.54.54,0,0,0,.27-.07l.14-.07h.14a.21.21,0,0,0,.14-.07l0,0,0,0,0,0L47,30.4l.14-.13.24-.14.16-.07.12,0,.17-.14h.1c0-.05,0-.09.11-.14v0l.27-.34.11-.07.27-.31s.13-.12.24-.31a1,1,0,0,0-.31.07l-.07,0-.13,0Zm4.17-9.7.24-.76H52.4a.27.27,0,0,0-.07.21,1.15,1.15,0,0,0-.31.37,3,3,0,0,0-.21.45v.21l.31-.38.14-.1Z"/><path class="cls-1" d="M62.79,21.11A.52.52,0,0,1,63,21a.67.67,0,0,1,.19,0,.4.4,0,0,1,.17,0l.18.11h0l.17.06v.48a.3.3,0,0,1,0,.23.71.71,0,0,1-.07.22s0,0,0,0,0,0,0,0a8.44,8.44,0,0,1-.34,1c-.14.33-.34.73-.59,1.19,0,0,0,0-.08.1a1.47,1.47,0,0,0-.09.17l-.41.77a10.7,10.7,0,0,0-.55,1.12l-.18.39a4.08,4.08,0,0,1-.2.39l-.14.21a.31.31,0,0,0-.07.15v.12c0,.12.1.17.24.16a1,1,0,0,0,.48-.23,2.63,2.63,0,0,0,.33-.2l.22-.17.18-.14.62-.48,1-.84,1.15-1c.39-.34.76-.68,1.12-1l.91-.89,1-.92.24-.21a.58.58,0,0,1,.18-.17l.13-.07a.24.24,0,0,0,.11-.09.27.27,0,0,1,.1-.08c.14-.18.26-.27.36-.26a1.5,1.5,0,0,1,.54.29.7.7,0,0,1,0,.14v.21a1.65,1.65,0,0,1-.07.37l-.14.17a1,1,0,0,1-.08.31l-.16.35a.6.6,0,0,1-.07.3.34.34,0,0,0-.1.21l-.24.48-.38.92L68,26.25v0a7.08,7.08,0,0,0-.21,1.5,1.46,1.46,0,0,0,.24,1,.81.81,0,0,0,.65.28,4.06,4.06,0,0,0,1.81-.53,16.62,16.62,0,0,0,2-1.26c.65-.48,1.24-1,1.77-1.45s.91-.85,1.14-1.1l.24-.26a2.28,2.28,0,0,1,.22-.22l.28-.26a3.81,3.81,0,0,1,.43-.36l.17-.1a.57.57,0,0,1,.15-.12l.16-.12.21-.21.06,0a2.43,2.43,0,0,0,.24-.23l.38-.34a.19.19,0,0,0,.14-.07.22.22,0,0,1,.17-.07.62.62,0,0,0,.18,0,.32.32,0,0,1,.17,0,2.92,2.92,0,0,1,.17.36.55.55,0,0,1,0,.36l-1.51,1.38-.32.35-.34.31v0l-.24.24-.14.17h0a.23.23,0,0,1-.11.11l-.1.08s0,0-.07.06l-.24.17v0L75.5,26a16.65,16.65,0,0,1-1.37,1.28,21.33,21.33,0,0,1-1.8,1.38,13.93,13.93,0,0,1-2,1.13,4.35,4.35,0,0,1-1.86.48,1.85,1.85,0,0,1-1.43-.57,3,3,0,0,1-.6-1.94,4.29,4.29,0,0,1,.12-.79,3.66,3.66,0,0,1,.29-.9l.21-.58v-.14l.17-.48a.5.5,0,0,1,0-.16.31.31,0,0,0,0-.15l.1-.38-.24.24-.38.31-.79.86-1,.86-1.45,1.21v0a7.9,7.9,0,0,1-1,.85,9.14,9.14,0,0,1-1,.6.77.77,0,0,1-.42.27.92.92,0,0,1-.29,0h-.29a1,1,0,0,1-.41,0l-.49-.2a.61.61,0,0,1-.37-.42.63.63,0,0,0-.14-.24l.07-.34h0l0-.07a1.76,1.76,0,0,0,0-.19.29.29,0,0,1,0-.19.36.36,0,0,0,.13-.21,1.57,1.57,0,0,1,.28-.68l.17-.38.41-.73L61,24.52c.07-.14.12-.27.17-.38a3.11,3.11,0,0,1,.14-.31l.17-.34q.21-.34.45-.81a6.48,6.48,0,0,0,.45-1.23.53.53,0,0,1,.17-.15.92.92,0,0,0,.2-.16Z"/><path class="cls-1" d="M80.14,19v0a.47.47,0,0,1,.17,0h.14s.1,0,.17.1a.63.63,0,0,1,.18.21,2.08,2.08,0,0,1,.1.24,1.1,1.1,0,0,1-.1.51,2,2,0,0,1-.25.42l-.27.41-.24.48q-.21.11-.21.21l-.1.21a.17.17,0,0,0-.07.13c-.3.46-.67,1-1.1,1.52l-.14.34-.27.41a5,5,0,0,0-.52.71c-.18.29-.38.59-.59.91l-.44.73L76,27.51l-.18.31,1.59-1.48.58-.51.11-.11.1-.1a2.27,2.27,0,0,0,.31-.41l1.45-1.35.34-.37.07.06.15-.2c.13-.16.23-.28.3-.35l.37-.31a2.63,2.63,0,0,0,.33-.2,2,2,0,0,0,.26-.21l.24-.21.38-.34.58-.41.9-.48a.58.58,0,0,0,.17-.11v0l.24-.18.14-.06.14,0s0,0,0,0h.29a.34.34,0,0,0,.14,0h.14a1.15,1.15,0,0,1,.41.12.55.55,0,0,1,.34.36,1,1,0,0,1,.11.52,1.46,1.46,0,0,1,0,.27A.47.47,0,0,1,86,22l-.11.31a.67.67,0,0,0-.06.17l-.24.45a3.19,3.19,0,0,1-.25.71,6.1,6.1,0,0,1-.37.67l-.45.89v0c0,.16-.11.32-.17.48s-.13.29-.18.38l-.2.34.17-.17.21-.17v0l.37-.41.56-.52.72-.72v0l.24-.2.38-.38,1-.83a2,2,0,0,1,.38-.2l.24-.18.24-.1.17-.14.12-.07a.39.39,0,0,0,.16-.1l.52-.17,0,0a.23.23,0,0,1,.14-.07h.14l0,0A.82.82,0,0,1,90,22h.38a1,1,0,0,1,.41,0,.51.51,0,0,1,.28.34,3.46,3.46,0,0,1,0,.43v.36a1.22,1.22,0,0,1,0,.22c0,.11,0,.22-.07.33a.62.62,0,0,0-.1.24,1.68,1.68,0,0,1-.21.76,2.73,2.73,0,0,0-.14.33l-.13.36a.08.08,0,0,1,0,.05.08.08,0,0,0,0,.05,1.71,1.71,0,0,0-.07.38v.24l0,.07a.43.43,0,0,1,0,.17v.17a.55.55,0,0,0,.07.28h0l.2.21.07.1a.28.28,0,0,0,.17.1c.12.16.21.24.28.24l.22.09.19,0h.19a.36.36,0,0,1,.19,0,1,1,0,0,0,.28,0h.62l.2,0H93l.09,0,.19-.05.62-.11a4.87,4.87,0,0,0,1-.1,8.25,8.25,0,0,0,.79-.27c.28-.12.53-.23.76-.35L98,25.93l.17-.07h0l1.17-.74a6.74,6.74,0,0,0,.93-.67c.19-.18.33-.31.42-.38a1.34,1.34,0,0,1,.27-.17v0l.21-.17.31-.21.72-.62v0l.28-.21.17-.13.45-.38.1-.11.12-.05.22,0h.07a.09.09,0,0,0,.07,0,1.25,1.25,0,0,1,.24.36.41.41,0,0,1,0,.4l-.55.48-.62.58-.44.24-.32.18v0a.9.9,0,0,0-.17.21l-.44.38-.23.15-.12.12-.34.31a1.45,1.45,0,0,0-.31.24l-.28.18a2.36,2.36,0,0,0-.31.2,1,1,0,0,1-.31.17.89.89,0,0,0-.34.21,3,3,0,0,1-.28.24l-.24.14-.31.21-.34.2a2.12,2.12,0,0,1-.4.19l-.46.19-.52.21h0l-.93.38-.49.13-.44.11h0a4.08,4.08,0,0,1-1,.15l-1.11.09a.32.32,0,0,0-.14,0h-.38a.75.75,0,0,1-.48,0h-.28a1.06,1.06,0,0,0-.27,0,1.46,1.46,0,0,1-.69-.17l-.35-.11-.13-.2s0-.07-.11-.14,0,0-.07,0a.09.09,0,0,1-.06,0s-.07,0-.06,0l-.29-.28-.33-.37a.27.27,0,0,1,0-.14A.29.29,0,0,1,89,27l-.07-.52a.78.78,0,0,1,0-.28v-.13a1.28,1.28,0,0,1,.06-.55,2.93,2.93,0,0,1,.15-.45l.24-.55a5.88,5.88,0,0,0,.21-.55.73.73,0,0,0,0-.47c-.06-.12-.19-.15-.39-.08a4,4,0,0,0-.37.26l-.18.15c-.12.11-.21.17-.28.17l-.14.14-.82.69-.38.45-.48.37v0l-.31.31,0,.07-.21.27a4.71,4.71,0,0,1-.6.4,1.29,1.29,0,0,0-.29.19l-.14.14-.31.34-.17.1-.1.11a.08.08,0,0,0,0,.07.09.09,0,0,1,0,.06l-.21.21-.86.9a.31.31,0,0,0-.09.19.25.25,0,0,1-.15.19h-.09l-.08,0s0,0,0,0l-.24.11H82.4a.18.18,0,0,1-.09,0H82.1c-.13.05-.23.05-.27,0s-.22-.08-.17-.24a.8.8,0,0,1-.14-.48l.17-.38.14-.28v0l.1-.41.14-.21,0,0a3.62,3.62,0,0,1,.68-1.24v0l.11-.41.1-.31.17-.21.21-.28h0a2.91,2.91,0,0,1,.66-1.1.13.13,0,0,1,0-.08.49.49,0,0,0,0-.12l.21-.38s0,0,0-.07l.08-.17c0-.07.06-.16.11-.28s.06-.15.06-.1l.14-.35a.12.12,0,0,1,0-.08.23.23,0,0,0,0-.09,1.51,1.51,0,0,0,.12-.2.35.35,0,0,0,0-.18v-.27s0,0,0,0H84.6a.49.49,0,0,0-.19,0l-.34.24v0l-.21.18s-.07,0-.07,0a3.46,3.46,0,0,1-.38.34.29.29,0,0,1-.17.07l-.21.14a.93.93,0,0,1-.25.27l-.33.21-.41.31v0l-.56.59-.37.31-.26.19a1.75,1.75,0,0,0-.36.39v0a.07.07,0,0,1,0,0,.05.05,0,0,0,0,.05l-.62.62-.69.66-.41.41-.16.15-.15.16-1.28,1.34h0a.65.65,0,0,1-.17.17.6.6,0,0,0-.18.18l-.72.74c-.28.28-.53.53-.76.74l-.24.26c-.11.12-.2.23-.27.32l-.48.38v0c-.07.07-.12.09-.14.08h-.11a.15.15,0,0,0-.1,0h-.34a.22.22,0,0,1-.12,0s0-.07,0-.19-.1-.12-.1-.31a.25.25,0,0,0,0-.07.31.31,0,0,1,0-.13.61.61,0,0,0,.07-.28.19.19,0,0,1,0-.07.15.15,0,0,0,0-.07s0-.18.07-.41a.24.24,0,0,1,.07-.17h0a2.6,2.6,0,0,0,.34-.66,5.42,5.42,0,0,0,.43-.68c.15-.28.29-.57.43-.86a5.48,5.48,0,0,1,.43-.69l.47-.66L76,25.1c.12-.2.25-.45.41-.74a7.78,7.78,0,0,1,.62-.91l.25-.45.06-.12a.35.35,0,0,0,.07-.12c.14-.16.27-.32.4-.5s.24-.32.36-.46l.14-.28c0-.09.09-.17.14-.26s.09-.16.13-.25l.24-.35a.88.88,0,0,0,.11-.13.41.41,0,0,0,.08-.14.28.28,0,0,1,.09-.14l.24-.38a2.32,2.32,0,0,0,.38-.58.32.32,0,0,1,.17-.19l.17-.09v0A.06.06,0,0,1,80.14,19Z"/><path class="cls-1" d="M118.07,23.9v0a.69.69,0,0,1,0,.38.32.32,0,0,1-.17.28v0l-.25.24v0l-.27.28-.14.13a.94.94,0,0,0-.1.14l-.48.38-.62.38h0a7.24,7.24,0,0,1-.67.51,8.55,8.55,0,0,1-1.15.66l-.48.27c-.26.16-.56.34-.9.52l-.86.45a2.7,2.7,0,0,1-.62.27l-.21.07-.27.11a4.33,4.33,0,0,0-.88.27l-.77.34-1.31.38,0,0,0,0-.42.1c-.25.07-.55.14-.91.21a5.48,5.48,0,0,1-1,.1l-.22,0-.23,0h-1.27a3.56,3.56,0,0,1-.55-.11l-.45-.14-.34-.1a3.86,3.86,0,0,1-.62-.31,1.94,1.94,0,0,1-.62-.51l-.31-.52-.11-.24a1.4,1.4,0,0,1-.17-.93V27a1.19,1.19,0,0,1,.14-.52.51.51,0,0,1,.07-.17s0,0,0,0,0,0,0-.06a.26.26,0,0,0,0-.17s0-.1.09-.17a.29.29,0,0,1,.1-.21h0l.17-.34.27-.48.24-.45a1,1,0,0,1,.35-.41v0l.14-.24a.24.24,0,0,1,.06-.14,1.15,1.15,0,0,0,.19-.24c.08-.11.1-.14.06-.07l.34-.48a2.16,2.16,0,0,1,.34-.38l.35-.34a1.66,1.66,0,0,1,.22-.19l.23-.16,0-.06a5.78,5.78,0,0,1,.48-.5,5.18,5.18,0,0,1,.42-.36l.34-.25.59-.41a.84.84,0,0,0,.34-.17l.41-.19a.66.66,0,0,1,.38-.05l.55.1.42.1a.42.42,0,0,1,.22.19,2.82,2.82,0,0,1,.09.3c0-.05-.07-.05-.07,0a.75.75,0,0,1,.2.46,3.49,3.49,0,0,1,0,.53v.18l-.17.27V22a2.77,2.77,0,0,1-.37.67c-.19.29-.31.47-.36.53l-.1.07-.1.11-.11.1-.1.14h0l-.29.31a.79.79,0,0,1-.26.2l-.12.09-.08.09v0a3.73,3.73,0,0,1-.3.26,2,2,0,0,1-.29.19l-.27.14-.86.48a1.24,1.24,0,0,1-.49.17l-.27.09a.89.89,0,0,0-.31.22.78.78,0,0,1-.38.14l-.07,0h0a.29.29,0,0,1-.17,0,.28.28,0,0,0-.2.1l-.24.07-.14.07-.21.14h0l-.18.34a.17.17,0,0,1,0,.07.1.1,0,0,0,0,.07.21.21,0,0,0,0,.14,1.22,1.22,0,0,0-.06.27.4.4,0,0,0,0,.17.75.75,0,0,0,.1.45l.28.45h0a1.19,1.19,0,0,0,.16.1.82.82,0,0,0,.26.1l.17.07a3,3,0,0,0,.53.3,1.38,1.38,0,0,0,.5.12,7.06,7.06,0,0,0,.76.07,5.09,5.09,0,0,0,.55,0h.34l.3,0h.32l.8-.16a3.66,3.66,0,0,0,.79-.26l1.62-.48.39-.15.4-.16a5.06,5.06,0,0,0,.89-.31l.38-.17a1.05,1.05,0,0,1,.41-.1l.21-.07h0l.48-.31.58-.28.21-.14q.34-.17.72-.39l.76-.47.38-.27.24-.17v0l.24-.21c.23-.13.41-.25.55-.34a5.27,5.27,0,0,0,.52-.41v0l.17-.14.27-.2a3,3,0,0,0,.26-.21c.08-.07.13-.1.16-.1a.75.75,0,0,1,.24,0,.26.26,0,0,1,.2.14h0Zm-15.11,1a6.35,6.35,0,0,0,1.1-.48,1.36,1.36,0,0,1,.14-.1.82.82,0,0,1,.31-.18l.55-.34.42-.28c.18-.11.36-.24.55-.37a2.72,2.72,0,0,0,.51-.55l.11-.14.24-.28.07-.08a.35.35,0,0,1,.1-.12.94.94,0,0,0,.1-.14.16.16,0,0,1,0-.12.27.27,0,0,0,0-.12s.08-.08.09-.24,0-.27-.16-.31,0,0-.07,0h0l-1.31.83a3.87,3.87,0,0,0-.65.51l-.55.55-.21.25h0l-.51.62Z"/></svg>