<svg id="圖層_1" data-name="圖層 1" xmlns="http://www.w3.org/2000/svg" viewBox="0 0 43.16 37.23"><defs><style>.cls-1{opacity:0.9;}.cls-2{fill:#9db6b8;}</style></defs><g class="cls-1"><path class="cls-2" d="M14.45,25.66l-2.78-.41c-.77-.11-1-.36-1.1-1.11s-.14-1.26-.22-1.88.19-1.14.9-1.24c1.12-.15,2.24-.28,3.36-.38A1.5,1.5,0,0,0,15.82,20c1.22-1.65,2.51-3.25,3.77-4.87l.4-.51-2.92-1.47-4.89-2.47a4,4,0,0,1-1.86-1.8,2.23,2.23,0,0,1,2-3.35c1.92,0,3.83.21,5.74.33,3.2.21,6.39.43,9.58.62a1,1,0,0,0,.68-.32C29.54,5,30.7,3.72,32,2.59A7.5,7.5,0,0,1,37.22.46,2.22,2.22,0,0,1,39.68,3a7.55,7.55,0,0,1-2,5c-1.13,1.29-2.39,2.46-3.56,3.71a1.41,1.41,0,0,0-.37.92q.44,7.05.91,14.11a8.46,8.46,0,0,1,0,1,2.27,2.27,0,0,1-3.48,2,4.5,4.5,0,0,1-1.83-2l-3.78-7.57c-.66.53-1.27,1-1.91,1.52-1.16.9-2.32,1.79-3.51,2.64a1.4,1.4,0,0,0-.64,1.1c-.09,1.1-.21,2.2-.36,3.29-.12.87-.45,1.11-1.33,1l-1.89-.17a1,1,0,0,1-1-1C14.76,27.65,14.61,26.69,14.45,25.66Zm2.93,2.1c.12-1.15.2-2.28.39-3.38a1.92,1.92,0,0,1,.61-1.12c2.14-1.7,4.32-3.33,6.46-5,1-.81,1.5-.74,2.08.43,1.24,2.48,2.46,5,3.72,7.44a9.85,9.85,0,0,0,1.08,1.71c.16.2.54.24.81.36a2.39,2.39,0,0,0,.24-.79c-.09-1.75-.21-3.51-.32-5.26-.22-3.35-.46-6.7-.64-10a1.89,1.89,0,0,1,.48-1.19c.65-.74,1.41-1.39,2.09-2.11S36,7.13,36.68,6.23a5.21,5.21,0,0,0,1.14-3.05c0-.76-.17-.92-.92-.87A5,5,0,0,0,33.8,3.5c-1.53,1.36-3,2.8-4.45,4.24a1.78,1.78,0,0,1-1.49.6c-3.8-.28-7.6-.52-11.4-.77-1.26-.09-2.52-.17-3.78-.22a2.51,2.51,0,0,0-.73.21,2.57,2.57,0,0,0,.28.78A2.57,2.57,0,0,0,13,9l8.38,4.23c1.17.58,1.24,1.09.42,2.13-1.66,2.11-3.29,4.24-4.91,6.37a1.71,1.71,0,0,1-1.31.71c-1.08.09-2.15.22-3.24.34v.72l2.76.41a1.16,1.16,0,0,1,1.13,1.2c.09.72.21,1.43.28,2.15C16.59,27.72,16.82,27.89,17.38,27.76Z"/><path class="cls-2" d="M4.4,24.29A.91.91,0,0,1,3.75,24a.93.93,0,0,1,0-1.32l7.08-7.11a.93.93,0,1,1,1.31,1.31L5.06,24A.9.9,0,0,1,4.4,24.29Z"/><path class="cls-2" d="M5.22,36a.93.93,0,0,1-.66-.27.92.92,0,0,1,0-1.31l7.07-7.11a.92.92,0,0,1,1.31,0,.93.93,0,0,1,0,1.32L5.88,35.71A1,1,0,0,1,5.22,36Z"/><path class="cls-2" d="M17.13,36.77a.93.93,0,0,1-.66-.27.94.94,0,0,1,0-1.32l7.07-7.11a.94.94,0,0,1,1.32,0,.93.93,0,0,1,0,1.31l-7.07,7.11A.92.92,0,0,1,17.13,36.77Z"/></g></svg>