<svg id="圖層_1" data-name="圖層 1" xmlns="http://www.w3.org/2000/svg" viewBox="0 0 18.92 19.26"><defs><style>.cls-1{fill:#9db6b8;}.cls-2{fill:#ede6dd;}</style></defs><circle class="cls-1" cx="9.46" cy="9.63" r="7.77"/><path class="cls-2" d="M12.09,6.61c-.07.1-.13.21-.2.33l-.19.33a0,0,0,0,1,0,0,0,0,0,0,0,0,0c-.06.11-.11.21-.16.29a3.11,3.11,0,0,1-.2.3l-.2.38-.18.3-.11.22-.12.26a2.1,2.1,0,0,1-.13.26l-.11.22h.82l.09,0,.12,0,.23-.08.17-.06.08,0h0l.08-.08.17-.06h.1s.07,0,.08,0l.06.06a.06.06,0,0,1,0,0,.1.1,0,0,1,0,.09h0l-.06.06-.06,0-.11.06-.08,0-.1.06a.67.67,0,0,1-.18.08l-.24.07,0,0a.15.15,0,0,1-.1,0l0,0h-.06l-.17,0h-.43l-.09,0s-.06,0-.08,0h-.37l-.09.19-.43.67-.45.71-.17.3L9,11.93l-.09.14,0,.07-.06.12-.14.15,0,0-.11.27-.12.16-.19.24L8,13.23H8l-.09.11h0a.05.05,0,0,0,0,.05.42.42,0,0,0-.09.15l-.17.16-.06.05h0l-.13.13h0l0,.06L7.35,14a1.55,1.55,0,0,1-.21.18l-.09.05h0l0,0H7l-.12.13-.11.08h0l-.08.06,0,0h0l-.16.1v0l0,.05H6.38s0,0-.06,0l-.14.06-.2.07-.07,0,0,0H5.44l-.06,0H5.26l0,0h0l-.15-.09-.15-.13-.12-.09a.64.64,0,0,0-.06-.11l-.08-.16-.07-.19a.71.71,0,0,1,0-.16.08.08,0,0,1,0-.07s0,0,0,0v0a.17.17,0,0,1,.1-.15.16.16,0,0,1,.21,0v0l0,0,0,.07v0l.13.39.2.22h0l.08.07H5.4a.12.12,0,0,0,.08,0h.15l.13,0h.06l.06,0a.13.13,0,0,1,.08,0l.13-.05h0l.16-.07.16-.09.1,0q.12-.12.09-.12l.22-.18.07-.06L7,13.73l.33-.33.08-.1h0l.1-.11.07-.08L7.59,13l.07-.13.25-.34.27-.31.1-.19a.73.73,0,0,1,.14-.16l.06-.08.06-.1.07-.12.11-.16.09-.17L9,10.91a2.53,2.53,0,0,1,.19-.36l.24-.35.23-.42-.11,0H9.51a.12.12,0,0,0-.09,0H9.36L9.22,9.6v0H9.16L9.08,9.5h0L9,9.45H9a.32.32,0,0,1-.16-.1,2,2,0,0,1-.18-.21,2.2,2.2,0,0,1-.17-.25c-.05-.08-.09-.16-.12-.22a2.5,2.5,0,0,1-.09-.43,2.78,2.78,0,0,1,0-.51A3.49,3.49,0,0,1,8.28,7q.06-.37.15-.72a.86.86,0,0,0,0-.13,1.21,1.21,0,0,0,0-.18l.06-.16,0-.11.15-.31a1.82,1.82,0,0,1,.15-.27,2.61,2.61,0,0,1,.17-.28,8.13,8.13,0,0,1,1-1.24,6.54,6.54,0,0,1,.87-.75,3.09,3.09,0,0,1,.66-.39,2.81,2.81,0,0,1,.4-.14h0a.62.62,0,0,1,.36-.06l.36,0a1,1,0,0,1,.37.16.79.79,0,0,1,.29.31,1.07,1.07,0,0,1,.12.53,3.05,3.05,0,0,1-.17.88,7.18,7.18,0,0,1-.58,1.23Zm-5.57,7.5h0l0,0,0,0,0,0v0Zm2.05-1.64s0,0,0,0v0a.05.05,0,0,0,0,0l0,0,0,0h0ZM9,9a.21.21,0,0,0,.1.06l.12.12h0l0,0,0,0,0,0h0l.25.12.14.07.1.06s0,0,0,0,0,0,0,0,0,0,0,0l.34-.63.11-.18.07-.11a.37.37,0,0,0,.05-.11l.07-.11a.45.45,0,0,0,.06-.12l0,0s0,0,0,0a.16.16,0,0,1,0-.06c.06-.1.12-.22.19-.35a.2.2,0,0,1,0-.08A.76.76,0,0,1,11,7.55l.09-.15.39-.73.48-.81.57-1,.18-.31.18-.37a3.7,3.7,0,0,0,.13-.4,1.24,1.24,0,0,0,.06-.37A.55.55,0,0,0,12.89,3a.74.74,0,0,0-.55-.17l-.25,0a1.07,1.07,0,0,0-.29.06l-.16.06h0L11.6,3h0l-.06,0s0,0-.07,0l-.16.1a1.07,1.07,0,0,0-.28.19l-.26.21h0l-.15.16L10.32,4a4.6,4.6,0,0,0-.31.37c-.11.15-.23.33-.37.56s-.29.5-.46.84a3.07,3.07,0,0,0-.39.85,4,4,0,0,0-.16,1.07,2.92,2.92,0,0,0,.1.73A1.32,1.32,0,0,0,9,9Z"/></svg>