<svg id="圖層_1" data-name="圖層 1" xmlns="http://www.w3.org/2000/svg" viewBox="0 0 43.16 37.23"><defs><style>.cls-1{fill:#9db6b8;opacity:0.7;}</style></defs><path class="cls-1" d="M16.64,30.4C12.55,30,9.05,28.71,6.26,25.91a13.38,13.38,0,0,1-4-7.56,10.25,10.25,0,0,1,1.07-6.48A4.9,4.9,0,0,1,8.63,9.33a5.15,5.15,0,0,1,3.85,2.39C14,14.13,17.85,14.88,20,13.08a5.33,5.33,0,0,0,1.19-1.4c1.82-3.1,6.8-3.22,9-.09a11.8,11.8,0,0,1,2.21,6.33,10.87,10.87,0,0,1-3.68,8.71,14.59,14.59,0,0,1-10.2,3.81C17.78,30.45,17.09,30.41,16.64,30.4Zm-.36-1.73.87.06A13.67,13.67,0,0,0,26.82,26a9.43,9.43,0,0,0,3.76-6.5A10.06,10.06,0,0,0,29,12.9a3.81,3.81,0,0,0-6.45-.23A6.88,6.88,0,0,1,21,14.41c-2.77,2.37-7.62,1.46-9.62-1.28a6.91,6.91,0,0,0-1.31-1.44,3.6,3.6,0,0,0-5.22.9,7.68,7.68,0,0,0-1,3.57,10.81,10.81,0,0,0,3.66,8.56A14.82,14.82,0,0,0,16.28,28.67Z"/><path class="cls-1" d="M7.48,19.86A2.58,2.58,0,0,1,5.19,17a2.63,2.63,0,0,1,2.87-2.29,2.66,2.66,0,0,1,2.29,2.87A2.61,2.61,0,0,1,7.48,19.86Zm1.16-2.43a.89.89,0,1,0-1.76-.25.89.89,0,1,0,1.76.25Z"/><path class="cls-1" d="M22.23,20.25a2.59,2.59,0,0,1,2.2,3,2.66,2.66,0,0,1-2.92,2.16,2.6,2.6,0,0,1-2.21-3A2.56,2.56,0,0,1,22.23,20.25Zm-.49,3.41a.88.88,0,1,0-.77-1A.86.86,0,0,0,21.74,23.66Z"/><path class="cls-1" d="M13.93,20.11a2.61,2.61,0,0,1,2.32,2.83,2.66,2.66,0,0,1-2.86,2.32,2.58,2.58,0,0,1-2.28-2.85A2.53,2.53,0,0,1,13.93,20.11Zm.6,2.68a.85.85,0,0,0-.78-1,.9.9,0,1,0,.78,1Z"/><path class="cls-1" d="M34.83,12.69a55.54,55.54,0,0,1-7.07,5.12.51.51,0,0,0-.22.35,4.63,4.63,0,0,1-3.63,4.44,6,6,0,0,1-6-1.65.89.89,0,0,1,.6-1.63,1.88,1.88,0,0,0,1.79-1.38A4.79,4.79,0,0,1,22,15.51,3.33,3.33,0,0,1,24.67,15a.58.58,0,0,0,.62-.22,51.61,51.61,0,0,1,7.17-6.85,48.26,48.26,0,0,1,4-2.76,17.57,17.57,0,0,1,2.89-1.41,1.82,1.82,0,0,1,1.06-.07,1.12,1.12,0,0,1,.77,1.65,14.7,14.7,0,0,1-1.61,2.54A22.8,22.8,0,0,1,34.83,12.69Zm4.44-7.15A14.22,14.22,0,0,0,35,8c-2.09,1.7-2.8,2.28-4.8,4.09-1.24,1.12-2.36,2.39-3.51,3.61-.09.1,0,.34-.06.51.16,0,.36.07.48,0,.72-.43,1.44-.87,2.12-1.36A51.72,51.72,0,0,0,36.05,9.4,15.87,15.87,0,0,0,39.27,5.54ZM20.18,20.66c.62.17,1.13.34,1.66.43a3.75,3.75,0,0,0,3.79-1.81,1.86,1.86,0,0,0-.86-2.53,1.84,1.84,0,0,0-2.34.72c-.25.38-.39.83-.63,1.22a17,17,0,0,1-1,1.42A5.46,5.46,0,0,1,20.18,20.66Z"/></svg>