<svg id="圖層_1" data-name="圖層 1" xmlns="http://www.w3.org/2000/svg" viewBox="0 0 19.83 18.45"><defs><style>.cls-1{opacity:0.7;}.cls-2{fill:#565b65;}</style></defs><g class="cls-1"><path class="cls-2" d="M9.84,15.08a4.69,4.69,0,0,1-4.91-4.92,4.86,4.86,0,0,1,4.93-5c2.94,0,4.74,1.9,4.74,4.18A3,3,0,0,1,12,12.65a1.13,1.13,0,0,1-1.18-.92c0-.11,0-.16,0-.16s-.06,0-.13.1a2.45,2.45,0,0,1-1.74.67,1.56,1.56,0,0,1-1.61-1.71A3,3,0,0,1,10,7.73a1.77,1.77,0,0,1,1.26.48l.12.11s0,0,.07-.08c.2-.42.21-.43.4-.43a.39.39,0,0,1,.41.34.27.27,0,0,1,0,.13A6.53,6.53,0,0,0,11.43,11c0,.65.27.92.63.92s1.79-.39,1.79-2.57a3.67,3.67,0,0,0-4-3.57,4.17,4.17,0,0,0-4.18,4.36,4,4,0,0,0,4.1,4.18,4.93,4.93,0,0,0,2.15-.54.53.53,0,0,1,.17,0,.37.37,0,0,1,.35.38.44.44,0,0,1-.28.39A5.55,5.55,0,0,1,9.84,15.08ZM11.1,9a1,1,0,0,0-1-.7A2.3,2.3,0,0,0,8,10.59a1,1,0,0,0,1,1.06,1.84,1.84,0,0,0,1.75-1.3A9.89,9.89,0,0,0,11.1,9Z"/></g></svg>