<svg id="圖層_1" data-name="圖層 1" xmlns="http://www.w3.org/2000/svg" viewBox="0 0 48.87 37.23"><defs><style>.cls-1{fill:none;stroke:#9bb3b5;stroke-linecap:round;stroke-linejoin:round;stroke-width:2px;opacity:0.9;}</style></defs><path class="cls-1" d="M43.78,16.22H41.6V13.1a2.32,2.32,0,0,0-4.63,0V10a2.39,2.39,0,1,0-4.78,0v6.25H16.63V10a2.39,2.39,0,1,0-4.78,0V13.1a2.32,2.32,0,0,0-4.63,0v3.12H5.1A2.39,2.39,0,1,0,5.1,21H7.22v2.34a2.32,2.32,0,1,0,4.63,0v3.92a2.39,2.39,0,0,0,4.78,0V21H32.19v6.26a2.39,2.39,0,1,0,4.78,0V23.34a2.32,2.32,0,1,0,4.63,0V21h2.18a2.39,2.39,0,0,0,0-4.78Z"/></svg>