<svg id="圖層_1" data-name="圖層 1" xmlns="http://www.w3.org/2000/svg" viewBox="0 0 242.82 164.17"><defs><style>.cls-1{fill:none;stroke:#c1d3d1;stroke-miterlimit:10;stroke-width:0.5px;}.cls-2{fill:#565b65;}</style></defs><circle class="cls-1" cx="118.92" cy="91.17" r="19.61"/><circle class="cls-1" cx="118.92" cy="91.17" r="5.67"/><circle class="cls-1" cx="118.92" cy="91.17" r="36.41"/><circle class="cls-1" cx="118.92" cy="91.17" r="56.92"/><line class="cls-1" x1="118.92" y1="34.33" x2="118.92" y2="149.95"/><line class="cls-1" x1="159.8" y1="51.26" x2="78.04" y2="133.02"/><line class="cls-1" x1="176.74" y1="92.14" x2="61.11" y2="92.14"/><line class="cls-1" x1="159.8" y1="133.02" x2="78.04" y2="51.26"/><path class="cls-2" d="M111,14.21a.36.36,0,0,1-.1.27.35.35,0,0,1-.26.1H108.6a.34.34,0,0,1-.26-.1.37.37,0,0,1-.11-.27.34.34,0,0,1,.11-.25.35.35,0,0,1,.26-.11h.31a.31.31,0,0,0,.25-.11.35.35,0,0,0,.11-.26v-3.4a.36.36,0,0,0-.11-.26.31.31,0,0,0-.25-.11h-.32a.36.36,0,0,1-.26-.11.32.32,0,0,1-.1-.25.36.36,0,0,1,.1-.27.4.4,0,0,1,.26-.1h2.07a.4.4,0,0,1,.26.1.37.37,0,0,1,.11.27.33.33,0,0,1-.11.25.36.36,0,0,1-.26.11h-.31a.31.31,0,0,0-.25.11.36.36,0,0,0-.11.26v3.4a.35.35,0,0,0,.11.26.31.31,0,0,0,.25.11h.32a.36.36,0,0,1,.26.11A.33.33,0,0,1,111,14.21Z"/><path class="cls-2" d="M116.28,14.21a.36.36,0,0,1-.1.27.35.35,0,0,1-.26.1h-2.8a.34.34,0,0,1-.26-.1.37.37,0,0,1-.11-.27V9.35a.37.37,0,0,1,.11-.27.38.38,0,0,1,.26-.1.4.4,0,0,1,.26.1.36.36,0,0,1,.1.27v4.13a.35.35,0,0,0,.11.26.33.33,0,0,0,.26.11h2.07a.36.36,0,0,1,.26.11A.33.33,0,0,1,116.28,14.21Z"/><path class="cls-2" d="M120.75,14.21a.37.37,0,0,1-.11.27.33.33,0,0,1-.25.1h-2.8a.34.34,0,0,1-.37-.37V9.35a.36.36,0,0,1,.1-.27.41.41,0,0,1,.27-.1.37.37,0,0,1,.25.1.36.36,0,0,1,.1.27v4.13a.35.35,0,0,0,.11.26.34.34,0,0,0,.26.11h2.08a.38.38,0,0,1,.36.36Z"/><path class="cls-2" d="M125.23,12.87a1.63,1.63,0,0,1-.15.7,1.75,1.75,0,0,1-.39.57,1.88,1.88,0,0,1-.58.38,1.7,1.7,0,0,1-.69.14,1.73,1.73,0,0,1-.71-.14,1.68,1.68,0,0,1-.56-.38,1.71,1.71,0,0,1-.54-1.27V9.34a.35.35,0,0,1,.1-.26A.4.4,0,0,1,122,9a.38.38,0,0,1,.26.1.36.36,0,0,1,.11.26v3.53a1,1,0,0,0,.08.41,1.34,1.34,0,0,0,.23.34,1.12,1.12,0,0,0,.35.23.91.91,0,0,0,.41.08,1,1,0,0,0,.42-.08,1.13,1.13,0,0,0,.34-.23,1.1,1.1,0,0,0,.32-.75V9.34a.35.35,0,0,1,.1-.26.4.4,0,0,1,.26-.1.38.38,0,0,1,.26.1.36.36,0,0,1,.11.26v3.53Z"/><path class="cls-2" d="M129.65,12.33a1.46,1.46,0,0,1,.17.71,1.62,1.62,0,0,1-.12.64,1.59,1.59,0,0,1-.37.5,1.16,1.16,0,0,1-.25.2,1.11,1.11,0,0,1-.29.14,1.22,1.22,0,0,1-.4.1,2.37,2.37,0,0,1-.43,0h-.23l-.24,0-.25,0a1,1,0,0,1-.21-.08h0l0,0-.07,0a.16.16,0,0,1-.08-.05l0,0a.25.25,0,0,1-.1-.12.47.47,0,0,1,0-.17.38.38,0,0,1,.06-.17.57.57,0,0,1,.14-.13h0a.6.6,0,0,1,.2,0,.32.32,0,0,1,.17.06h0l0,0,.16.08.2.07a1.17,1.17,0,0,0,.32,0l.27,0a.77.77,0,0,0,.28-.08.8.8,0,0,0,.16-.08.57.57,0,0,0,.13-.1.75.75,0,0,0,.2-.29.77.77,0,0,0,.08-.34.82.82,0,0,0-.08-.35.38.38,0,0,0-.09-.15.45.45,0,0,0-.11-.13,1.14,1.14,0,0,0-.17-.15l-.06,0-.07,0a.86.86,0,0,0-.36-.08,1.52,1.52,0,0,1-.44,0l-.06,0h-.06l-.22-.1h0l-.23-.15-.07-.06-.07-.06-.17-.2a1.76,1.76,0,0,1-.14-.23,1.47,1.47,0,0,1-.18-.71,1.38,1.38,0,0,1,.14-.63,1.4,1.4,0,0,1,.36-.51,1.59,1.59,0,0,1,.24-.2,2,2,0,0,1,.29-.14,1.29,1.29,0,0,1,.41-.1,2.35,2.35,0,0,1,.42,0h.23l.25,0L129,9l.22.08h0l0,0,0,0,0,0,.07,0,0,0a.24.24,0,0,1,.09.12.45.45,0,0,1,0,.18.59.59,0,0,1-.06.16.35.35,0,0,1-.14.13h0l-.19,0a.24.24,0,0,1-.18-.06l-.05,0h0l-.15-.07a.88.88,0,0,0-.2-.07l-.14,0h-.19l-.26,0a.77.77,0,0,0-.28.08l-.16.08-.14.11-.11.13-.09.16a.71.71,0,0,0-.07.34.87.87,0,0,0,.07.35,1.26,1.26,0,0,0,.2.28.85.85,0,0,0,.19.14.24.24,0,0,0,.11.06,1,1,0,0,0,.37.08,1.72,1.72,0,0,1,.44.06l.12,0,.22.1a0,0,0,0,0,0,0h0a1.54,1.54,0,0,1,.23.14l.08.06.06.07A1.67,1.67,0,0,1,129.65,12.33Z"/><path class="cls-2" d="M107.69,17.35a.33.33,0,0,1-.11.25.36.36,0,0,1-.26.11h-1.39a.33.33,0,0,0-.26.11.35.35,0,0,0-.1.26v4.13a.37.37,0,0,1-.11.27.39.39,0,0,1-.52,0,.41.41,0,0,1-.1-.27V18.08a.38.38,0,0,0-.37-.37h-1.28a.34.34,0,0,1-.25-.11.33.33,0,0,1-.11-.25.37.37,0,0,1,.11-.27.37.37,0,0,1,.25-.1h4.13a.4.4,0,0,1,.26.1A.37.37,0,0,1,107.69,17.35Z"/><path class="cls-2" d="M112.14,18.72a1.69,1.69,0,0,1-.3,1,1.72,1.72,0,0,1-.6.54.18.18,0,0,0-.09.12.18.18,0,0,0,0,.16l.71,1.5a.34.34,0,0,1,0,.2.41.41,0,0,1-.05.18.86.86,0,0,1-.14.13.46.46,0,0,1-.2,0,.42.42,0,0,1-.21-.06.46.46,0,0,1-.15-.16l-.83-1.77a.19.19,0,0,0-.18-.12h-.55a.21.21,0,0,0-.21.21v1.53a.37.37,0,0,1-.11.27.33.33,0,0,1-.24.1.38.38,0,0,1-.38-.38V17.37a.36.36,0,0,1,.12-.27A.34.34,0,0,1,109,17h1.35a1.8,1.8,0,0,1,1.24.51,1.64,1.64,0,0,1,.21.25c.06.1.11.2.16.3A1.76,1.76,0,0,1,112.14,18.72Zm-2.76.8a.25.25,0,0,0,.06.16.2.2,0,0,0,.15.06h.8l.2,0a.76.76,0,0,0,.2-.06,1.22,1.22,0,0,0,.32-.22,1,1,0,0,0,.22-.32,1,1,0,0,0,0-.79l-.1-.17a.88.88,0,0,0-.12-.15,1.66,1.66,0,0,0-.32-.22.76.76,0,0,0-.2-.06l-.2,0h-.8a.21.21,0,0,0-.21.21Z"/><path class="cls-2" d="M118,22.58h0a.43.43,0,0,1-.22-.06.46.46,0,0,1-.15-.16L117.05,21a.37.37,0,0,0-.35-.23h-2.22a.42.42,0,0,0-.21.06.4.4,0,0,0-.15.17l-.62,1.33a.36.36,0,0,1-.35.22.42.42,0,0,1-.2,0,.4.4,0,0,1-.13-.13.35.35,0,0,1-.06-.18.32.32,0,0,1,0-.19l2.27-4.91a.36.36,0,0,1,.35-.22h.35A.37.37,0,0,1,116,17a.38.38,0,0,1,.15.16L118.39,22a.32.32,0,0,1,0,.19.48.48,0,0,1-.06.18.58.58,0,0,1-.14.13A.41.41,0,0,1,118,22.58ZM115.2,20H116a.41.41,0,0,0,.19-.05.53.53,0,0,0,.13-.13.36.36,0,0,0,.07-.18.43.43,0,0,0,0-.19l-.38-.83a.33.33,0,0,0-.15-.16.42.42,0,0,0-.21-.06.36.36,0,0,0-.2.06.29.29,0,0,0-.15.16l-.38.83a.43.43,0,0,0,0,.19.48.48,0,0,0,.06.18A.44.44,0,0,0,115,20,.38.38,0,0,0,115.2,20Z"/><path class="cls-2" d="M123.46,17.35a.33.33,0,0,1-.11.25.36.36,0,0,1-.26.11H121.7a.33.33,0,0,0-.26.11.35.35,0,0,0-.1.26v4.13a.37.37,0,0,1-.11.27.39.39,0,0,1-.52,0,.36.36,0,0,1-.1-.27V18.08a.36.36,0,0,0-.11-.26.33.33,0,0,0-.26-.11H119a.34.34,0,0,1-.25-.11.33.33,0,0,1-.11-.25.37.37,0,0,1,.11-.27A.37.37,0,0,1,119,17h4.13a.4.4,0,0,1,.26.1A.37.37,0,0,1,123.46,17.35Z"/><path class="cls-2" d="M126.89,16.9a2.84,2.84,0,0,1,2,.84,2.87,2.87,0,0,1,.62.92,2.85,2.85,0,0,1,.23,1.12,2.72,2.72,0,0,1-.06.58,2.81,2.81,0,0,1-.17.54,2.77,2.77,0,0,1-.62.91,2.89,2.89,0,0,1-.92.63,3,3,0,0,1-2.24,0,3.09,3.09,0,0,1-1.54-1.54,3,3,0,0,1,0-2.24,3,3,0,0,1,1.54-1.54A3,3,0,0,1,126.89,16.9Zm0,5a2.11,2.11,0,0,0,.82-.17,2.25,2.25,0,0,0,.67-.45,2.19,2.19,0,0,0,.45-.67,2.08,2.08,0,0,0,.17-.82,2,2,0,0,0-.17-.82,2,2,0,0,0-.45-.67,2.08,2.08,0,0,0-.67-.45,2.1,2.1,0,0,0-.82-.16,2,2,0,0,0-.82.16,2.32,2.32,0,0,0-.67.45A2.25,2.25,0,0,0,125,19a2,2,0,0,0-.17.82,2.08,2.08,0,0,0,.17.82,2.09,2.09,0,0,0,1.12,1.12A2,2,0,0,0,126.89,21.89Z"/><path class="cls-2" d="M134.57,18.72a1.69,1.69,0,0,1-.3,1,1.72,1.72,0,0,1-.6.54.18.18,0,0,0-.09.12.22.22,0,0,0,0,.16l.71,1.5a.45.45,0,0,1,0,.2.64.64,0,0,1-.06.18.58.58,0,0,1-.14.13.46.46,0,0,1-.2,0,.42.42,0,0,1-.21-.06.46.46,0,0,1-.15-.16l-.83-1.77a.18.18,0,0,0-.18-.12H132a.21.21,0,0,0-.21.21v1.53a.37.37,0,0,1-.11.27.31.31,0,0,1-.24.1.38.38,0,0,1-.38-.38V17.37a.41.41,0,0,1,.39-.39h1.35a1.75,1.75,0,0,1,1.24.51,1.64,1.64,0,0,1,.21.25,2.19,2.19,0,0,1,.16.3A1.76,1.76,0,0,1,134.57,18.72Zm-2.76.8a.25.25,0,0,0,.06.16.2.2,0,0,0,.15.06h.8l.21,0,.19-.06a1.08,1.08,0,0,0,.32-.22,1,1,0,0,0,.22-.32,1,1,0,0,0,0-.79l-.1-.17a.88.88,0,0,0-.12-.15,1.66,1.66,0,0,0-.32-.22l-.19-.06-.21,0H132a.21.21,0,0,0-.21.21Z"/><path class="cls-2" d="M173.89,47.65a1.72,1.72,0,0,1,.68.13,1.6,1.6,0,0,1,.55.38,1.31,1.31,0,0,1,.22.25,2.11,2.11,0,0,1,.16.3,1.72,1.72,0,0,1,.14.68,1.8,1.8,0,0,1-.14.68,2.11,2.11,0,0,1-.16.3,1.71,1.71,0,0,1-.22.25,1.71,1.71,0,0,1-1.23.52h-.8a.2.2,0,0,0-.15.06.18.18,0,0,0-.06.14v1.54a.35.35,0,0,1-.11.26.34.34,0,0,1-.25.11.37.37,0,0,1-.27-.11.34.34,0,0,1-.1-.26V48a.38.38,0,0,1,.12-.28.37.37,0,0,1,.27-.11h1.35Zm0,2.76a1.23,1.23,0,0,0,.39-.07,1.36,1.36,0,0,0,.33-.22,1.19,1.19,0,0,0,.22-.33,1.13,1.13,0,0,0,.08-.39,1.19,1.19,0,0,0-.08-.4l-.1-.17a.61.61,0,0,0-.12-.15l-.15-.13a.76.76,0,0,0-.18-.09.85.85,0,0,0-.39-.08h-.8a.2.2,0,0,0-.15.06.2.2,0,0,0-.06.14V50.2a.21.21,0,0,0,.21.21Z"/><path class="cls-2" d="M181.27,48v4.86a.35.35,0,0,1-.11.26.36.36,0,0,1-.26.11.33.33,0,0,1-.25-.11.35.35,0,0,1-.11-.26V51a.31.31,0,0,0-.11-.25.36.36,0,0,0-.26-.11h-2a.36.36,0,0,0-.26.11.33.33,0,0,0-.1.25v1.9a.38.38,0,0,1-.37.37.36.36,0,0,1-.26-.11.34.34,0,0,1-.1-.26V48a.36.36,0,0,1,.1-.27.35.35,0,0,1,.26-.1.34.34,0,0,1,.26.1.37.37,0,0,1,.11.27v1.51a.34.34,0,0,0,.1.26.36.36,0,0,0,.26.11h2a.36.36,0,0,0,.26-.11.31.31,0,0,0,.11-.26V48a.37.37,0,0,1,.11-.27.33.33,0,0,1,.26-.1.32.32,0,0,1,.25.1A.37.37,0,0,1,181.27,48Z"/><path class="cls-2" d="M185.45,47.57a2.76,2.76,0,0,1,1.12.22,2.87,2.87,0,0,1,.92.62,2.79,2.79,0,0,1,.63.92,2.41,2.41,0,0,1,.16.54,2.65,2.65,0,0,1,.06.58,3.1,3.1,0,0,1-.22,1.12,3.08,3.08,0,0,1-.63.91,2.62,2.62,0,0,1-.92.62,2.77,2.77,0,0,1-1.12.23,2.8,2.8,0,0,1-1.12-.23,3,3,0,0,1-1.53-1.53,2.8,2.8,0,0,1-.23-1.12,2.9,2.9,0,0,1,.85-2,3,3,0,0,1,.91-.62A2.8,2.8,0,0,1,185.45,47.57Zm0,5a2,2,0,0,0,.83-.17,2.31,2.31,0,0,0,.66-.44,2.47,2.47,0,0,0,.46-.68,2,2,0,0,0,.17-.81,2.09,2.09,0,0,0-.17-.83,2.11,2.11,0,0,0-.46-.66,2.09,2.09,0,0,0-1.49-.62,1.92,1.92,0,0,0-.81.17A2,2,0,0,0,184,49a2.31,2.31,0,0,0-.44.66,1.93,1.93,0,0,0-.17.83,1.84,1.84,0,0,0,.17.81,1.93,1.93,0,0,0,1.12,1.12A1.78,1.78,0,0,0,185.45,52.55Z"/><path class="cls-2" d="M193.75,48a.34.34,0,0,1-.11.25.36.36,0,0,1-.26.11H192a.35.35,0,0,0-.26.1.37.37,0,0,0-.1.26v4.14a.35.35,0,0,1-.11.26.36.36,0,0,1-.52,0,.38.38,0,0,1-.1-.26V48.74a.38.38,0,0,0-.11-.26.35.35,0,0,0-.26-.1h-1.28a.38.38,0,0,1-.36-.36.37.37,0,0,1,.11-.27.33.33,0,0,1,.25-.1h4.13a.35.35,0,0,1,.26.1A.37.37,0,0,1,193.75,48Z"/><path class="cls-2" d="M197.18,47.57a2.8,2.8,0,0,1,1.12.22,3,3,0,0,1,.92.62,2.77,2.77,0,0,1,.62.92,2,2,0,0,1,.17.54,2.65,2.65,0,0,1,.06.58A2.78,2.78,0,0,1,200,51a2.25,2.25,0,0,1-.17.54,2.88,2.88,0,0,1-.62.91,2.71,2.71,0,0,1-.92.62,2.84,2.84,0,0,1-2.24,0,2.63,2.63,0,0,1-.91-.62,2.75,2.75,0,0,1-.63-.91,2.8,2.8,0,0,1-.22-1.12,2.76,2.76,0,0,1,.22-1.12,2.79,2.79,0,0,1,.63-.92,2.88,2.88,0,0,1,.91-.62A2.8,2.8,0,0,1,197.18,47.57Zm0,5a2,2,0,0,0,.82-.17,2,2,0,0,0,1.12-1.12,1.84,1.84,0,0,0,.17-.81,2.09,2.09,0,0,0-.62-1.49,2.08,2.08,0,0,0-.67-.45,2.11,2.11,0,0,0-.82-.17,2,2,0,0,0-.82.17,2,2,0,0,0-.67.45,2.57,2.57,0,0,0-.45.66,2.08,2.08,0,0,0-.16.83,2,2,0,0,0,.16.81,2.87,2.87,0,0,0,.45.68,2.51,2.51,0,0,0,.67.44A1.85,1.85,0,0,0,197.18,52.55Z"/><path class="cls-2" d="M204.16,51a1.58,1.58,0,0,1,.17.71,1.39,1.39,0,0,1-.13.63,1.47,1.47,0,0,1-.36.51,2.19,2.19,0,0,1-.25.2,1.8,1.8,0,0,1-.69.24,2.37,2.37,0,0,1-.43,0h-.23l-.25,0-.24-.06-.22-.07h0l0,0-.08,0-.08-.06,0,0a.48.48,0,0,1-.09-.13.33.33,0,0,1,0-.33.35.35,0,0,1,.14-.13h0a.64.64,0,0,1,.2,0,.29.29,0,0,1,.17.06h0l0,0,.15.07.2.07a1.31,1.31,0,0,0,.33,0,1.42,1.42,0,0,0,.27,0,.86.86,0,0,0,.27-.08,1.19,1.19,0,0,0,.16-.08.71.71,0,0,0,.14-.1.84.84,0,0,0,.2-.29.78.78,0,0,0,.07-.35.8.8,0,0,0-.07-.34l-.09-.16-.11-.13a.73.73,0,0,0-.18-.14l-.06,0s0,0-.06,0a1,1,0,0,0-.36-.07,2,2,0,0,1-.44,0l-.06,0-.06,0-.22-.09,0,0-.23-.14-.07-.06-.07-.06c-.06-.06-.11-.13-.17-.2a1.82,1.82,0,0,1-.15-.23,1.59,1.59,0,0,1-.17-.72,1.51,1.51,0,0,1,.5-1.13,1.59,1.59,0,0,1,.24-.2,2,2,0,0,1,.29-.15,2.1,2.1,0,0,1,.4-.1l.43,0h.23l.25,0,.24.05.22.07,0,0,0,0,0,0a.05.05,0,0,1,0,0l.07,0,0,0a.23.23,0,0,1,.1.12.3.3,0,0,1,0,.18.75.75,0,0,1,0,.16.49.49,0,0,1-.15.13h0a.46.46,0,0,1-.19,0,.24.24,0,0,1-.17-.06l-.05,0h0l-.15-.07a.81.81,0,0,0-.2-.08l-.14,0h-.19l-.27,0a.77.77,0,0,0-.27.08.8.8,0,0,0-.16.08.49.49,0,0,0-.14.11.69.69,0,0,0-.11.13.61.61,0,0,0-.09.16.71.71,0,0,0-.07.34.8.8,0,0,0,.07.34.93.93,0,0,0,.2.29l.18.14.12.06a.9.9,0,0,0,.37.07,1.39,1.39,0,0,1,.44.07l.12,0,.22.1h0a1,1,0,0,1,.23.14l.07.06.07.07A1.94,1.94,0,0,1,204.16,51Z"/><path class="cls-2" d="M209.67,48v4.86a.35.35,0,0,1-.11.26.36.36,0,0,1-.52,0,.38.38,0,0,1-.1-.26V51a.34.34,0,0,0-.11-.25.36.36,0,0,0-.26-.11h-2a.36.36,0,0,0-.26.11.34.34,0,0,0-.11.25v1.9a.34.34,0,0,1-.1.26.35.35,0,0,1-.26.11.36.36,0,0,1-.26-.11.34.34,0,0,1-.1-.26V48a.36.36,0,0,1,.1-.27.35.35,0,0,1,.26-.1.34.34,0,0,1,.26.1.36.36,0,0,1,.1.27v1.51a.35.35,0,0,0,.11.26.36.36,0,0,0,.26.11h2a.36.36,0,0,0,.26-.11.35.35,0,0,0,.11-.26V48a.41.41,0,0,1,.1-.27.36.36,0,0,1,.27-.1.33.33,0,0,1,.25.1A.37.37,0,0,1,209.67,48Z"/><path class="cls-2" d="M213.85,47.57a2.76,2.76,0,0,1,1.12.22,2.87,2.87,0,0,1,.92.62,2.79,2.79,0,0,1,.63.92,2.41,2.41,0,0,1,.16.54,2.65,2.65,0,0,1,.06.58,3.1,3.1,0,0,1-.22,1.12,3.08,3.08,0,0,1-.63.91,2.71,2.71,0,0,1-.92.62,2.77,2.77,0,0,1-1.12.23,2.8,2.8,0,0,1-1.12-.23,3,3,0,0,1-1.53-1.53,2.8,2.8,0,0,1-.23-1.12,2.9,2.9,0,0,1,.85-2,3,3,0,0,1,.91-.62A2.8,2.8,0,0,1,213.85,47.57Zm0,5a2,2,0,0,0,.83-.17,2.31,2.31,0,0,0,.66-.44,2.47,2.47,0,0,0,.46-.68,2,2,0,0,0,.16-.81,2.08,2.08,0,0,0-.16-.83,2.11,2.11,0,0,0-.46-.66,2.09,2.09,0,0,0-1.49-.62,1.92,1.92,0,0,0-.81.17,2,2,0,0,0-.68.45,2.31,2.31,0,0,0-.44.66,1.93,1.93,0,0,0-.17.83,1.84,1.84,0,0,0,.17.81A1.93,1.93,0,0,0,213,52.38,1.78,1.78,0,0,0,213.85,52.55Z"/><path class="cls-2" d="M219.79,47.65a1.72,1.72,0,0,1,.68.13,1.7,1.7,0,0,1,.55.38,1.27,1.27,0,0,1,.21.25,2.14,2.14,0,0,1,.17.3,1.72,1.72,0,0,1,.13.68,1.79,1.79,0,0,1-.13.68,2.14,2.14,0,0,1-.17.3,1.64,1.64,0,0,1-.21.25,1.85,1.85,0,0,1-.55.38,1.72,1.72,0,0,1-.68.14H219a.2.2,0,0,0-.15.06.16.16,0,0,0-.07.14v1.54a.34.34,0,0,1-.1.26.36.36,0,0,1-.52,0,.35.35,0,0,1-.11-.26V48a.38.38,0,0,1,.12-.28.41.41,0,0,1,.28-.11h1.35Zm0,2.76a1.34,1.34,0,0,0,.39-.07,1.29,1.29,0,0,0,.32-.22,1,1,0,0,0,.22-.33.94.94,0,0,0,.08-.39,1,1,0,0,0-.08-.4.7.7,0,0,0-.09-.17,1.39,1.39,0,0,0-.28-.28.56.56,0,0,0-.17-.09.85.85,0,0,0-.39-.08H219a.2.2,0,0,0-.15.06.17.17,0,0,0-.07.14V50.2a.18.18,0,0,0,.07.15.2.2,0,0,0,.15.06Z"/><path class="cls-2" d="M23.55,47.65a1.72,1.72,0,0,1,.68.13,1.7,1.7,0,0,1,.55.38,1.27,1.27,0,0,1,.21.25,1.46,1.46,0,0,1,.17.3,1.72,1.72,0,0,1,.13.68,1.79,1.79,0,0,1-.13.68,1.46,1.46,0,0,1-.17.3,1.64,1.64,0,0,1-.21.25,1.85,1.85,0,0,1-.55.38,1.72,1.72,0,0,1-.68.14h-.8a.2.2,0,0,0-.15.06.19.19,0,0,0-.07.14v1.54a.34.34,0,0,1-.1.26.35.35,0,0,1-.26.11.36.36,0,0,1-.26-.11.34.34,0,0,1-.1-.26V48a.37.37,0,0,1,.11-.28.41.41,0,0,1,.28-.11h1.35Zm0,2.76a1.34,1.34,0,0,0,.39-.07,1.13,1.13,0,0,0,.32-.22,1.23,1.23,0,0,0,.23-.33,1.13,1.13,0,0,0,.08-.39,1.19,1.19,0,0,0-.08-.4l-.1-.17a1.39,1.39,0,0,0-.28-.28.56.56,0,0,0-.17-.09.85.85,0,0,0-.39-.08h-.8a.2.2,0,0,0-.15.06.21.21,0,0,0-.07.14V50.2a.21.21,0,0,0,.07.15.2.2,0,0,0,.15.06Z"/><path class="cls-2" d="M30.18,49.39a1.79,1.79,0,0,1-.29,1,1.92,1.92,0,0,1-.6.54.23.23,0,0,0-.1.12.16.16,0,0,0,0,.15l.7,1.51a.33.33,0,0,1,0,.19.48.48,0,0,1-.06.18.38.38,0,0,1-.14.14.41.41,0,0,1-.19,0,.37.37,0,0,1-.21-.06A.35.35,0,0,1,29.2,53l-.83-1.76a.2.2,0,0,0-.19-.12h-.55a.2.2,0,0,0-.15.06.18.18,0,0,0-.06.14v1.54a.36.36,0,0,1-.35.37.38.38,0,0,1-.38-.38V48a.38.38,0,0,1,.12-.28.41.41,0,0,1,.28-.11h1.35a1.75,1.75,0,0,1,.68.13,1.81,1.81,0,0,1,.55.38,1.27,1.27,0,0,1,.21.25,2.14,2.14,0,0,1,.17.3A1.72,1.72,0,0,1,30.18,49.39Zm-2.76.8a.2.2,0,0,0,.06.15.18.18,0,0,0,.15.07h.81l.2,0,.19-.06a1.66,1.66,0,0,0,.32-.22.83.83,0,0,0,.22-.33,1,1,0,0,0,0-.78.56.56,0,0,0-.09-.17.64.64,0,0,0-.13-.15,1.14,1.14,0,0,0-.32-.22.7.7,0,0,0-.19-.06.68.68,0,0,0-.2,0h-.81a.2.2,0,0,0-.15.06.18.18,0,0,0-.06.14Z"/><path class="cls-2" d="M34.05,47.57a2.76,2.76,0,0,1,1.12.22,2.87,2.87,0,0,1,.92.62,2.79,2.79,0,0,1,.63.92,3.09,3.09,0,0,1,.17.54,3.48,3.48,0,0,1,0,.58,3.68,3.68,0,0,1,0,.58,3.74,3.74,0,0,1-.17.54,2.91,2.91,0,0,1-.63.91,2.62,2.62,0,0,1-.92.62,2.77,2.77,0,0,1-1.12.23,2.8,2.8,0,0,1-1.12-.23,2.73,2.73,0,0,1-.91-.62,2.88,2.88,0,0,1-.62-.91,2.8,2.8,0,0,1-.23-1.12,2.77,2.77,0,0,1,.23-1.12,2.93,2.93,0,0,1,.62-.92,3,3,0,0,1,.91-.62A2.8,2.8,0,0,1,34.05,47.57Zm0,5a2,2,0,0,0,.83-.17,2.18,2.18,0,0,0,.66-.44,2.27,2.27,0,0,0,.46-.68,2,2,0,0,0,.17-.81,2.09,2.09,0,0,0-.17-.83,2,2,0,0,0-.46-.66,2,2,0,0,0-.66-.45,2.16,2.16,0,0,0-.83-.17,2,2,0,0,0-.81.17,1.89,1.89,0,0,0-.67.45,2.15,2.15,0,0,0-.45.66,2.09,2.09,0,0,0-.17.83,2,2,0,0,0,.17.81,2,2,0,0,0,1.12,1.12A1.81,1.81,0,0,0,34.05,52.55Z"/><path class="cls-2" d="M42.3,52.15a.29.29,0,0,1,.15.14.32.32,0,0,1,.06.18.4.4,0,0,1,0,.19.48.48,0,0,1-.13.16l-.23.14-.24.13a2.83,2.83,0,0,1-1.16.24,2.77,2.77,0,0,1-1.12-.23,2.63,2.63,0,0,1-.91-.62,2.75,2.75,0,0,1-.63-.91,2.8,2.8,0,0,1-.22-1.12,2.76,2.76,0,0,1,.22-1.12,2.79,2.79,0,0,1,.63-.92,2.88,2.88,0,0,1,.91-.62,3,3,0,0,1,2.36.05,2.93,2.93,0,0,1,.56.35.36.36,0,0,1,.11.16.29.29,0,0,1,0,.18.37.37,0,0,1-.21.31.32.32,0,0,1-.21,0,.3.3,0,0,1-.2-.08,2.25,2.25,0,0,0-.49-.29,2.09,2.09,0,0,0-1.65,0,2,2,0,0,0-.67.45,2.15,2.15,0,0,0-.45.66,2.09,2.09,0,0,0-.17.83,2,2,0,0,0,.17.81,2.37,2.37,0,0,0,.45.68,2.51,2.51,0,0,0,.67.44,1.91,1.91,0,0,0,.82.17,2.1,2.1,0,0,0,.74-.13l.23-.12a1.55,1.55,0,0,0,.22-.12A.35.35,0,0,1,42.3,52.15Z"/><path class="cls-2" d="M47.41,49.39a1.71,1.71,0,0,1-.29,1,1.92,1.92,0,0,1-.6.54.23.23,0,0,0-.1.12.2.2,0,0,0,0,.15l.7,1.51a.33.33,0,0,1,0,.19.28.28,0,0,1-.06.18.38.38,0,0,1-.14.14.41.41,0,0,1-.19,0,.42.42,0,0,1-.21-.06.35.35,0,0,1-.15-.17l-.83-1.76a.2.2,0,0,0-.19-.12h-.55a.2.2,0,0,0-.15.06.18.18,0,0,0-.06.14v1.54a.36.36,0,0,1-.35.37.4.4,0,0,1-.27-.11.36.36,0,0,1-.1-.27V48a.37.37,0,0,1,.11-.28.41.41,0,0,1,.28-.11h1.35a1.72,1.72,0,0,1,.68.13,1.7,1.7,0,0,1,.55.38,1.27,1.27,0,0,1,.21.25,1.46,1.46,0,0,1,.17.3A1.72,1.72,0,0,1,47.41,49.39Zm-2.76.8a.2.2,0,0,0,.06.15.18.18,0,0,0,.15.07h.81l.2,0,.19-.06a1.66,1.66,0,0,0,.32-.22,1,1,0,0,0,.23-.33,1,1,0,0,0,0-.78,1,1,0,0,0-.1-.17.64.64,0,0,0-.13-.15,1,1,0,0,0-.32-.22.7.7,0,0,0-.19-.06.65.65,0,0,0-.2,0h-.81a.2.2,0,0,0-.15.06.18.18,0,0,0-.06.14Z"/><path class="cls-2" d="M49.6,48.82v.66a.38.38,0,0,0,.39.39h1.23a.38.38,0,0,1,.28.12.39.39,0,0,1,.11.27.41.41,0,0,1-.11.28.38.38,0,0,1-.28.12H50a.37.37,0,0,0-.28.11.41.41,0,0,0-.11.28v1a.38.38,0,0,0,.39.39h1.23a.38.38,0,0,1,.28.12.41.41,0,0,1,.11.28.4.4,0,0,1-.11.27.38.38,0,0,1-.28.12h-2a.38.38,0,0,1-.28-.12.37.37,0,0,1-.12-.27V48a.38.38,0,0,1,.12-.28.41.41,0,0,1,.28-.11h2a.39.39,0,1,1,0,.78H50a.38.38,0,0,0-.28.12A.39.39,0,0,0,49.6,48.82Z"/><path class="cls-2" d="M57.47,53.25h0a.42.42,0,0,1-.21-.06A.35.35,0,0,1,57.1,53l-.61-1.32a.37.37,0,0,0-.36-.23H53.92a.37.37,0,0,0-.21.06.35.35,0,0,0-.15.17L52.93,53a.36.36,0,0,1-.35.23.38.38,0,0,1-.19,0,.58.58,0,0,1-.14-.13.48.48,0,0,1-.06-.18.41.41,0,0,1,0-.19l2.26-4.91a.36.36,0,0,1,.36-.22h.35a.42.42,0,0,1,.21.06.33.33,0,0,1,.15.16l2.26,4.91a.31.31,0,0,1,0,.19.36.36,0,0,1-.07.18.53.53,0,0,1-.13.13A.41.41,0,0,1,57.47,53.25Zm-2.83-2.56h.77a.35.35,0,0,0,.18,0,.58.58,0,0,0,.14-.13.35.35,0,0,0,.06-.18.31.31,0,0,0,0-.19l-.39-.83a.39.39,0,0,0-.14-.17.47.47,0,0,0-.42,0,.5.5,0,0,0-.15.17l-.37.83a.26.26,0,0,0,0,.19.48.48,0,0,0,.06.18.53.53,0,0,0,.13.13A.42.42,0,0,0,54.64,50.69Z"/><path class="cls-2" d="M62.89,48a.33.33,0,0,1-.1.25.38.38,0,0,1-.26.11h-1.4a.33.33,0,0,0-.25.1.38.38,0,0,0-.11.26v4.14a.34.34,0,0,1-.1.26.38.38,0,0,1-.26.11.35.35,0,0,1-.26-.11.34.34,0,0,1-.1-.26V48.74a.38.38,0,0,0-.11-.26.35.35,0,0,0-.26-.1H58.4a.36.36,0,0,1-.26-.11A.33.33,0,0,1,58,48a.36.36,0,0,1,.1-.27.35.35,0,0,1,.26-.1h4.13a.37.37,0,0,1,.26.1A.36.36,0,0,1,62.89,48Z"/><path class="cls-2" d="M64.64,48.82v.66a.38.38,0,0,0,.39.39h1.23a.38.38,0,0,1,.28.12.39.39,0,0,1,.11.27.41.41,0,0,1-.11.28.38.38,0,0,1-.28.12H65a.37.37,0,0,0-.28.11.41.41,0,0,0-.11.28v1a.38.38,0,0,0,.39.39h1.23a.38.38,0,0,1,.28.12.41.41,0,0,1,.11.28.4.4,0,0,1-.11.27.38.38,0,0,1-.28.12h-2a.38.38,0,0,1-.28-.12.37.37,0,0,1-.12-.27V48a.38.38,0,0,1,.12-.28.41.41,0,0,1,.28-.11h2a.39.39,0,1,1,0,.78H65a.38.38,0,0,0-.28.12A.39.39,0,0,0,64.64,48.82Z"/><path class="cls-2" d="M191.08,94a.35.35,0,0,1-.1.26.36.36,0,0,1-.27.1h-2.06a.33.33,0,0,1-.26-.1.36.36,0,0,1,0-.52.33.33,0,0,1,.26-.1h.3a.36.36,0,0,0,.26-.11.35.35,0,0,0,.1-.26V89.81a.35.35,0,0,0-.1-.26.36.36,0,0,0-.26-.11h-.31a.34.34,0,0,1-.26-.1.36.36,0,0,1,0-.52.35.35,0,0,1,.26-.11h2.07a.36.36,0,0,1,.26.11.36.36,0,0,1-.26.62h-.31a.33.33,0,0,0-.25.11.36.36,0,0,0-.11.26v3.41a.36.36,0,0,0,.11.26.33.33,0,0,0,.25.11h.31a.36.36,0,0,1,.27.1A.35.35,0,0,1,191.08,94Z"/><path class="cls-2" d="M196.74,89.11V94a.33.33,0,0,1-.11.27.34.34,0,0,1-.26.1h-.22a.34.34,0,0,1-.18,0,.44.44,0,0,1-.14-.13l-1.58-2.75a.35.35,0,0,0-.19-.17.39.39,0,0,0-.24,0,.59.59,0,0,0-.19.13.32.32,0,0,0-.08.23v2.29a.33.33,0,0,1-.11.27.35.35,0,0,1-.26.1.39.39,0,0,1-.28-.1.41.41,0,0,1-.1-.27V89a.38.38,0,0,1,.38-.38h.17a.35.35,0,0,1,.31.19l1.58,2.74a.35.35,0,0,0,.19.17.46.46,0,0,0,.23,0,.44.44,0,0,0,.2-.13.36.36,0,0,0,.08-.24V89.11a.39.39,0,0,1,.12-.28.38.38,0,0,1,.29-.12.39.39,0,0,1,.28.12A.38.38,0,0,1,196.74,89.11Z"/><path class="cls-2" d="M200.58,88.71a2.63,2.63,0,0,1,1.09.23,2.77,2.77,0,0,1,.48.26,2.74,2.74,0,0,1,.41.34,2.59,2.59,0,0,1,.6.89,2.63,2.63,0,0,1,.23,1.09,2.66,2.66,0,0,1-.23,1.09,2.69,2.69,0,0,1-.6.89,2.25,2.25,0,0,1-.41.34,3.67,3.67,0,0,1-.48.26,2.86,2.86,0,0,1-1.09.21h-1a1.17,1.17,0,0,1-.45-.09,1.05,1.05,0,0,1-.37-.25,1,1,0,0,1-.25-.37,1.13,1.13,0,0,1-.09-.45V89.88a1.13,1.13,0,0,1,.09-.45,1.09,1.09,0,0,1,.25-.38,1.27,1.27,0,0,1,.82-.34Zm.08,4.84h.11a2.06,2.06,0,0,0,.91-.35,2,2,0,0,0,.68-.75,2.07,2.07,0,0,0,.17-.45,2,2,0,0,0,.06-.48,2.05,2.05,0,0,0-.06-.49,1.92,1.92,0,0,0-.17-.44,2,2,0,0,0-.68-.76,1.71,1.71,0,0,0-.94-.34h-.35a1.13,1.13,0,0,0-.45.09,1.27,1.27,0,0,0-.37.25,1.15,1.15,0,0,0-.25.37,1.13,1.13,0,0,0-.09.45v1.75a1.13,1.13,0,0,0,.09.45,1.15,1.15,0,0,0,.25.37,1.08,1.08,0,0,0,.37.24,1,1,0,0,0,.45.1Z"/><path class="cls-2" d="M205.48,89.89v.66a.41.41,0,0,0,.39.39h1.24a.4.4,0,0,1,.27.11.39.39,0,0,1,0,.56.4.4,0,0,1-.27.11h-1.24a.36.36,0,0,0-.27.12.37.37,0,0,0-.12.27v1a.34.34,0,0,0,.12.27.36.36,0,0,0,.27.12h1.24a.37.37,0,0,1,.27.12.36.36,0,0,1,.12.27.38.38,0,0,1-.12.28.36.36,0,0,1-.27.11h-2a.37.37,0,0,1-.28-.11.41.41,0,0,1-.11-.28V89.11a.41.41,0,0,1,.11-.28.38.38,0,0,1,.28-.12h2a.37.37,0,0,1,.27.12.38.38,0,0,1,.12.28.36.36,0,0,1-.12.27.37.37,0,0,1-.27.12h-1.24a.39.39,0,0,0-.27.11A.38.38,0,0,0,205.48,89.89Z"/><path class="cls-2" d="M211.64,92.07a1.44,1.44,0,0,1,.18.71,1.61,1.61,0,0,1-.13.63,1.59,1.59,0,0,1-.37.5,1.16,1.16,0,0,1-.25.2,1.32,1.32,0,0,1-.29.15,2.18,2.18,0,0,1-.39.1l-.44,0h-.22l-.25,0-.25-.06-.21-.07h0l0,0-.07,0-.08-.06,0,0a.34.34,0,0,1-.1-.13.35.35,0,0,1,0-.34.53.53,0,0,1,.14-.12h0a.6.6,0,0,1,.2,0,.41.41,0,0,1,.17,0s0,0,0,0h0a.55.55,0,0,0,.15.08l.2.07a1.27,1.27,0,0,0,.32,0l.27,0a1.58,1.58,0,0,0,.28-.08l.16-.08a.45.45,0,0,0,.13-.11.7.7,0,0,0,.21-.29.89.89,0,0,0,.07-.34.94.94,0,0,0-.07-.34l-.09-.16a1.42,1.42,0,0,0-.12-.13.8.8,0,0,0-.17-.15l-.06,0-.07,0a.86.86,0,0,0-.36-.07,1.51,1.51,0,0,1-.44-.06h-.06l-.06,0a1,1,0,0,1-.21-.1h0a1,1,0,0,1-.24-.15l-.07-.06-.06-.06a1,1,0,0,1-.17-.19,1,1,0,0,1-.15-.24,1.58,1.58,0,0,1,.32-1.85l.25-.2.28-.14a1.63,1.63,0,0,1,.41-.1,3.82,3.82,0,0,1,.43,0l.22,0a1.9,1.9,0,0,1,.25,0l.25.06a1,1,0,0,1,.21.07l0,0h0l0,0,0,0,.07,0,0,0a.18.18,0,0,1,.09.12.38.38,0,0,1,0,.17.34.34,0,0,1-.06.16.29.29,0,0,1-.14.13h0a.35.35,0,0,1-.19,0,.3.3,0,0,1-.18,0l0,0h0l-.14-.07-.21-.07-.14,0h-.19l-.26,0a1.25,1.25,0,0,0-.27.08l-.17.09-.14.1a1.34,1.34,0,0,0-.11.14,1,1,0,0,0-.09.15.91.91,0,0,0-.07.35,1,1,0,0,0,.07.34,1.34,1.34,0,0,0,.2.29.8.8,0,0,0,.19.13.35.35,0,0,0,.12.07.87.87,0,0,0,.37.07,1.71,1.71,0,0,1,.43.06l.12,0,.22.09,0,0h0l.24.13a.19.19,0,0,0,.07.06l.06.07A1.66,1.66,0,0,1,211.64,92.07Z"/><path class="cls-2" d="M215.33,94a.4.4,0,0,1-.1.26.36.36,0,0,1-.27.1H212.9a.36.36,0,0,1-.27-.1.39.39,0,0,1,0-.52.36.36,0,0,1,.27-.1h.3a.36.36,0,0,0,.26-.11.35.35,0,0,0,.1-.26V89.81a.35.35,0,0,0-.1-.26.36.36,0,0,0-.26-.11h-.31a.36.36,0,0,1-.27-.1.39.39,0,0,1,0-.52.37.37,0,0,1,.27-.11H215a.37.37,0,0,1,.27.11.39.39,0,0,1,0,.52.36.36,0,0,1-.27.1h-.3a.36.36,0,0,0-.26.11.35.35,0,0,0-.1.26v3.41a.35.35,0,0,0,.1.26.36.36,0,0,0,.26.11H215a.36.36,0,0,1,.27.1A.4.4,0,0,1,215.33,94Z"/><path class="cls-2" d="M222,91.76a.39.39,0,0,1,.17.14.54.54,0,0,1,.1.2.45.45,0,0,1,0,.23,2.75,2.75,0,0,1-.17.45,2.52,2.52,0,0,1-.63.85,2.9,2.9,0,0,1-.91.56,2.8,2.8,0,0,1-1.1.2,2.72,2.72,0,0,1-1.11-.22,2.79,2.79,0,0,1-1.48-1.54,3,3,0,0,1-.21-1.12,2.74,2.74,0,0,1,.23-1.12,2.53,2.53,0,0,1,.9-1.16,3.28,3.28,0,0,1,.31-.2h0a2.92,2.92,0,0,1,1-.36,2.7,2.7,0,0,1,.94,0l.36.09a2,2,0,0,1,.34.14l.33.18a2.86,2.86,0,0,1,.3.22,2.64,2.64,0,0,1,.37.38.34.34,0,0,1,.08.32.32.32,0,0,1-.19.26.36.36,0,0,1-.27,0,.4.4,0,0,1-.22-.14l-.07-.08L221,90h0a.93.93,0,0,0-.14-.14l-.16-.12h0a2.11,2.11,0,0,0-.3-.16l-.33-.12H220a2.3,2.3,0,0,0-.45,0,2.08,2.08,0,0,0-.82.17,2,2,0,0,0-.66.45,1.8,1.8,0,0,0-.45.66,2.08,2.08,0,0,0-.17.82,2.18,2.18,0,0,0,.15.82A2.14,2.14,0,0,0,218,93a2.18,2.18,0,0,0,.64.45,1.91,1.91,0,0,0,.8.17,2.47,2.47,0,0,0,.63-.08l.29-.1a1.26,1.26,0,0,0,.26-.13,1.46,1.46,0,0,0,.24-.17,2.09,2.09,0,0,0,.22-.2.33.33,0,0,0,.07-.16.33.33,0,0,0,0-.17.32.32,0,0,0-.11-.12.25.25,0,0,0-.17-.06h-1a.33.33,0,0,1-.25-.1.36.36,0,0,1,0-.52.33.33,0,0,1,.25-.1h1.95A.42.42,0,0,1,222,91.76Z"/><path class="cls-2" d="M227.6,89.11V94a.37.37,0,0,1-.11.27.36.36,0,0,1-.27.1H227a.39.39,0,0,1-.18,0,.4.4,0,0,1-.13-.13l-1.58-2.75a.38.38,0,0,0-.43-.18.5.5,0,0,0-.19.13.32.32,0,0,0-.08.23v2.29a.37.37,0,0,1-.11.27.37.37,0,0,1-.64-.27V89a.34.34,0,0,1,.1-.26.37.37,0,0,1,.27-.12h.17a.34.34,0,0,1,.31.19l1.59,2.74a.36.36,0,0,0,.18.17.47.47,0,0,0,.23,0,.39.39,0,0,0,.2-.13.32.32,0,0,0,.08-.24V89.11a.39.39,0,0,1,.12-.28.4.4,0,0,1,.29-.12.38.38,0,0,1,.28.12A.39.39,0,0,1,227.6,89.11Z"/><path class="cls-2" d="M17.21,94.39a.66.66,0,0,1-.37-.1.76.76,0,0,1-.26-.3l-2.19-4.71a.45.45,0,0,1,0-.2.36.36,0,0,1,.07-.18.4.4,0,0,1,.13-.13.34.34,0,0,1,.2-.06.37.37,0,0,1,.36.24l1.74,3.72a.45.45,0,0,0,.15.18.4.4,0,0,0,.42,0,.38.38,0,0,0,.15-.18L19.31,89a.34.34,0,0,1,.15-.18.37.37,0,0,1,.21-.06h0a.36.36,0,0,1,.2.06.44.44,0,0,1,.14.13.48.48,0,0,1,.06.18.45.45,0,0,1,0,.2L17.85,94a.76.76,0,0,1-.26.3A.7.7,0,0,1,17.21,94.39Z"/><path class="cls-2" d="M24.67,92.07a1.44,1.44,0,0,1,.18.71,1.61,1.61,0,0,1-.13.63,1.59,1.59,0,0,1-.37.5,1.16,1.16,0,0,1-.25.2,1.59,1.59,0,0,1-.29.15,2.1,2.1,0,0,1-.4.1l-.43,0h-.23l-.24,0-.25-.06a1,1,0,0,1-.21-.07h0l0,0-.07,0-.08-.06,0,0a.34.34,0,0,1-.1-.13.35.35,0,0,1,0-.34.53.53,0,0,1,.14-.12h0a.6.6,0,0,1,.2,0,.41.41,0,0,1,.17,0l0,0h0l.16.08.2.07a1.17,1.17,0,0,0,.32,0l.27,0a1.58,1.58,0,0,0,.28-.08l.16-.08a.45.45,0,0,0,.13-.11.61.61,0,0,0,.2-.29.74.74,0,0,0,.08-.34.77.77,0,0,0-.08-.34.8.8,0,0,0-.08-.16,1.42,1.42,0,0,0-.12-.13,1.14,1.14,0,0,0-.17-.15l-.06,0-.07,0a.86.86,0,0,0-.36-.07,1.51,1.51,0,0,1-.44-.06h-.06l-.06,0-.22-.1h0a1.14,1.14,0,0,1-.23-.15L22,91.45a.33.33,0,0,1-.06-.06,1.66,1.66,0,0,1-.18-.19,1.38,1.38,0,0,1-.14-.24A1.58,1.58,0,0,1,22,89.11l.24-.2.29-.14a1.63,1.63,0,0,1,.41-.1,3.88,3.88,0,0,1,.42,0l.23,0,.25,0,.24.06a1.14,1.14,0,0,1,.22.07l0,0h0l0,0,0,0,.07,0,0,0a.18.18,0,0,1,.09.12.38.38,0,0,1,0,.17.34.34,0,0,1-.06.16.29.29,0,0,1-.14.13h0a.35.35,0,0,1-.19,0,.3.3,0,0,1-.18,0l-.05,0h0l-.15-.07-.2-.07-.14,0h-.19l-.26,0a1.25,1.25,0,0,0-.27.08l-.17.09a.71.71,0,0,0-.14.1,1.34,1.34,0,0,0-.11.14,1,1,0,0,0-.09.15.75.75,0,0,0-.07.35.83.83,0,0,0,.07.34,1.34,1.34,0,0,0,.2.29.8.8,0,0,0,.19.13.35.35,0,0,0,.12.07.86.86,0,0,0,.36.07,1.72,1.72,0,0,1,.44.06l.12,0,.22.09s0,0,0,0h0a1.57,1.57,0,0,1,.23.13.21.21,0,0,0,.08.06l.06.07A1.92,1.92,0,0,1,24.67,92.07Z"/><path class="cls-2" d="M31.86,93.22a.32.32,0,0,1,.15.13.33.33,0,0,1,.06.19.42.42,0,0,1,0,.19.37.37,0,0,1-.13.15l-.23.15-.24.12a2.87,2.87,0,0,1-1.16.24,2.76,2.76,0,0,1-1.12-.22,2.93,2.93,0,0,1-.92-.62,2.82,2.82,0,0,1-.62-.92,2.76,2.76,0,0,1-.22-1.12,2.8,2.8,0,0,1,.22-1.12,3.17,3.17,0,0,1,.62-.92,3,3,0,0,1,.92-.61,2.86,2.86,0,0,1,2.36,0,2.5,2.5,0,0,1,.56.35.33.33,0,0,1,.11.15.33.33,0,0,1,0,.19.27.27,0,0,1-.06.17.34.34,0,0,1-.15.14.39.39,0,0,1-.21,0,.44.44,0,0,1-.2-.08,1.91,1.91,0,0,0-.49-.29,2.09,2.09,0,0,0-1.65,0,2,2,0,0,0-.67.45,1.93,1.93,0,0,0-.45.66,2.06,2.06,0,0,0,0,1.64,2.19,2.19,0,0,0,.45.67,2.32,2.32,0,0,0,.67.45,2.08,2.08,0,0,0,.82.17,2.11,2.11,0,0,0,.74-.14l.23-.11.22-.13A.37.37,0,0,1,31.86,93.22Z"/><path class="cls-2" d="M36,88.63a2.8,2.8,0,0,1,1.12.23,3.08,3.08,0,0,1,.92.61,3.17,3.17,0,0,1,.62.92,2.85,2.85,0,0,1,.23,1.12,2.65,2.65,0,0,1-.06.58,2.43,2.43,0,0,1-.17.54,2.82,2.82,0,0,1-.62.92,2.71,2.71,0,0,1-.92.62,2.8,2.8,0,0,1-1.12.22,2.79,2.79,0,0,1-2-.84,2.69,2.69,0,0,1-.63-.92,2.76,2.76,0,0,1-.22-1.12,2.8,2.8,0,0,1,.22-1.12,3,3,0,0,1,.63-.92,2.85,2.85,0,0,1,.91-.61A2.77,2.77,0,0,1,36,88.63Zm0,5a2.15,2.15,0,0,0,.82-.17,1.93,1.93,0,0,0,.66-.45,2,2,0,0,0,.46-.67,2.06,2.06,0,0,0,0-1.64,1.83,1.83,0,0,0-.46-.66,1.8,1.8,0,0,0-.66-.45,2.15,2.15,0,0,0-.82-.17,2,2,0,0,0-.82.17,2,2,0,0,0-.67.45,1.93,1.93,0,0,0-.45.66,2.06,2.06,0,0,0,0,1.64,2.19,2.19,0,0,0,.45.67,2.32,2.32,0,0,0,.67.45A2,2,0,0,0,36,93.62Z"/><path class="cls-2" d="M42.28,88.71a2.66,2.66,0,0,1,1.09.23,2.77,2.77,0,0,1,.48.26,3.26,3.26,0,0,1,.4.34,2.59,2.59,0,0,1,.6.89,2.63,2.63,0,0,1,.23,1.09,2.66,2.66,0,0,1-.23,1.09,2.69,2.69,0,0,1-.6.89,2.57,2.57,0,0,1-.4.34,3.67,3.67,0,0,1-.48.26,2.9,2.9,0,0,1-1.09.21h-1a1.22,1.22,0,0,1-.46-.09,1.05,1.05,0,0,1-.37-.25,1.1,1.1,0,0,1-.25-.37,1.13,1.13,0,0,1-.09-.45V89.88a1.13,1.13,0,0,1,.09-.45,1.25,1.25,0,0,1,.25-.38,1.18,1.18,0,0,1,.37-.24,1.23,1.23,0,0,1,.46-.1Zm.07,4.84h.11a2,2,0,0,0,.91-.35,2,2,0,0,0,.68-.75,2.07,2.07,0,0,0,.17-.45,2,2,0,0,0,.07-.48,2.07,2.07,0,0,0-.07-.49,1.92,1.92,0,0,0-.17-.44,2,2,0,0,0-.68-.76,1.68,1.68,0,0,0-.94-.34h-.34a1.18,1.18,0,0,0-.46.09,1.41,1.41,0,0,0-.37.25,1.15,1.15,0,0,0-.25.37,1.13,1.13,0,0,0-.09.45v1.75a1.13,1.13,0,0,0,.09.45,1.15,1.15,0,0,0,.25.37,1.18,1.18,0,0,0,.37.24,1,1,0,0,0,.46.1Z"/><path class="cls-2" d="M47.17,89.89v.66a.36.36,0,0,0,.12.27.38.38,0,0,0,.28.12H48.8a.39.39,0,0,1,.27.11.39.39,0,0,1,0,.56.39.39,0,0,1-.27.11H47.57a.38.38,0,0,0-.28.12.37.37,0,0,0-.12.27v1a.34.34,0,0,0,.12.27.38.38,0,0,0,.28.12H48.8a.41.41,0,0,1,.39.39.38.38,0,0,1-.12.28.35.35,0,0,1-.27.11h-2a.33.33,0,0,1-.27-.11.38.38,0,0,1-.12-.28V89.11a.38.38,0,0,1,.12-.28.34.34,0,0,1,.27-.12h2a.36.36,0,0,1,.27.12.38.38,0,0,1,.12.28.41.41,0,0,1-.39.39H47.57a.41.41,0,0,0-.28.11A.38.38,0,0,0,47.17,89.89Z"/><path class="cls-2" d="M170.14,146.09h0a.43.43,0,0,1-.22-.06.36.36,0,0,1-.14-.16l-.62-1.33a.36.36,0,0,0-.35-.22h-2.22a.42.42,0,0,0-.21.06.39.39,0,0,0-.15.16l-.62,1.33a.36.36,0,0,1-.35.22.33.33,0,0,1-.2-.05.27.27,0,0,1-.13-.13.43.43,0,0,1-.06-.17.29.29,0,0,1,0-.2l2.26-4.9a.37.37,0,0,1,.35-.23h.35a.37.37,0,0,1,.21.06.35.35,0,0,1,.15.17l2.27,4.9a.35.35,0,0,1,0,.2.32.32,0,0,1-.06.17.35.35,0,0,1-.14.13A.29.29,0,0,1,170.14,146.09Zm-2.84-2.56h.77a.32.32,0,0,0,.19-.05.35.35,0,0,0,.14-.13.43.43,0,0,0,.06-.17.36.36,0,0,0,0-.2l-.38-.82a.31.31,0,0,0-.15-.17.39.39,0,0,0-.21-.06.36.36,0,0,0-.2.06.31.31,0,0,0-.15.17L167,143a.48.48,0,0,0,0,.2.33.33,0,0,0,.07.17.27.27,0,0,0,.13.13A.3.3,0,0,0,167.3,143.53Z"/><path class="cls-2" d="M172.24,141.67v.66a.36.36,0,0,0,.12.27.36.36,0,0,0,.28.12h1.22a.41.41,0,0,1,.28.11.39.39,0,0,1,0,.56.41.41,0,0,1-.28.11h-1.22a.36.36,0,0,0-.28.12.37.37,0,0,0-.12.27v1.81a.38.38,0,0,1-.12.28.35.35,0,0,1-.27.11.37.37,0,0,1-.28-.11.38.38,0,0,1-.12-.28v-4.81a.41.41,0,0,1,.4-.4h2a.41.41,0,0,1,.4.4.36.36,0,0,1-.12.27.38.38,0,0,1-.28.12h-1.22a.39.39,0,0,0-.28.11A.38.38,0,0,0,172.24,141.67Z"/><path class="cls-2" d="M179.53,140.86a.34.34,0,0,1-.36.36h-1.39a.35.35,0,0,0-.26.11.36.36,0,0,0-.11.26v4.14a.36.36,0,1,1-.72,0v-4.14a.38.38,0,0,0-.37-.37H175a.37.37,0,0,1-.26-.62.36.36,0,0,1,.26-.11h4.13a.36.36,0,0,1,.26.11A.35.35,0,0,1,179.53,140.86Z"/><path class="cls-2" d="M181.28,141.67v.66a.36.36,0,0,0,.12.27.34.34,0,0,0,.27.12h1.23a.41.41,0,0,1,.28.11.39.39,0,0,1,0,.56.41.41,0,0,1-.28.11h-1.23a.34.34,0,0,0-.27.12.37.37,0,0,0-.12.27v1a.41.41,0,0,0,.39.39h1.23a.38.38,0,0,1,.28.12.36.36,0,0,1,.12.27.38.38,0,0,1-.12.28.37.37,0,0,1-.28.11h-2a.37.37,0,0,1-.28-.11.38.38,0,0,1-.12-.28v-4.81a.41.41,0,0,1,.4-.4h2a.41.41,0,0,1,.4.4.36.36,0,0,1-.12.27.38.38,0,0,1-.28.12h-1.23a.37.37,0,0,0-.27.11A.38.38,0,0,0,181.28,141.67Z"/><path class="cls-2" d="M188.14,142.24a1.73,1.73,0,0,1-.29,1,2,2,0,0,1-.6.55.21.21,0,0,0-.1.11.18.18,0,0,0,0,.16l.7,1.5a.36.36,0,0,1,0,.2.38.38,0,0,1-.2.31.32.32,0,0,1-.19.05.37.37,0,0,1-.21-.06.33.33,0,0,1-.15-.16l-.83-1.77a.2.2,0,0,0-.19-.12h-.55a.21.21,0,0,0-.21.21v1.54a.35.35,0,0,1-.1.26.33.33,0,0,1-.25.1.36.36,0,0,1-.27-.1.39.39,0,0,1-.11-.27v-4.83a.41.41,0,0,1,.4-.4h1.35a1.72,1.72,0,0,1,.68.14,1.7,1.7,0,0,1,.55.38,1.27,1.27,0,0,1,.21.25,2.14,2.14,0,0,1,.17.3A1.72,1.72,0,0,1,188.14,142.24Zm-2.76.8a.21.21,0,0,0,.21.21h.81a.68.68,0,0,0,.2,0,.7.7,0,0,0,.19-.06,1.26,1.26,0,0,0,.32-.21,1,1,0,0,0,.22-.33,1,1,0,0,0,0-.78.76.76,0,0,0-.09-.18.86.86,0,0,0-.13-.14,1.44,1.44,0,0,0-.32-.23l-.19-.06-.2,0h-.81a.21.21,0,0,0-.21.21Z"/><path class="cls-2" d="M162.84,149.67v.66a.35.35,0,0,0,.11.27.38.38,0,0,0,.28.12h1.23a.39.39,0,1,1,0,.78h-1.23a.38.38,0,0,0-.28.12.36.36,0,0,0-.11.27v1a.33.33,0,0,0,.11.27.38.38,0,0,0,.28.12h1.23a.38.38,0,0,1,.28.12.39.39,0,0,1,.11.27.41.41,0,0,1-.11.28.37.37,0,0,1-.28.11h-2a.35.35,0,0,1-.27-.11.38.38,0,0,1-.12-.28v-4.81a.38.38,0,0,1,.12-.28.36.36,0,0,1,.27-.12h2a.38.38,0,0,1,.28.12.41.41,0,0,1,.11.28.39.39,0,0,1-.11.27.38.38,0,0,1-.28.12h-1.23a.41.41,0,0,0-.28.11A.37.37,0,0,0,162.84,149.67Z"/><path class="cls-2" d="M167,149.67v.66a.35.35,0,0,0,.11.27.38.38,0,0,0,.29.12h1.22a.39.39,0,1,1,0,.78H167.4a.38.38,0,0,0-.29.12.36.36,0,0,0-.11.27v1.81a.38.38,0,0,1-.12.28.37.37,0,0,1-.28.11.35.35,0,0,1-.27-.11.38.38,0,0,1-.12-.28v-4.81a.38.38,0,0,1,.12-.28.36.36,0,0,1,.27-.12h2a.38.38,0,0,1,.28.12.41.41,0,0,1,.11.28.39.39,0,0,1-.11.27.38.38,0,0,1-.28.12H167.4a.42.42,0,0,0-.29.11A.37.37,0,0,0,167,149.67Z"/><path class="cls-2" d="M171,149.67v.66a.36.36,0,0,0,.12.27.36.36,0,0,0,.28.12h1.23a.4.4,0,0,1,.27.11.39.39,0,0,1,0,.56.4.4,0,0,1-.27.11h-1.23a.36.36,0,0,0-.28.12.37.37,0,0,0-.12.27v1.81a.41.41,0,0,1-.11.28.41.41,0,0,1-.56,0,.41.41,0,0,1-.11-.28v-4.81a.41.41,0,0,1,.11-.28.38.38,0,0,1,.28-.12h2a.37.37,0,0,1,.27.12.38.38,0,0,1,.12.28.36.36,0,0,1-.12.27.37.37,0,0,1-.27.12h-1.23a.39.39,0,0,0-.28.11A.38.38,0,0,0,171,149.67Z"/><path class="cls-2" d="M175,149.67v.66a.39.39,0,0,0,.11.27.38.38,0,0,0,.28.12h1.23a.39.39,0,1,1,0,.78h-1.23a.38.38,0,0,0-.28.12.4.4,0,0,0-.11.27v1a.37.37,0,0,0,.11.27.38.38,0,0,0,.28.12h1.23a.38.38,0,0,1,.28.12.39.39,0,0,1,.11.27.41.41,0,0,1-.11.28.37.37,0,0,1-.28.11h-2a.37.37,0,0,1-.28-.11.38.38,0,0,1-.12-.28v-4.81a.41.41,0,0,1,.4-.4h2a.38.38,0,0,1,.28.12.41.41,0,0,1,.11.28.39.39,0,0,1-.11.27.38.38,0,0,1-.28.12h-1.23a.38.38,0,0,0-.39.39Z"/><path class="cls-2" d="M182.38,153a.47.47,0,0,1,.15.13.33.33,0,0,1,.06.19.63.63,0,0,1,0,.19.37.37,0,0,1-.13.15l-.23.15-.24.12a2.87,2.87,0,0,1-1.16.24,2.76,2.76,0,0,1-1.12-.22,2.9,2.9,0,0,1-1.54-1.54,2.76,2.76,0,0,1-.22-1.12,2.8,2.8,0,0,1,.22-1.12,3.17,3.17,0,0,1,.62-.92,2.9,2.9,0,0,1,.92-.61,2.84,2.84,0,0,1,2.35.05,2.57,2.57,0,0,1,.57.35.33.33,0,0,1,.11.15.44.44,0,0,1,0,.19.49.49,0,0,1-.06.17.41.41,0,0,1-.15.14.39.39,0,0,1-.21,0,.49.49,0,0,1-.21-.08,1.71,1.71,0,0,0-.48-.29,2.12,2.12,0,0,0-.83-.17,2.08,2.08,0,0,0-.82.17,1.89,1.89,0,0,0-.67.45,1.93,1.93,0,0,0-.45.66,2.06,2.06,0,0,0,0,1.64,2.09,2.09,0,0,0,1.12,1.12,2.08,2.08,0,0,0,.82.17,2.11,2.11,0,0,0,.74-.14l.23-.11L182,153A.37.37,0,0,1,182.38,153Z"/><path class="cls-2" d="M188.11,148.86a.36.36,0,0,1-.11.26.35.35,0,0,1-.26.1h-1.39a.36.36,0,0,0-.26.11.35.35,0,0,0-.1.26v4.14a.36.36,0,0,1-.11.26.36.36,0,0,1-.62-.26v-4.14a.38.38,0,0,0-.37-.37h-1.28a.32.32,0,0,1-.25-.1.36.36,0,0,1,0-.52.33.33,0,0,1,.25-.11h4.13a.38.38,0,0,1,.37.37Z"/><path class="cls-2" d="M191.85,151.85a1.44,1.44,0,0,1,.18.71,1.61,1.61,0,0,1-.13.63,1.59,1.59,0,0,1-.37.5,1.16,1.16,0,0,1-.25.2,1.32,1.32,0,0,1-.29.15,2.18,2.18,0,0,1-.39.1l-.44,0h-.22l-.25,0-.25-.06-.21-.07h0l0,0-.07,0-.08-.06,0,0a.34.34,0,0,1-.1-.13.35.35,0,0,1,0-.34.53.53,0,0,1,.14-.12h0a.6.6,0,0,1,.2,0,.41.41,0,0,1,.17,0l0,0h0a.55.55,0,0,0,.15.08l.2.07a1.27,1.27,0,0,0,.32,0l.27,0a1.58,1.58,0,0,0,.28-.08l.16-.08a.45.45,0,0,0,.13-.11.61.61,0,0,0,.2-.29.74.74,0,0,0,.08-.34.77.77,0,0,0-.08-.34.8.8,0,0,0-.08-.16,1.42,1.42,0,0,0-.12-.13.8.8,0,0,0-.17-.15l-.06,0-.07,0a.86.86,0,0,0-.36-.07,1.51,1.51,0,0,1-.44-.06h-.06l-.06,0a1,1,0,0,1-.21-.1h0a1,1,0,0,1-.24-.15l-.07-.06a.33.33,0,0,1-.06-.06A1,1,0,0,1,189,151a1,1,0,0,1-.15-.24,1.58,1.58,0,0,1,.32-1.85l.25-.2a1.83,1.83,0,0,1,.28-.14,1.63,1.63,0,0,1,.41-.1,3.82,3.82,0,0,1,.43,0l.22,0a1.9,1.9,0,0,1,.25,0l.25.06.21.07,0,0h0l0,0,0,0,.07.05,0,0a.18.18,0,0,1,.09.12.38.38,0,0,1,0,.17.34.34,0,0,1-.06.16.29.29,0,0,1-.14.13h0a.35.35,0,0,1-.19,0,.3.3,0,0,1-.18,0l-.05,0h0l-.14-.07-.21-.07-.14,0h-.19l-.26,0a1.25,1.25,0,0,0-.27.08l-.17.09-.14.1a1.34,1.34,0,0,0-.11.14,1,1,0,0,0-.09.15.91.91,0,0,0-.07.35,1,1,0,0,0,.07.34,1.34,1.34,0,0,0,.2.29.8.8,0,0,0,.19.13.35.35,0,0,0,.12.07.87.87,0,0,0,.37.07,1.71,1.71,0,0,1,.43.06l.12,0,.22.09,0,0h0l.24.13a.19.19,0,0,0,.07.06l.06.07A1.66,1.66,0,0,1,191.85,151.85Z"/><path class="cls-2" d="M32,143.62l1.55,1.87a.4.4,0,0,1,.09.2.34.34,0,0,1,0,.2.43.43,0,0,1-.13.14.37.37,0,0,1-.21.06A.34.34,0,0,1,33,146l-1.41-1.67a.33.33,0,0,0-.28-.13.32.32,0,0,0-.27.13L29.65,146a.35.35,0,0,1-.28.12.34.34,0,0,1-.2-.06.43.43,0,0,1-.13-.14.34.34,0,0,1,0-.2.4.4,0,0,1,.09-.2l1.55-1.87a.34.34,0,0,0,0-.46l-1.71-2.07a.27.27,0,0,1-.08-.19.31.31,0,0,1,0-.19.34.34,0,0,1,.13-.16.32.32,0,0,1,.2-.06h0a.37.37,0,0,1,.28.14l1.54,1.84a.33.33,0,0,0,.27.14.34.34,0,0,0,.28-.14l1.53-1.84a.37.37,0,0,1,.28-.14h0a.32.32,0,0,1,.2.06.34.34,0,0,1,.13.16.31.31,0,0,1,0,.19.33.33,0,0,1-.08.19L32,143.16a.34.34,0,0,0,0,.46Z"/><path class="cls-2" d="M37.13,140.49a2.63,2.63,0,0,1,1.09.23,2.77,2.77,0,0,1,.48.26,2.74,2.74,0,0,1,.41.34,2.59,2.59,0,0,1,.6.89,2.63,2.63,0,0,1,.23,1.09,2.66,2.66,0,0,1-.23,1.09,2.69,2.69,0,0,1-.6.89,2.25,2.25,0,0,1-.41.34,3.67,3.67,0,0,1-.48.26,2.86,2.86,0,0,1-1.09.21h-1a1.17,1.17,0,0,1-.45-.09,1.17,1.17,0,0,1-.62-.62,1.13,1.13,0,0,1-.09-.45v-3.27a1.13,1.13,0,0,1,.09-.45,1.09,1.09,0,0,1,.25-.38,1.08,1.08,0,0,1,.37-.24,1,1,0,0,1,.45-.1Zm.08,4.84h.11a2.06,2.06,0,0,0,.91-.35,2,2,0,0,0,.68-.75,2.07,2.07,0,0,0,.17-.45,2,2,0,0,0,.06-.48,2.05,2.05,0,0,0-.06-.49,1.92,1.92,0,0,0-.17-.44,2,2,0,0,0-.68-.76,1.71,1.71,0,0,0-.94-.34h-.35a1.13,1.13,0,0,0-.45.09,1.47,1.47,0,0,0-.38.25,1.31,1.31,0,0,0-.24.37,1.13,1.13,0,0,0-.09.45v1.75a1.13,1.13,0,0,0,.09.45,1.31,1.31,0,0,0,.24.37,1.23,1.23,0,0,0,.38.24,1,1,0,0,0,.45.1Z"/><path class="cls-2" d="M41.26,145.94a.41.41,0,0,1-.22.21.39.39,0,0,1-.3,0,.34.34,0,0,1-.2-.22.35.35,0,0,1,0-.3l2-5a.41.41,0,0,1,.52-.19.38.38,0,0,1,.2.23.33.33,0,0,1,0,.29Z"/><path class="cls-2" d="M45.12,141.67v.66a.37.37,0,0,0,.12.27.36.36,0,0,0,.28.12h1.22a.41.41,0,0,1,.28.11.39.39,0,0,1,0,.56.41.41,0,0,1-.28.11H45.52a.36.36,0,0,0-.28.12.37.37,0,0,0-.12.27v1.81A.38.38,0,0,1,45,146a.35.35,0,0,1-.27.11.37.37,0,0,1-.28-.11.38.38,0,0,1-.12-.28v-4.81a.41.41,0,0,1,.4-.4h2a.41.41,0,0,1,.4.4.37.37,0,0,1-.12.27.38.38,0,0,1-.28.12H45.52a.39.39,0,0,0-.28.11A.38.38,0,0,0,45.12,141.67Z"/><path class="cls-2" d="M50.72,145.73a.36.36,0,0,1-.11.26.33.33,0,0,1-.26.1H48.29A.36.36,0,0,1,48,146a.35.35,0,0,1-.1-.26.34.34,0,0,1,.1-.26.36.36,0,0,1,.27-.1h.3a.36.36,0,0,0,.26-.11A.35.35,0,0,0,49,145v-3.41a.35.35,0,0,0-.1-.26.36.36,0,0,0-.26-.11h-.31a.36.36,0,0,1-.27-.1.39.39,0,0,1,0-.52.37.37,0,0,1,.27-.11h2.06a.37.37,0,0,1,.27.11.39.39,0,0,1,0,.52.36.36,0,0,1-.27.1H50a.36.36,0,0,0-.26.11.35.35,0,0,0-.1.26V145a.35.35,0,0,0,.1.26.36.36,0,0,0,.26.11h.31a.33.33,0,0,1,.26.1A.35.35,0,0,1,50.72,145.73Z"/><path class="cls-2" d="M57.39,143.54a.39.39,0,0,1,.17.14.47.47,0,0,1,.1.2.37.37,0,0,1,0,.23,2,2,0,0,1-.16.45,2.52,2.52,0,0,1-.63.85A2.9,2.9,0,0,1,56,146a2.83,2.83,0,0,1-1.1.2,2.72,2.72,0,0,1-1.11-.22,3,3,0,0,1-.89-.62,3.15,3.15,0,0,1-.59-.92,3,3,0,0,1-.21-1.12,2.71,2.71,0,0,1,.23-1.12,2.53,2.53,0,0,1,.9-1.16,3.28,3.28,0,0,1,.31-.2h0a2.92,2.92,0,0,1,1-.36,2.7,2.7,0,0,1,.94,0,2.37,2.37,0,0,1,.36.09,2,2,0,0,1,.34.14,3.47,3.47,0,0,1,.33.18,2.86,2.86,0,0,1,.3.22,2.64,2.64,0,0,1,.37.38.34.34,0,0,1,.08.32.32.32,0,0,1-.19.26.36.36,0,0,1-.27,0,.37.37,0,0,1-.22-.14l-.08-.08a.27.27,0,0,0-.07-.08h0l-.14-.14-.16-.12h0a2.11,2.11,0,0,0-.3-.16,2.53,2.53,0,0,0-.33-.12h-.09a2.12,2.12,0,0,0-.44-.05,2.08,2.08,0,0,0-.82.17,1.85,1.85,0,0,0-.66.45,1.8,1.8,0,0,0-.45.66,2.08,2.08,0,0,0-.17.82,2.18,2.18,0,0,0,.15.82,2.26,2.26,0,0,0,.43.67,2.18,2.18,0,0,0,.64.45,1.91,1.91,0,0,0,.8.17,2.47,2.47,0,0,0,.63-.08l.29-.1.26-.13a1.46,1.46,0,0,0,.24-.17,2.09,2.09,0,0,0,.22-.2.33.33,0,0,0,.07-.16.27.27,0,0,0-.13-.29.25.25,0,0,0-.17-.06h-1a.33.33,0,0,1-.25-.1.36.36,0,0,1,0-.52.33.33,0,0,1,.25-.1h2A.42.42,0,0,1,57.39,143.54Z"/><path class="cls-2" d="M61.6,142.61l1.54-2a.32.32,0,0,1,.29-.16h.18a.35.35,0,0,1,.26.11.33.33,0,0,1,.11.26v4.95a.34.34,0,0,1-.36.36.38.38,0,0,1-.27-.1.37.37,0,0,1-.1-.26v-3.08a.32.32,0,0,0-.07-.22.3.3,0,0,0-.17-.13.33.33,0,0,0-.22,0,.41.41,0,0,0-.2.14l-1,1.3a.37.37,0,0,1-.13.12.34.34,0,0,1-.32,0,.41.41,0,0,1-.14-.12l-1-1.3a.35.35,0,0,0-.19-.13.45.45,0,0,0-.23,0,.34.34,0,0,0-.17.13.32.32,0,0,0-.07.22v3.08a.38.38,0,0,1-.11.26.39.39,0,0,1-.52,0,.37.37,0,0,1-.1-.26v-4.95a.35.35,0,0,1,.1-.26.37.37,0,0,1,.27-.11h.18a.35.35,0,0,1,.3.16l1.52,2a.3.3,0,0,0,.14.11.34.34,0,0,0,.32,0A.28.28,0,0,0,61.6,142.61Z"/><path class="cls-2" d="M69.79,146.09h0a.42.42,0,0,1-.21-.06.33.33,0,0,1-.15-.16l-.61-1.33a.36.36,0,0,0-.36-.22H66.24a.37.37,0,0,0-.21.06.33.33,0,0,0-.15.16l-.63,1.33a.34.34,0,0,1-.35.22.3.3,0,0,1-.19-.05.44.44,0,0,1-.14-.13.49.49,0,0,1-.06-.17.48.48,0,0,1,0-.2l2.26-4.9a.37.37,0,0,1,.36-.23h.35a.42.42,0,0,1,.21.06.35.35,0,0,1,.15.17l2.26,4.9a.33.33,0,0,1,0,.37A.4.4,0,0,1,70,146,.32.32,0,0,1,69.79,146.09ZM67,143.53h.77a.27.27,0,0,0,.18-.05.35.35,0,0,0,.14-.13.4.4,0,0,0,0-.37l-.39-.82a.34.34,0,0,0-.14-.17.4.4,0,0,0-.57.17l-.37.82a.29.29,0,0,0,0,.2.49.49,0,0,0,.06.17.4.4,0,0,0,.13.13A.33.33,0,0,0,67,143.53Z"/><path class="cls-2" d="M38.16,151.85a1.41,1.41,0,0,1,.17.71,1.61,1.61,0,0,1-.12.63,1.59,1.59,0,0,1-.37.5,1.16,1.16,0,0,1-.25.2,1.59,1.59,0,0,1-.29.15,2.1,2.1,0,0,1-.4.1l-.43,0h-.23l-.25,0-.24-.06-.22-.07h0l0,0a.13.13,0,0,0-.07,0l-.08-.06,0,0a.34.34,0,0,1-.1-.13.35.35,0,0,1,0-.34.53.53,0,0,1,.14-.12h0a.6.6,0,0,1,.2,0,.3.3,0,0,1,.17,0l0,0h0a.79.79,0,0,0,.16.08l.2.07a1.17,1.17,0,0,0,.32,0l.27,0a1.58,1.58,0,0,0,.28-.08l.16-.08.13-.11a.69.69,0,0,0,.2-.29.74.74,0,0,0,.07-.34.77.77,0,0,0-.07-.34.51.51,0,0,0-.09-.16.45.45,0,0,0-.11-.13,1.14,1.14,0,0,0-.17-.15l-.06,0-.07,0a.86.86,0,0,0-.36-.07,1.51,1.51,0,0,1-.44-.06h-.06l-.06,0-.22-.1h0a1.14,1.14,0,0,1-.23-.15l-.07-.06-.07-.06-.17-.19a1.38,1.38,0,0,1-.14-.24A1.44,1.44,0,0,1,35,150a1.31,1.31,0,0,1,.14-.62,1.43,1.43,0,0,1,.36-.52,2.54,2.54,0,0,1,.24-.2,2,2,0,0,1,.29-.14,1.63,1.63,0,0,1,.41-.1,3.88,3.88,0,0,1,.42,0l.23,0,.25,0,.24.06.22.07,0,0h0l0,0,0,0,.07.05,0,0a.18.18,0,0,1,.09.12.38.38,0,0,1,0,.17.49.49,0,0,1-.06.16.29.29,0,0,1-.14.13h0a.35.35,0,0,1-.19,0,.3.3,0,0,1-.18,0l-.05,0h0l-.15-.07-.2-.07-.14,0h-.19l-.26,0a1,1,0,0,0-.28.08l-.16.09a.71.71,0,0,0-.14.1,1.34,1.34,0,0,0-.11.14,1,1,0,0,0-.09.15.75.75,0,0,0-.07.35.83.83,0,0,0,.07.34,1.34,1.34,0,0,0,.2.29.8.8,0,0,0,.19.13.41.41,0,0,0,.11.07.94.94,0,0,0,.37.07,1.72,1.72,0,0,1,.44.06l.12,0,.22.09s0,0,0,0h0a1.57,1.57,0,0,1,.23.13.21.21,0,0,0,.08.06l.06.07A1.72,1.72,0,0,1,38.16,151.85Z"/><path class="cls-2" d="M42.51,154l-1.73-1.73a.32.32,0,0,0-.19-.1.44.44,0,0,0-.2,0,.4.4,0,0,0-.16.13.37.37,0,0,0-.06.21v1.21a.35.35,0,0,1-.11.26.34.34,0,0,1-.26.1.35.35,0,0,1-.26-.1.34.34,0,0,1-.1-.26v-4.88a.33.33,0,0,1,.1-.25.36.36,0,0,1,.26-.11.35.35,0,0,1,.26.11.34.34,0,0,1,.11.25v.85a.37.37,0,0,0,.06.21.4.4,0,0,0,.16.13.44.44,0,0,0,.2,0,.32.32,0,0,0,.19-.1l1.36-1.36a.4.4,0,0,1,.26-.11.38.38,0,0,1,.21.07.34.34,0,0,1,.13.16.44.44,0,0,1,0,.2.37.37,0,0,1-.11.2l-1.73,1.73a.36.36,0,0,0,0,.52L43,153.48a.39.39,0,0,1,.1.19.44.44,0,0,1,0,.2A.4.4,0,0,1,43,154a.34.34,0,0,1-.2.06A.39.39,0,0,1,42.51,154Z"/><path class="cls-2" d="M45.05,149.67v.66a.4.4,0,0,0,.11.27.38.38,0,0,0,.28.12h1.23a.39.39,0,1,1,0,.78H45.44a.38.38,0,0,0-.28.12.4.4,0,0,0-.11.27v1a.39.39,0,0,0,.11.27.38.38,0,0,0,.28.12h1.23a.38.38,0,0,1,.28.12.39.39,0,0,1,.11.27A.41.41,0,0,1,47,154a.37.37,0,0,1-.28.11h-2a.36.36,0,0,1-.27-.11.38.38,0,0,1-.12-.28v-4.81a.38.38,0,0,1,.12-.28.37.37,0,0,1,.27-.12h2a.38.38,0,0,1,.28.12.41.41,0,0,1,.11.28.4.4,0,0,1-.11.27.38.38,0,0,1-.28.12H45.44a.38.38,0,0,0-.39.39Z"/><path class="cls-2" d="M52.53,148.86a.36.36,0,0,1-.11.26.35.35,0,0,1-.26.1H50.77a.36.36,0,0,0-.26.11.35.35,0,0,0-.1.26v4.14a.36.36,0,0,1-.11.26.36.36,0,0,1-.62-.26v-4.14a.38.38,0,0,0-.37-.37H48a.32.32,0,0,1-.25-.1.36.36,0,0,1,0-.52.33.33,0,0,1,.25-.11h4.13a.38.38,0,0,1,.37.37Z"/><path class="cls-2" d="M57.54,153a.32.32,0,0,1,.15.13.43.43,0,0,1,0,.38.37.37,0,0,1-.13.15,1.82,1.82,0,0,1-.23.15l-.24.12a2.83,2.83,0,0,1-1.16.24,2.79,2.79,0,0,1-2-.84,2.69,2.69,0,0,1-.63-.92,2.76,2.76,0,0,1-.22-1.12,2.8,2.8,0,0,1,.22-1.12,3,3,0,0,1,.63-.92,2.85,2.85,0,0,1,.91-.61,2.8,2.8,0,0,1,1.12-.23,2.66,2.66,0,0,1,1.24.28,2.5,2.5,0,0,1,.56.35.33.33,0,0,1,.11.15.33.33,0,0,1,0,.19.27.27,0,0,1-.06.17.34.34,0,0,1-.15.14.38.38,0,0,1-.21,0,.44.44,0,0,1-.2-.08,1.91,1.91,0,0,0-.49-.29,2.09,2.09,0,0,0-1.65,0,2,2,0,0,0-.67.45,1.93,1.93,0,0,0-.45.66,2.18,2.18,0,0,0,0,1.64,2.09,2.09,0,0,0,1.12,1.12,2.08,2.08,0,0,0,.82.17,2.11,2.11,0,0,0,.74-.14l.24-.11.21-.13A.37.37,0,0,1,57.54,153Z"/><path class="cls-2" d="M63.4,148.86v4.87a.36.36,0,0,1-.11.26.36.36,0,0,1-.62-.26v-1.9a.36.36,0,0,0-.11-.26.35.35,0,0,0-.26-.1h-2a.35.35,0,0,0-.26.1.36.36,0,0,0-.11.26v1.9a.35.35,0,0,1-.1.26.34.34,0,0,1-.26.1.34.34,0,0,1-.36-.36v-4.87a.35.35,0,0,1,.1-.26.36.36,0,0,1,.26-.11.35.35,0,0,1,.26.11.35.35,0,0,1,.1.26v1.52a.36.36,0,0,0,.11.26.35.35,0,0,0,.26.1h2a.35.35,0,0,0,.26-.1.36.36,0,0,0,.11-.26v-1.52a.35.35,0,0,1,.1-.26.37.37,0,0,1,.27-.11.33.33,0,0,1,.25.11A.36.36,0,0,1,63.4,148.86Z"/><circle class="cls-2" cx="118.92" cy="34.25" r="3"/><circle class="cls-2" cx="118.92" cy="149.17" r="3"/><circle class="cls-2" cx="159.55" cy="51.08" r="3"/><circle class="cls-2" cx="78.29" cy="132.34" r="3"/><circle class="cls-2" cx="176.38" cy="91.71" r="3"/><circle class="cls-2" cx="61.46" cy="91.71" r="3"/><circle class="cls-2" cx="159.55" cy="132.34" r="3"/><circle class="cls-2" cx="78.29" cy="51.08" r="3"/><path class="cls-2" d="M105.77,57.06c3.57-1.79,6.36-4.76,9.94-6.55,4-2,8.17-2,12.4-.82a81,81,0,0,1,12.66,4.9c2,.91,3.94,1.86,5.88,2.87a13.36,13.36,0,0,1,4.47,3.21,10.55,10.55,0,0,1,1.82,5.62c.24,2.27.41,4.54.56,6.81Q154,80,153.94,87a33.19,33.19,0,0,1-.32,6.61,8.73,8.73,0,0,1-2.88,4.91c-2.72,2.45-6.33,3.58-9.57,5.16a17,17,0,0,0-7.7,6.9c-1.61,2.85-2.75,6.52-5.91,8.05-3.76,1.81-8.16.23-11.94-.68-4.23-1-8.57-1.15-12.89-1.63-3.83-.43-7.76-1.27-11-3.46-2.9-2-4.43-5-5.82-8.09-1.28-2.86-2.55-5.88-4.9-8.05a17.29,17.29,0,0,0-3.86-2.51c-1.19-.63-2.74-1.33-3.35-2.62-.76-1.62.33-3.93.86-5.5A41.22,41.22,0,0,1,77,80.52,45.24,45.24,0,0,1,83.55,71c4.84-5.41,10.79-10.41,18-12.17,1.58-.39,3.18-.53,4.49-1.58s-.52-2.77-1.77-1.77a5.82,5.82,0,0,1-2.4.71,26.61,26.61,0,0,0-2.88.77,29,29,0,0,0-5.38,2.38,45.34,45.34,0,0,0-9.26,7.24,48.09,48.09,0,0,0-12.7,20.85c-.52,1.8-.92,3.71,0,5.45A8.3,8.3,0,0,0,75.16,96a19.7,19.7,0,0,1,4.21,2.63,14.74,14.74,0,0,1,2.85,4.12c1.59,3.14,2.7,6.52,4.93,9.3,2.45,3,6.12,4.84,9.85,5.82,4.32,1.12,8.81,1.17,13.22,1.68s9,2.48,13.59,2.4a10.66,10.66,0,0,0,9.26-5.3c2-3.2,3.07-6.78,6.31-9s7.21-3.31,10.59-5.41,5.8-5.18,6.28-9.33c.56-4.76.22-9.76,0-14.53a102.35,102.35,0,0,0-1.17-14.43c-.81-4.3-3.64-6.75-7.37-8.67A133.68,133.68,0,0,0,135,49.4c-4.27-1.67-8.84-3.31-13.49-3-4.38.27-8.24,2.36-11.67,5a34.71,34.71,0,0,1-5.28,3.57c-1.44.72-.18,2.88,1.26,2.16Z"/></svg>