<svg id="圖層_1" data-name="圖層 1" xmlns="http://www.w3.org/2000/svg" viewBox="0 0 18.92 19.26"><defs><style>.cls-1{fill:#9db6b8;}.cls-2{fill:#ede6dd;}</style></defs><circle class="cls-1" cx="9.57" cy="9.63" r="7.77"/><path class="cls-2" d="M10.78,6.31l-.29.5,0,0s0,0,0,.06l0,0h0L10.37,7l-.2.3L10,7.56l-.42.76c-.14.26-.27.5-.41.73l-.07.12-.07.11,0,.07a.64.64,0,0,0-.08.14l-.11.15,0,0-.09.13L8.65,10l0,0,.08,0,.15-.06h0l.26-.12.28-.09.22-.09.22-.09.45-.15.17,0,.06,0h0l.27-.08L11,9.14l.2-.06h0l0,0h0L11.6,9l.48-.12.46-.09.14,0h.26l.09,0,.82-.07.1,0c.05,0,.07.05.05.08l0,.13a.08.08,0,0,1-.07.08h-.06l-.55.1-.16,0-.29,0-.28.06-.16,0-.32,0h0l-.33.08-.18.05-.24.08h-.05l-.06,0-.69.2-.07,0,0,0-.06,0-.08,0-.23.09L9.87,10l-.12,0-.09,0-.1,0-.08,0-.19.07a1.55,1.55,0,0,1-.23.06l-.4.16-.16.07-.15.06a.1.1,0,0,1-.08,0l-.09.15-.08.16a.37.37,0,0,1,0,.11l-.07.1-.41.61a.57.57,0,0,1-.15.22.76.76,0,0,1-.08.11l-.08.1-.19.29-.15.21-.35.46-.06.1a.44.44,0,0,1-.06.1l-.06.08-.15.18-.2.22h0l0,.06-.1.12L5.84,14l-.34.41-.22.25-.36.39v0l-.13.15c-.08.09-.2.23-.38.4l-.49.43-.25.18-.18.14a5.91,5.91,0,0,1-.92.39H2.13a.57.57,0,0,1-.16,0,.13.13,0,0,1-.07,0s0,0-.06-.07h0l-.07-.07h0a.31.31,0,0,1-.12-.2,2.48,2.48,0,0,1,0-.27.83.83,0,0,1,0-.27,2.37,2.37,0,0,1,.13-.51s0,0,0,0L2,14.84a.1.1,0,0,1,0-.07.06.06,0,0,0,0,0,.75.75,0,0,1,.07-.12l.08-.12.15-.24.12-.15,0,0,0,0c.09-.09.18-.2.28-.32a2.58,2.58,0,0,1,.34-.32L3.6,13c.15-.14.29-.27.42-.37l.92-.68c.34-.23.66-.43,1-.62s.64-.38,1-.56l.86-.47.17,0L8,10.16l0-.05H8L8.1,10h0l.35-.57.33-.56s0-.07.06-.12a.88.88,0,0,0,.07-.12,5.23,5.23,0,0,0,.35-.58l.27-.51c.09-.14.18-.28.26-.43L10,6.66l.08-.12.06-.11.18-.29v0s0,0,0,0l.6-1,.12-.23c.06-.12.12-.25.18-.4s.11-.31.16-.47a2,2,0,0,0,.07-.44.42.42,0,0,0-.11-.31c-.08-.07-.22-.06-.43,0l-.22.05a.41.41,0,0,1-.11.07.36.36,0,0,0-.09.08l-.09,0-.06,0-.07.06-.11.09a.4.4,0,0,0-.17.1.41.41,0,0,1-.11.07l-.06,0,0,0a5.83,5.83,0,0,0-.72.66,7,7,0,0,0-.92,1.18A1.17,1.17,0,0,0,8.11,6L8,6.34l-.1.3-.07.23,0,.11s0,0,0,.07a.17.17,0,0,0,0,.07v0a0,0,0,0,0,0,0,.07.07,0,0,0,0,0,0,0,0,0,1,0,0v0a.52.52,0,0,0,0,.14v.2s0,0,0,0v.06h0a.09.09,0,0,1,0,0,.09.09,0,0,0,0,0,.56.56,0,0,1,0,.07s0,0,0,0l.15.91,0,.11A.26.26,0,0,1,7.81,9h0a.21.21,0,0,1-.15.07.2.2,0,0,1-.16,0,.32.32,0,0,1-.12-.17c0-.09,0-.18-.07-.28s0-.2,0-.3,0-.18,0-.25a.3.3,0,0,1,0-.1.13.13,0,0,0,0-.06,0,0,0,0,0,0,0V7.8a.2.2,0,0,1,0-.13V7.61a.38.38,0,0,1,0-.1V7.25s0,0,0,0,0,0,0,0L7.3,7a.27.27,0,0,1,0-.08l0-.19,0-.15a.32.32,0,0,1,.06-.15l.1-.2,0-.12a1.89,1.89,0,0,1,.06-.21.52.52,0,0,1,.06-.17l.08-.11s0-.06,0-.06,0,0,0,0l0,0,0-.09,0-.06a.2.2,0,0,1,0-.08l0-.07a7.43,7.43,0,0,1,.83-.93c.31-.29.59-.53.86-.74s.5-.37.7-.49l.33-.2a.82.82,0,0,0,.21,0l.07,0h.12a.07.07,0,0,1,.06,0,1.15,1.15,0,0,1,.24,0,.71.71,0,0,1,.28.09.66.66,0,0,1,.22.22.69.69,0,0,1,.08.38,2.64,2.64,0,0,1-.19.88,8.09,8.09,0,0,1-.68,1.36l-.13.21-.1.15-.06.08-.11.14Zm-6,8.31h0l.08-.07h0l.1-.11L5,14.36H5l.36-.44.08-.06.12-.13h0l.19-.27.11-.15.11-.14.28-.36.18-.25.16-.23.35-.48A.42.42,0,0,0,7,11.7l.08-.11.45-.68L7.25,11l-.14.09L7,11.19l-.31.17-.35.21-1,.58-.56.39L4.24,13l-.2.17-.43.38c-.14.13-.27.26-.38.38a4,4,0,0,0-.67.92,3.1,3.1,0,0,0-.43.85.65.65,0,0,0,0,.2l0,.13h0v0l0,.07,0,.21,0,0,.06.08h0s0,0,0,0a.17.17,0,0,1,.14,0s0,0,.08,0l.24-.07.3-.19.05,0a.13.13,0,0,0,.06,0L3.28,16l.25-.2h0l.13-.12.23-.18.29-.31h0l.27-.27Z"/></svg>