<svg id="圖層_1" data-name="圖層 1" xmlns="http://www.w3.org/2000/svg" viewBox="0 0 19.83 18.45"><defs><style>.cls-1{fill:none;stroke:#565b65;stroke-miterlimit:10;stroke-width:0.7px;opacity:0.7;}</style></defs><path class="cls-1" d="M6.18,5.27l.08-.08c.9-.85,1.68-.08,2.27.73A1.76,1.76,0,0,1,9,6.73c0,.61-.73.78-.81,1.39S8.86,9.6,9.37,10s1.54,1.5,2.34.6a1.75,1.75,0,0,1,.46-.44c.59-.32,1.52.63,1.84,1.05.71.9.18,1.73-.76,2.12a3.27,3.27,0,0,1-3-.2c-2-1.22-4.24-2.74-4.72-5.27A3,3,0,0,1,6.18,5.27Z"/></svg>