<svg id="圖層_1" data-name="圖層 1" xmlns="http://www.w3.org/2000/svg" viewBox="0 0 48.87 37.23"><defs><style>.cls-1{opacity:0.9;}.cls-2{fill:none;stroke:#9bb3b5;stroke-linecap:round;stroke-linejoin:round;stroke-width:2.5px;}.cls-3{fill:#9bb3b5;}</style></defs><g class="cls-1"><path class="cls-2" d="M24.45,24.22H35.69c1,0,1.14.19,1.07,1.17-.26,3.3-1.87,4.91-4.53,6.79a1,1,0,0,0-.51,1,6.89,6.89,0,0,1,0,.91c0,.74-.22.95-1,1H18.15c-.8,0-1.06-.22-1-1a2.3,2.3,0,0,0-1-2.29c-2.31-1.72-3.7-3.17-4-6.09,0-.21,0-.43,0-.64a.7.7,0,0,1,.74-.79c.36,0,.72,0,1.07,0Z"/><path class="cls-2" d="M34.85,20.54H14.21C14,18.71,15.37,15.79,16.83,16a.79.79,0,0,1,.41.12c.49.46.91.23,1.41,0a7.6,7.6,0,0,1,6.05-.4.72.72,0,0,0,.82-.18,3,3,0,0,1,4.79,1c.05.13.34.21.5.19a3.11,3.11,0,0,1,3.3,1.24C34.41,18.33,34.57,19.93,34.85,20.54Z"/><path class="cls-3" d="M26.31,5.8a4.12,4.12,0,0,1-.77,2.3,2.18,2.18,0,0,0-.28,2.49,3.9,3.9,0,0,1,.26.64,1.16,1.16,0,0,1-.64,1.47,1.14,1.14,0,0,1-1.51-.51c-.94-1.77-1.17-3.53.12-5.26a1.94,1.94,0,0,0,.05-2.39,4.69,4.69,0,0,1-.44-.79,1.18,1.18,0,0,1,.49-1.39,1.1,1.1,0,0,1,1.46.19A5.19,5.19,0,0,1,26.31,5.8Z"/><path class="cls-3" d="M31.81,5.67a3.77,3.77,0,0,1-.75,2.44,2.16,2.16,0,0,0-.26,2.49,4,4,0,0,1,.25.65,1.17,1.17,0,0,1-.65,1.46,1.16,1.16,0,0,1-1.48-.49C28,10.46,27.71,8.7,29,7a2,2,0,0,0,.08-2.43L28.73,4a1.13,1.13,0,0,1,.35-1.55,1.09,1.09,0,0,1,1.53.19A4.76,4.76,0,0,1,31.81,5.67Z"/><path class="cls-3" d="M20.77,5.32A4.34,4.34,0,0,1,20,8.1a2.21,2.21,0,0,0-.25,2.54,2.92,2.92,0,0,1,.25.7,1.17,1.17,0,0,1-2.17.84c-.93-1.77-1.16-3.53.15-5.25a1.91,1.91,0,0,0,.08-2.34,7.66,7.66,0,0,1-.41-.68A1.15,1.15,0,0,1,18,2.4a1.11,1.11,0,0,1,1.54.18A5.06,5.06,0,0,1,20.77,5.32Z"/></g></svg>