<svg id="圖層_1" data-name="圖層 1" xmlns="http://www.w3.org/2000/svg" viewBox="0 0 18.92 19.26"><defs><style>.cls-1{fill:#9db6b8;}.cls-2{fill:#ede6dd;}</style></defs><circle class="cls-1" cx="9.46" cy="9.63" r="7.77"/><path class="cls-2" d="M9.11,5.61h0l-.07.15L9,5.86l0,0S8.92,6,8.92,6l0,.18,0,.13v.2a.42.42,0,0,0,0,.16.94.94,0,0,0,0,.16l0,.08h0L9,7,9,7l.09.12.07,0h0l.06,0,.09,0,.06.07h0a0,0,0,0,1,0,0h0l.05,0,.07,0,.13,0h.07l.09,0H10l0,0,.15,0,.13,0,.14-.07a.61.61,0,0,1,.27,0,.2.2,0,0,1,.11,0s.06.06.06.13a.2.2,0,0,1-.06.15l-.12.08-.23.09h0s-.05,0-.1,0l-.14.08L10.1,8,10,8l-.14.05H9.75l-.09.06-.08,0-.4.18-.08.06L9,8.49l-.08,0H8.86l0,0-.08.07-.24.15-.09,0v0a.13.13,0,0,1-.05.06l-.07,0h0L8.18,9,8,9.09,8,9.14H8l0,0h0l-.06.05-.08,0,0,0a.81.81,0,0,1-.06.08l-.06,0h0l-.07.08-.07.08-.15.1s0,0,0,0l-.1.09,0,.05,0,0h0L6.92,10s0,0,0,0h0l-.12.08h0s0,0,0,.06a.17.17,0,0,1-.06.12l-.12.13-.1.1-.08.12-.05.05v0s0,0,0,.06l0,.05-.1.11s0,0,0,.05l0,.12-.08.08,0,.05h0v.09L6,11.47v0l0,.05,0,0v.14a.06.06,0,0,1,0,0l0,.1a.16.16,0,0,0,0,.1,2.35,2.35,0,0,0,.06.33v.18a2,2,0,0,0,.14.22.65.65,0,0,0,.15.17l0,0,.06.06.07.06h0l.07,0,.08,0h.16a.12.12,0,0,1,.08,0s0,0,0,0l.17,0,.11,0,.27,0,.25,0L8,13.05H8l.06,0,.08,0,.39-.14.21-.07.08,0,.07,0,.1,0a.14.14,0,0,0,.1-.05l.07,0,.09-.08h0s0,0,0,0h.06l.1,0,.07-.05.23-.13.11,0a.06.06,0,0,1,.05,0l.06,0a0,0,0,0,1,0,0l0,0a.37.37,0,0,1,.1-.07h0s0,0,.05,0h0l.14-.12h.1l.08-.05.07-.08a.12.12,0,0,1,.09,0h0l.15-.16H11l.08,0h0l.06,0,.06-.08.12-.07.12-.08h0l.08-.07.07-.07h0a.28.28,0,0,1,.07-.09v0l.06,0,.13-.11.13-.12.19-.15.2-.17.06,0,0,0h0l.07,0,.08,0h0l.09-.1,0-.06.07-.06s0,0,0,0h0l.22-.22.33-.29.27-.28.07,0v0l0,0,0,0,.07-.08.05,0L14,9,14,8.91l0,0,.13-.14.12,0h.06a.4.4,0,0,1,.13.1s0,0,0,.12L14.4,9h0l-.05.08-.09.1-.1.09h0s0,.05-.07.05h0a.08.08,0,0,1,0,.05h0l-.24.26-.32.33-.1.06-.1.09,0,0,0,0s0,0,0,.06a.17.17,0,0,0-.06.06l-.1.06v0l-.12.13-.14.12v0l-.1.09h0l-.05.07-.06.08-.08,0,0,0v0l0,0-.15.13,0,0h0l-.08.09a.07.07,0,0,1-.06,0l0,.06-.25.2-.24.17-.19.13L11,12h0L11,12l-.05,0-.06,0,0,0h-.05l0,0h0l-.08.08h0l-.07,0a.18.18,0,0,1-.08.06l-.31.17-.39.22h0l-.09.07-.07,0-.08,0-.07.05-.07,0-.09,0L9,13.14l-.1,0-.06,0-.26.09-.07,0-.39.14-.06,0h0l-.09,0-.11,0H7.73l-.18,0h0s0,0,0,0H7a.06.06,0,0,1-.08,0l-.18,0H6.62l0,0-.08,0H6.22l0,0-.08-.08H6l-.13-.1-.11-.12,0-.05h0l0,0s0,0,0,0a.92.92,0,0,1-.18-.3l0-.06h0l-.06-.08a.28.28,0,0,1,0-.11s0,0,0,0v-.1h0a.26.26,0,0,1-.06-.13v-.13s0,0,0-.07l0,0a.28.28,0,0,1,0-.15v-.07a.64.64,0,0,1,0-.07l0-.09,0-.09a.15.15,0,0,1,0-.06v-.07l.05-.07a0,0,0,0,1,0,0v0a.13.13,0,0,0,0-.06.19.19,0,0,1,0-.1L5.56,11a.16.16,0,0,1,.05-.09l.06-.1s0,0,0,0a.13.13,0,0,0,0-.05v0l.08-.09.06-.06h0a.13.13,0,0,0,0-.08l0,0,0,0h0c.11-.13.23-.27.38-.42l.46-.47.05,0h0l.09-.09.13-.14.12-.11L7.25,9h0l.06,0,.07-.1.14-.08.14-.07.07,0,.06,0,.09-.1h0L8,8.52H8l.06,0,.09-.07.21-.14.24-.13.09-.06h.06s0,0,.06-.05l0,0L9,7.92H9l.13-.11.05,0a.38.38,0,0,1-.14,0l-.15-.08a1.24,1.24,0,0,1-.41-.37,1.47,1.47,0,0,1-.19-.63.17.17,0,0,1,0-.08V6.41s0,0,0,0v0a.61.61,0,0,1,0-.17.25.25,0,0,1,0-.08.2.2,0,0,0,0-.07l0-.14,0-.11.06-.13.1-.14a.09.09,0,0,1,0,0l.06-.06h0l.16-.23L9,5a3,3,0,0,1,.25-.27h0l0-.05a.12.12,0,0,0,.05,0l.32-.31.22-.23,0,0h0l.17-.16.15-.12h0l.05,0a0,0,0,0,0,0,0l.28-.21.14-.1.06,0h0l.07,0,.08-.05,0,0h0l.16-.1L11.32,3l.24-.13.24-.12h0l.11-.07h0l.19-.08.14,0,.11,0a.05.05,0,0,0,0,0h0l.06,0h0l0,0h0l.11,0,.22,0h.42s0,0,0,0l.06,0,.09,0,.08,0,.09.12v.08h.05l0,.19V3a.34.34,0,0,1,0,.14.31.31,0,0,1,0,.13l0,.09a.3.3,0,0,0,0,.1v0l0,.12a.35.35,0,0,0,0,.06l-.06.09v0s0,0,0,0V3.9L13.46,4h0l-.25.35-.15.19-.17.18-.12.14L12.65,5l-.17,0-.13-.09,0-.19,0,0,.06-.08h0l0-.07.17-.16v0l.1-.12s0,0,.05-.06,0,0,0,0A.75.75,0,0,1,12.91,4L13,3.91a0,0,0,0,1,0,0,0,0,0,0,0,0,0l.11-.18.07-.08h0l.05-.1a.65.65,0,0,0,0-.11s0,0,0,0v0a.13.13,0,0,1,0-.07v0a.15.15,0,0,0,0-.06,0,0,0,0,1,0,0h0s0,0,0,0a.05.05,0,0,1,0,0,.08.08,0,0,0,0,0,.08.08,0,0,1,0,0l-.14,0L13,2.86h-.28l-.07,0h-.06s0,0,0,0L12.5,3l0,0h-.07l-.08,0-.13.05h0s0,.05-.1.08l0,0h0l-.22.11-.15.08-.16.1-.1,0-.07.05h0l-.11.08,0,0h0a.16.16,0,0,0-.08.06.1.1,0,0,0-.06,0l-.05,0h0l-.15.12L10.8,4l-.06,0s0,0,0,0l-.14.15-.09,0h0l-.07.1-.36.32L10,4.65l-.13.12-.15.16L9.66,5V5L9.58,5h0l-.06.09-.2.28H9.28Zm-1.22,3,0,0,0,0Z"/></svg>